<?xml version="1.0" encoding="UTF-8" standalone="no"?>
<svg width="1005px" height="1002px" viewBox="0 0 1005 1002" version="1.1" xmlns="http://www.w3.org/2000/svg" xmlns:xlink="http://www.w3.org/1999/xlink" xmlns:sketch="http://www.bohemiancoding.com/sketch/ns">
    <!-- Generator: Sketch 3.4.1 (15681) - http://www.bohemiancoding.com/sketch -->
    <title>browser105</title>
    <desc>Created with Sketch.</desc>
    <defs></defs>
    <g id="Exportable" stroke="none" stroke-width="1" fill="none" fill-rule="evenodd" sketch:type="MSPage">
        <g id="Blog-List" sketch:type="MSLayerGroup" transform="translate(0.000000, -119.000000)">
            <g id="browser105" transform="translate(0.000000, 119.000000)" sketch:type="MSShapeGroup">
                <rect id="Rectangle-1" stroke="#979797" fill="#5E9FEA" x="0" y="0" width="1003" height="1000"></rect>
                <path d="M9.00799351,4 C7.89900932,4 7,4.88939268 7,6.00799351 L7,1000.20547 C7,1001.31445 7.63630492,1001.57715 8.40895761,1000.8045 L1003.8045,5.40895761 C1004.58265,4.63081181 1004.32407,4 1003.20547,4 L9.00799351,4 Z" id="Rectangle-12-Copy" fill="#6EAAEF"></path>
                <g id="Capa_1" transform="translate(277.000000, 334.000000)" fill="#FFFFFF">
                    <g id="Group">
                        <path d="M440.813314,0.546424837 L9.1836107,0.546424837 C4.11150251,0.546424837 0,4.65884571 0,9.73003554 L0,320.880868 C0,325.952976 4.11150251,330.064479 9.1836107,330.064479 L440.813314,330.064479 C445.884504,330.064479 449.996925,325.952976 449.996925,320.880868 L449.996925,9.73003554 C449.996925,4.65792735 445.884504,0.546424837 440.813314,0.546424837 L440.813314,0.546424837 Z M431.629703,18.9136462 L431.629703,76.4269266 L18.3672214,76.4269266 L18.3672214,18.9136462 L431.629703,18.9136462 L431.629703,18.9136462 Z M18.3672214,311.696339 L18.3672214,94.794148 L431.629703,94.794148 L431.629703,311.697257 L18.3672214,311.697257 L18.3672214,311.696339 Z" id="Shape"></path>
                        <path d="M61.8001899,56.8538971 L67.246071,56.8538971 C72.3181792,56.8538971 76.4296817,52.7414763 76.4296817,47.6702864 C76.4296817,42.5990966 72.3181792,38.4866757 67.246071,38.4866757 L61.8001899,38.4866757 C56.729,38.4866757 52.6165792,42.5990966 52.6165792,47.6702864 C52.6165792,52.7414763 56.7280817,56.8538971 61.8001899,56.8538971 L61.8001899,56.8538971 Z" id="Shape"></path>
                        <path d="M101.69655,56.8538971 L107.133247,56.8538971 C112.204437,56.8538971 116.316858,52.7414763 116.316858,47.6702864 C116.316858,42.5990966 112.204437,38.4866757 107.133247,38.4866757 L101.69655,38.4866757 C96.62536,38.4866757 92.5129392,42.5990966 92.5129392,47.6702864 C92.5129392,52.7414763 96.62536,56.8538971 101.69655,56.8538971 L101.69655,56.8538971 Z" id="Shape"></path>
                        <path d="M141.586481,56.8538971 L147.026852,56.8538971 C152.098042,56.8538971 156.210463,52.7414763 156.210463,47.6702864 C156.210463,42.5990966 152.098042,38.4866757 147.026852,38.4866757 L141.586481,38.4866757 C136.515291,38.4866757 132.402871,42.5990966 132.402871,47.6702864 C132.402871,52.7414763 136.514373,56.8538971 141.586481,56.8538971 L141.586481,56.8538971 Z" id="Shape"></path>
                        <path d="M96.2561789,126.886276 L61.802945,126.886276 C56.7317551,126.886276 52.6193343,130.997778 52.6193343,136.069886 C52.6193343,141.141076 56.7317551,145.253497 61.802945,145.253497 L96.2561789,145.253497 C101.327369,145.253497 105.43979,141.141076 105.43979,136.069886 C105.43979,130.998697 101.327369,126.886276 96.2561789,126.886276 L96.2561789,126.886276 Z" id="Shape"></path>
                        <path d="M388.19398,126.886276 L156.096586,126.886276 C151.025396,126.886276 146.912976,130.997778 146.912976,136.069886 C146.912976,141.141076 151.025396,145.253497 156.096586,145.253497 L388.194898,145.253497 C393.266088,145.253497 397.378509,141.141076 397.378509,136.069886 C397.37759,130.998697 393.266088,126.886276 388.19398,126.886276 L388.19398,126.886276 Z" id="Shape"></path>
                        <path d="M96.2561789,171.312911 L61.802945,171.312911 C56.7317551,171.312911 52.6193343,175.424413 52.6193343,180.496522 C52.6193343,185.56863 56.7317551,189.680132 61.802945,189.680132 L96.2561789,189.680132 C101.327369,189.680132 105.43979,185.56863 105.43979,180.496522 C105.43979,175.424413 101.327369,171.312911 96.2561789,171.312911 L96.2561789,171.312911 Z" id="Shape"></path>
                        <path d="M388.19398,171.312911 L320.197608,171.312911 C315.126418,171.312911 311.013997,175.424413 311.013997,180.496522 C311.013997,185.56863 315.126418,189.680132 320.197608,189.680132 L388.19398,189.680132 C393.265169,189.680132 397.37759,185.56863 397.37759,180.496522 C397.37759,175.424413 393.266088,171.312911 388.19398,171.312911 L388.19398,171.312911 Z" id="Shape"></path>
                        <path d="M291.184745,189.680132 C296.255934,189.680132 300.368355,185.56863 300.368355,180.496522 C300.368355,175.424413 296.255934,171.312911 291.184745,171.312911 L230.437915,171.312911 C225.365807,171.312911 221.254304,175.424413 221.254304,180.496522 C221.254304,185.56863 225.365807,189.680132 230.437915,189.680132 L291.184745,189.680132 L291.184745,189.680132 Z" id="Shape"></path>
                        <path d="M156.096586,189.680132 L191.455324,189.680132 C196.526514,189.680132 200.638935,185.56863 200.638935,180.496522 C200.638935,175.424413 196.526514,171.312911 191.455324,171.312911 L156.096586,171.312911 C151.025396,171.312911 146.912976,175.424413 146.912976,180.496522 C146.912976,185.56863 151.024478,189.680132 156.096586,189.680132 L156.096586,189.680132 Z" id="Shape"></path>
                        <path d="M96.2561789,215.737709 L61.802945,215.737709 C56.7317551,215.737709 52.6193343,219.85013 52.6193343,224.92132 C52.6193343,229.99251 56.7317551,234.104931 61.802945,234.104931 L96.2561789,234.104931 C101.327369,234.104931 105.43979,229.99251 105.43979,224.92132 C105.43979,219.85013 101.327369,215.737709 96.2561789,215.737709 L96.2561789,215.737709 Z" id="Shape"></path>
                        <path d="M388.19398,215.737709 L156.096586,215.737709 C151.025396,215.737709 146.912976,219.85013 146.912976,224.92132 C146.912976,229.99251 151.025396,234.104931 156.096586,234.104931 L388.194898,234.104931 C393.266088,234.104931 397.378509,229.99251 397.378509,224.92132 C397.378509,219.85013 393.266088,215.737709 388.19398,215.737709 L388.19398,215.737709 Z" id="Shape"></path>
                        <path d="M96.2561789,260.165263 L61.802945,260.165263 C56.7317551,260.165263 52.6193343,264.277684 52.6193343,269.348873 C52.6193343,274.420063 56.7317551,278.532484 61.802945,278.532484 L96.2561789,278.532484 C101.327369,278.532484 105.43979,274.420063 105.43979,269.348873 C105.43979,264.277684 101.327369,260.165263 96.2561789,260.165263 L96.2561789,260.165263 Z" id="Shape"></path>
                        <path d="M388.19398,260.165263 L320.197608,260.165263 C315.126418,260.165263 311.013997,264.277684 311.013997,269.348873 C311.013997,274.420063 315.126418,278.532484 320.197608,278.532484 L388.19398,278.532484 C393.265169,278.532484 397.37759,274.420063 397.37759,269.348873 C397.37759,264.277684 393.266088,260.165263 388.19398,260.165263 L388.19398,260.165263 Z" id="Shape"></path>
                        <path d="M291.184745,260.165263 L230.437915,260.165263 C225.365807,260.165263 221.254304,264.277684 221.254304,269.348873 C221.254304,274.420063 225.365807,278.532484 230.437915,278.532484 L291.184745,278.532484 C296.255934,278.532484 300.368355,274.420063 300.368355,269.348873 C300.368355,264.277684 296.256853,260.165263 291.184745,260.165263 L291.184745,260.165263 Z" id="Shape"></path>
                        <path d="M191.455324,260.165263 L156.096586,260.165263 C151.025396,260.165263 146.912976,264.277684 146.912976,269.348873 C146.912976,274.420063 151.025396,278.532484 156.096586,278.532484 L191.455324,278.532484 C196.526514,278.532484 200.638935,274.420063 200.638935,269.348873 C200.638935,264.277684 196.526514,260.165263 191.455324,260.165263 L191.455324,260.165263 Z" id="Shape"></path>
                    </g>
                </g>
            </g>
        </g>
    </g>
</svg>