<?xml version="1.0" encoding="UTF-8" standalone="no"?>
<svg width="1003px" height="1002px" viewBox="0 0 1003 1002" version="1.1" xmlns="http://www.w3.org/2000/svg" xmlns:xlink="http://www.w3.org/1999/xlink" xmlns:sketch="http://www.bohemiancoding.com/sketch/ns">
    <!-- Generator: Sketch 3.4.1 (15681) - http://www.bohemiancoding.com/sketch -->
    <title>workers3</title>
    <desc>Created with Sketch.</desc>
    <defs></defs>
    <g id="Exportable" stroke="none" stroke-width="1" fill="none" fill-rule="evenodd" sketch:type="MSPage">
        <g id="Team" sketch:type="MSLayerGroup" transform="translate(0.000000, -119.000000)">
            <g id="workers3" transform="translate(0.000000, 119.000000)" sketch:type="MSShapeGroup">
                <rect id="Rectangle-1" stroke="#979797" fill="#5E9FEA" x="0" y="0" width="1003" height="1000"></rect>
                <path d="M2.00799351,4 C0.899009316,4 0,4.88939268 0,6.00799351 L0,1000.20547 C0,1001.31445 0.636304917,1001.57715 1.40895761,1000.8045 L996.804502,5.40895761 C997.582648,4.63081181 997.324067,4 996.205466,4 L2.00799351,4 Z" id="Rectangle-12-Copy" fill="#6EAAEF"></path>
                <g id="Capa_1" transform="translate(277.000000, 394.000000)" fill="#FFFFFF">
                    <g id="Group">
                        <path d="M321.667556,192.717873 L321.667556,192.717873 L321.667556,192.717873 C321.554492,191.81336 321.328363,190.909412 321.045703,190.117397 C318.897484,181.920245 314.035724,166.995775 311.830973,160.324989 C311.604845,159.137815 311.208555,158.063706 310.700331,156.990161 L310.700331,156.933064 L310.700331,156.933064 C309.343561,154.049928 307.138245,151.619614 304.424705,149.979618 L304.424705,149.979618 C304.255109,149.866554 303.916481,149.696957 303.463659,149.470829 C303.294063,149.35833 303.0685,149.301233 302.898339,149.188169 C297.527791,146.644225 281.076954,140.086503 281.076954,140.086503 L281.076954,140.086503 C272.82327,136.524982 264.343458,133.472249 255.637517,130.419517 L255.637517,130.419517 L255.637517,130.419517 L255.637517,130.419517 L255.637517,130.419517 C254.11115,136.863609 239.356277,179.772026 236.981929,185.707895 L235.11637,145.852776 C235.738223,144.89173 236.189915,143.817055 236.642737,142.800043 L242.804168,130.645645 C238.451198,134.263699 232.00654,136.524982 224.713902,136.524982 C217.647391,136.524982 211.259266,134.320231 206.963393,130.871774 L212.955794,142.800043 C213.464582,143.817621 213.860307,144.89173 214.48216,145.852776 L212.616601,185.707895 C210.29822,179.772026 195.543912,136.864174 193.961014,130.419517 L193.961014,130.419517 L193.961014,130.419517 L193.961014,130.419517 L193.961014,130.419517 C185.255073,133.528781 176.718728,136.580949 168.521576,140.086503 L168.521576,140.086503 C168.521576,140.086503 152.07074,146.644225 146.700192,149.188169 C146.530595,149.301233 146.304467,149.35833 146.134871,149.470829 C145.682614,149.696957 145.343422,149.866554 145.173825,149.979618 L145.173825,149.979618 C142.460285,151.619048 140.255534,154.049928 138.898764,156.933064 L138.898764,156.933064 C138.898764,156.933064 138.898764,156.933064 138.898764,156.990161 C138.389975,158.063706 138.050783,159.194347 137.768122,160.324989 C135.563371,166.995775 130.701612,181.920245 128.553393,190.117397 C128.270732,190.965378 128.044604,191.81336 127.93154,192.717873 L127.93154,192.717873 L127.93154,192.717873 C127.818476,193.509322 127.761944,194.301337 127.761944,195.149318 C127.761944,203.911791 134.884986,211.034833 143.647459,211.034833 L305.894539,211.034833 C314.657012,211.034833 321.780055,203.911791 321.780055,195.149318 C321.893684,194.301337 321.78062,193.509322 321.667556,192.717873 L321.667556,192.717873 Z" id="Shape"></path>
                        <path d="M266.323211,56.5886157 C266.323211,53.7620115 266.888532,43.5862365 266.888532,41.268421 C266.888532,18.5425234 248.458507,0.169596251 225.789707,0.169596251 L225.789707,0.169596251 L225.789707,0.169596251 L225.73261,0.169596251 L225.676078,0.169596251 L225.676078,0.169596251 L225.676078,0.169596251 L224.884629,0.169596251 L224.093745,0.169596251 L224.093745,0.169596251 L224.093745,0.169596251 L224.036647,0.169596251 L223.980115,0.169596251 L223.980115,0.169596251 L223.980115,0.169596251 C201.254218,0.169596251 182.88129,18.5990555 182.88129,41.268421 C182.88129,43.5862365 183.446611,53.7620115 183.446611,56.5886157 C182.429034,56.6451478 173.270836,54.4403965 174.231882,65.4641528 C176.323569,88.8684354 185.255638,84.2893367 185.481766,84.2893367 C189.891269,98.3658255 196.675119,107.354427 203.345905,113.120699 C213.747808,122.052768 223.867051,123.013814 224.036647,123.013814 L224.884629,123.013814 L224.884629,123.013814 L224.884629,123.013814 L225.73261,123.013814 C225.902771,123.013814 235.965482,122.052768 246.310288,113.233763 C253.037606,107.524023 259.877988,98.4788896 264.287491,84.3458687 C264.570151,84.3458687 273.445688,88.8684354 275.537375,65.5206849 C276.498986,54.4403965 267.340223,56.6451478 266.323211,56.5886157 L266.323211,56.5886157 Z" id="Shape"></path>
                        <path d="M114.986258,191.869892 C115.04279,191.248039 115.268918,190.06143 115.381983,189.439012 C115.551579,188.421435 115.890771,187.460389 116.173432,186.442812 C118.604311,178.302192 122.731154,164.67796 125.331629,156.82 C125.727354,155.237102 126.236143,153.654203 126.914528,152.127837 L128.667022,147.097047 C123.013814,144.835764 117.247541,142.744076 111.368205,140.652389 L111.368205,140.652389 C110.011435,146.305598 97.1786517,183.673305 95.1434967,188.874257 L93.5040663,154.107025 C94.0693871,153.259044 94.4085796,152.354531 94.8608363,151.450017 L100.231384,140.821986 C96.4437346,143.988348 90.7905263,145.966971 84.4589329,145.966971 C78.2969358,145.966971 72.7567916,144.04488 68.969142,141.048679 L74.2266258,151.450017 C74.6788824,152.355096 75.0180749,153.259044 75.5833958,154.107025 L73.9439654,188.874257 C71.9088103,183.673305 59.0194953,146.305598 57.7192574,140.652389 L57.7192574,140.652389 C50.1439582,143.365929 42.6817231,146.022937 35.5586806,149.07567 L35.5586806,149.07567 C35.5586806,149.07567 21.1995314,154.841377 16.5639005,156.990161 C16.3943042,157.046694 16.224708,157.159758 16.0551117,157.215725 C15.6593872,157.441853 15.3767267,157.555482 15.2071305,157.667981 L15.2071305,157.667981 C12.832783,159.081283 10.9106921,161.230068 9.72351838,163.716914 L9.72351838,163.716914 C9.72351838,163.716914 9.72351838,163.716914 9.72351838,163.774012 C9.27126171,164.678525 8.98860129,165.695537 8.76247296,166.713115 C6.84038212,172.536484 2.60047585,185.538864 0.734917087,192.661341 C0.508788752,193.396258 0.282660418,194.187707 0.169596251,194.922624 L0.169596251,194.922624 L0.169596251,194.922624 C0.0565320836,195.601009 0,196.335926 0,197.014311 C0,204.646143 6.2185292,210.864672 13.8503605,210.864672 L27.078868,210.864672 L83.83708,210.864672 L84.5719971,210.864672 L85.3069142,210.864672 L119.621889,210.864672 C116.625688,206.285008 114.816662,200.858493 114.816662,194.978591 C114.816662,194.074643 114.816662,192.944001 114.986258,191.869892 L114.986258,191.869892 Z" id="Shape"></path>
                        <path d="M50.1439582,100.570577 C53.9881398,112.838039 59.9240086,120.695998 65.7468132,125.670822 C74.8484787,133.472249 83.6674837,134.320231 83.7805479,134.320231 L84.515465,134.320231 L85.2503821,134.320231 C85.4199783,134.320231 94.1259192,133.472249 103.171053,125.783886 C109.050389,120.809063 114.986258,112.951103 118.886972,100.570577 C119.1131,100.570577 126.914528,104.527823 128.723554,84.1197404 C129.571536,74.5092862 121.54398,76.431377 120.695998,76.3748449 C120.695998,73.9439654 121.148255,65.0684282 121.148255,63.0332732 C121.148255,43.247044 105.093143,27.1919322 85.3069142,27.1919322 L85.3069142,27.1919322 L85.2503821,27.1919322 L85.19385,27.1919322 L85.19385,27.1919322 L85.19385,27.1919322 L84.515465,27.1919322 L83.83708,27.1919322 L83.83708,27.1919322 L83.83708,27.1919322 L83.7805479,27.1919322 L83.7240158,27.1919322 L83.7240158,27.1919322 L83.7240158,27.1919322 C63.9377866,27.1919322 47.8826748,43.247044 47.8826748,63.0332732 C47.8826748,65.0684282 48.3914636,73.9439654 48.3914636,76.3748449 C47.5434823,76.431377 39.5159264,74.5092862 40.3639077,84.1197404 C42.1164023,104.47129 49.9178298,100.570577 50.1439582,100.570577 L50.1439582,100.570577 Z" id="Shape"></path>
                        <path d="M449.487162,183.220483 C449.374098,181.920245 449.204502,180.620007 449.03434,179.376301 C449.03434,179.376301 448.299423,175.192927 448.129827,174.571074 C446.490396,167.278435 441.911298,161.907887 435.7493,157.724513 C434.618659,156.933064 433.431485,156.254114 432.187779,155.632826 C430.604881,154.784845 406.522779,146.870353 405.90036,146.700757 C406.069957,147.548738 406.126489,148.453252 406.183021,149.414297 C409.518414,151.788644 419.411528,160.268457 414.945494,176.153973 C414.945494,176.153973 407.878983,167.731257 400.642876,166.600616 C393.745962,178.584852 382.043821,193.792548 375.712228,197.805761 C369.380634,193.791983 357.678493,178.64195 350.781013,166.600616 C343.544907,167.67416 336.478396,176.153973 336.478396,176.153973 C332.012362,160.268457 341.848944,151.788644 345.240869,149.414297 C345.297401,148.453252 345.353933,147.492206 345.52353,146.700757 C345.071273,146.870353 330.88172,151.505984 323.532549,154.049928 C323.872307,154.954441 324.154967,155.915487 324.38053,156.819435 C326.981572,164.677394 331.390509,178.245094 333.538728,186.442246 C333.651792,186.781439 334.499773,190.512556 334.726467,191.869326 C334.896063,192.943436 334.896063,194.074078 334.896063,195.148753 C334.896063,201.027524 333.143003,206.455169 330.090836,211.034268 L375.76876,211.034268 L431.39633,211.034268 C436.936474,211.034268 441.628637,209.338306 445.529351,205.211463 C448.581518,201.989135 449.429499,198.087856 449.656193,193.905047 C449.712725,193.17013 449.769257,190.004333 449.769257,190.004333 C449.769257,190.004333 449.487162,183.27758 449.487162,183.220483 L449.487162,183.220483 Z" id="Shape"></path>
                        <path d="M332.069459,107.580555 C332.63478,109.672242 333.030505,111.594333 332.973972,113.459892 C332.973972,114.081745 332.91744,114.703032 332.804376,115.268353 C332.295587,117.021413 328.56447,122.957282 327.999149,123.974294 C334.556871,131.040804 343.149747,132.623703 351.686092,134.432729 C354.230036,134.941518 356.77398,135.280711 359.48752,135.619903 C360.392033,135.790065 361.240014,135.959661 362.144528,136.128692 L357.791557,148.791879 C357.791557,148.791879 357.678493,167.277305 375.542066,178.527755 L375.65513,178.527755 C393.519834,167.27787 393.406204,148.791879 393.406204,148.791879 L389.053234,136.128692 C389.957747,135.959096 390.862261,135.789499 391.710242,135.619903 C394.423782,135.280711 397.023693,134.942084 399.51167,134.432729 C408.048014,132.623703 416.697423,130.984272 423.198613,123.974294 C422.633292,122.956717 418.901609,117.07738 418.393385,115.268353 C418.280321,114.6465 418.223224,114.081179 418.223224,113.459892 C418.223224,111.593768 418.562982,109.615145 419.128303,107.580555 C419.693623,105.601932 420.315476,103.623309 420.880797,101.644686 C423.764499,95.2000288 425.403364,88.0769863 425.403364,80.5582191 C425.403364,52.5748378 403.186255,29.8489401 375.542066,29.3401514 L375.542066,29.3401514 L375.485534,29.3401514 L375.429002,29.3401514 L375.429002,29.3401514 C347.784813,29.8489401 325.567704,52.5748378 325.567704,80.5582191 C325.567704,88.0769863 327.150602,95.2000288 330.090271,101.644686 C330.938817,103.679841 331.56067,105.601932 332.069459,107.580555 L332.069459,107.580555 Z" id="Shape"></path>
                    </g>
                </g>
            </g>
        </g>
    </g>
</svg>