<?xml version="1.0" encoding="UTF-8" standalone="no"?>
<svg width="1005px" height="1002px" viewBox="0 0 1005 1002" version="1.1" xmlns="http://www.w3.org/2000/svg" xmlns:xlink="http://www.w3.org/1999/xlink" xmlns:sketch="http://www.bohemiancoding.com/sketch/ns">
    <!-- Generator: Sketch 3.4.1 (15681) - http://www.bohemiancoding.com/sketch -->
    <title>browser109</title>
    <desc>Created with Sketch.</desc>
    <defs></defs>
    <g id="Exportable" stroke="none" stroke-width="1" fill="none" fill-rule="evenodd" sketch:type="MSPage">
        <g id="Blog-Grid" sketch:type="MSLayerGroup" transform="translate(0.000000, -119.000000)">
            <g id="browser109" transform="translate(0.000000, 119.000000)" sketch:type="MSShapeGroup">
                <rect id="Rectangle-1" stroke="#979797" fill="#5E9FEA" x="0" y="0" width="1003" height="1000"></rect>
                <path d="M9.00799351,4 C7.89900932,4 7,4.88939268 7,6.00799351 L7,1000.20547 C7,1001.31445 7.63630492,1001.57715 8.40895761,1000.8045 L1003.8045,5.40895761 C1004.58265,4.63081181 1004.32407,4 1003.20547,4 L9.00799351,4 Z" id="Rectangle-12-Copy" fill="#6EAAEF"></path>
                <g id="Capa_1" transform="translate(277.000000, 314.000000)" fill="#FFFFFF">
                    <g id="Group">
                        <path d="M440.815829,0.373775088 L9.18366309,0.373775088 C4.11152597,0.373775088 0,4.48621942 0,9.55743818 L0,361.462551 C0,366.534688 4.11152597,370.646214 9.18366309,370.646214 L440.815829,370.646214 C445.887047,370.646214 449.999492,366.534688 449.999492,361.462551 L449.999492,9.55743818 C449.999492,4.48621942 445.887047,0.373775088 440.815829,0.373775088 L440.815829,0.373775088 Z M431.632165,18.7411013 L431.632165,74.0497123 L18.3673262,74.0497123 L18.3673262,18.7411013 L431.632165,18.7411013 L431.632165,18.7411013 Z M18.3673262,352.278888 L18.3673262,92.4170385 L431.632165,92.4170385 L431.632165,352.278888 L18.3673262,352.278888 L18.3673262,352.278888 Z" id="Shape"></path>
                        <path d="M143.34045,138.623721 L69.9032884,138.623721 C64.8320696,138.623721 60.7196253,142.735247 60.7196253,147.807384 L60.7196253,222.191382 C60.7196253,227.2626 64.8320696,231.375045 69.9032884,231.375045 L143.34045,231.375045 C148.412587,231.375045 152.524113,227.2626 152.524113,222.191382 L152.524113,147.807384 C152.524113,142.735247 148.412587,138.623721 143.34045,138.623721 L143.34045,138.623721 Z M134.156787,213.007719 L79.0869515,213.007719 L79.0869515,156.991047 L134.156787,156.991047 L134.156787,213.007719 L134.156787,213.007719 Z" id="Shape"></path>
                        <path d="M187.608462,231.375045 L261.04195,231.375045 C266.113169,231.375045 270.225613,227.2626 270.225613,222.191382 L270.225613,147.807384 C270.225613,142.735247 266.113169,138.623721 261.04195,138.623721 L187.608462,138.623721 C182.537243,138.623721 178.424798,142.735247 178.424798,147.807384 L178.424798,222.191382 C178.424798,227.263519 182.537243,231.375045 187.608462,231.375045 L187.608462,231.375045 Z M196.792125,156.991047 L251.858287,156.991047 L251.858287,213.007719 L196.792125,213.007719 L196.792125,156.991047 L196.792125,156.991047 Z" id="Shape"></path>
                        <path d="M305.315471,231.375045 L378.752633,231.375045 C383.82477,231.375045 387.936296,227.2626 387.936296,222.191382 L387.936296,147.807384 C387.936296,142.735247 383.82477,138.623721 378.752633,138.623721 L305.315471,138.623721 C300.243334,138.623721 296.131808,142.735247 296.131808,147.807384 L296.131808,222.191382 C296.131808,227.263519 300.244253,231.375045 305.315471,231.375045 L305.315471,231.375045 Z M314.499134,156.991047 L369.56897,156.991047 L369.56897,213.007719 L314.499134,213.007719 L314.499134,156.991047 L314.499134,156.991047 Z" id="Shape"></path>
                        <path d="M143.34045,254.67859 L69.9032884,254.67859 C64.8320696,254.67859 60.7196253,258.790116 60.7196253,263.862253 C60.7196253,268.93439 64.8320696,273.045916 69.9032884,273.045916 L143.34045,273.045916 C148.412587,273.045916 152.524113,268.93439 152.524113,263.862253 C152.524113,258.791034 148.412587,254.67859 143.34045,254.67859 L143.34045,254.67859 Z" id="Shape"></path>
                        <path d="M143.34045,288.658143 L69.9032884,288.658143 C64.8320696,288.658143 60.7196253,292.769669 60.7196253,297.841806 C60.7196253,302.913944 64.8320696,307.025469 69.9032884,307.025469 L143.34045,307.025469 C148.412587,307.025469 152.524113,302.913944 152.524113,297.841806 C152.524113,292.770588 148.412587,288.658143 143.34045,288.658143 L143.34045,288.658143 Z" id="Shape"></path>
                        <path d="M261.717868,254.67859 L188.283461,254.67859 C183.212242,254.67859 179.099798,258.790116 179.099798,263.862253 C179.099798,268.93439 183.212242,273.045916 188.283461,273.045916 L261.718786,273.045916 C266.790923,273.045916 270.902449,268.93439 270.902449,263.862253 C270.901531,258.791034 266.790005,254.67859 261.717868,254.67859 L261.717868,254.67859 Z" id="Shape"></path>
                        <path d="M261.717868,288.658143 L188.283461,288.658143 C183.212242,288.658143 179.099798,292.769669 179.099798,297.841806 C179.099798,302.913944 183.212242,307.025469 188.283461,307.025469 L261.718786,307.025469 C266.790923,307.025469 270.902449,302.913944 270.902449,297.841806 C270.901531,292.770588 266.790005,288.658143 261.717868,288.658143 L261.717868,288.658143 Z" id="Shape"></path>
                        <path d="M380.096203,254.67859 L306.659041,254.67859 C301.587823,254.67859 297.475378,258.790116 297.475378,263.862253 C297.475378,268.93439 301.587823,273.045916 306.659041,273.045916 L380.096203,273.045916 C385.167422,273.045916 389.279866,268.93439 389.279866,263.862253 C389.279866,258.791034 385.167422,254.67859 380.096203,254.67859 L380.096203,254.67859 Z" id="Shape"></path>
                        <path d="M380.096203,288.658143 L306.659041,288.658143 C301.587823,288.658143 297.475378,292.769669 297.475378,297.841806 C297.475378,302.913944 301.587823,307.025469 306.659041,307.025469 L380.096203,307.025469 C385.167422,307.025469 389.279866,302.913944 389.279866,297.841806 C389.279866,292.770588 385.167422,288.658143 380.096203,288.658143 L380.096203,288.658143 Z" id="Shape"></path>
                        <path d="M69.9032884,55.3765701 L74.4381812,55.3765701 C79.5094,55.3765701 83.6218443,51.2641258 83.6218443,46.192907 C83.6218443,41.1216882 79.5094,37.0092439 74.4381812,37.0092439 L69.9032884,37.0092439 C64.8320696,37.0092439 60.7196253,41.1216882 60.7196253,46.192907 C60.7196253,51.2641258 64.8320696,55.3765701 69.9032884,55.3765701 L69.9032884,55.3765701 Z" id="Shape"></path>
                        <path d="M107.985184,55.3765701 L112.517322,55.3765701 C117.588541,55.3765701 121.700985,51.2641258 121.700985,46.192907 C121.700985,41.1216882 117.589459,37.0092439 112.517322,37.0092439 L107.985184,37.0092439 C102.913965,37.0092439 98.801521,41.1216882 98.801521,46.192907 C98.801521,51.2641258 102.913965,55.3765701 107.985184,55.3765701 L107.985184,55.3765701 Z" id="Shape"></path>
                        <path d="M146.065243,55.3765701 L150.594626,55.3765701 C155.665845,55.3765701 159.778289,51.2641258 159.778289,46.192907 C159.778289,41.1216882 155.665845,37.0092439 150.594626,37.0092439 L146.065243,37.0092439 C140.994024,37.0092439 136.88158,41.1216882 136.88158,46.192907 C136.88158,51.2641258 140.993106,55.3765701 146.065243,55.3765701 L146.065243,55.3765701 Z" id="Shape"></path>
                    </g>
                </g>
            </g>
        </g>
    </g>
</svg>