<?xml version="1.0" encoding="UTF-8" standalone="no"?>
<svg width="1005px" height="1002px" viewBox="0 0 1005 1002" version="1.1" xmlns="http://www.w3.org/2000/svg" xmlns:xlink="http://www.w3.org/1999/xlink" xmlns:sketch="http://www.bohemiancoding.com/sketch/ns">
    <!-- Generator: Sketch 3.4.1 (15681) - http://www.bohemiancoding.com/sketch -->
    <title>trim-line</title>
    <desc>Created with Sketch.</desc>
    <defs></defs>
    <g id="Exportable" stroke="none" stroke-width="1" fill="none" fill-rule="evenodd" sketch:type="MSPage">
        <g id="Divider" sketch:type="MSLayerGroup" transform="translate(0.000000, -119.000000)">
            <g id="trim-line" transform="translate(0.000000, 119.000000)" sketch:type="MSShapeGroup">
                <rect id="Rectangle-1" stroke="#979797" fill="#5E9FEA" x="0" y="0" width="1003" height="1000"></rect>
                <path d="M9.00799351,4 C7.89900932,4 7,4.88939268 7,6.00799351 L7,1000.20547 C7,1001.31445 7.63630492,1001.57715 8.40895761,1000.8045 L1003.8045,5.40895761 C1004.58265,4.63081181 1004.32407,4 1003.20547,4 L9.00799351,4 Z" id="Rectangle-12-Copy" fill="#6EAAEF"></path>
                <g id="Capa_1" transform="translate(380.000000, 315.000000)" fill="#FFFFFF">
                    <g id="Group">
                        <path d="M54.4997608,242.79878 C57.2844976,245.583517 61.4722249,246.416459 65.1111483,244.909904 C68.7491866,243.402464 71.1214354,239.852057 71.1214354,235.914833 L71.1214354,134.086053 C71.1214354,130.147943 68.7491866,126.597536 65.1111483,125.090096 C63.9064354,124.591746 62.6415311,124.349211 61.3863636,124.349211 C58.8530144,124.349211 56.3621531,125.337943 54.4997608,127.20122 L3.5858134,178.115167 C1.75971292,179.941268 0.73291866,182.417967 0.73291866,185 C0.73291866,187.582033 1.75971292,190.059617 3.5858134,191.883947 L54.4997608,242.79878 L54.4997608,242.79878 Z" id="Shape"></path>
                        <path d="M177.426507,244.909904 C181.06189,246.414689 185.251388,245.587057 188.036124,242.79878 L238.951842,191.883947 C240.777057,190.057847 241.802967,187.582033 241.802967,185 C241.802967,182.417967 240.778828,179.940383 238.951842,178.115167 L188.036124,127.20122 C186.173732,125.338828 183.682871,124.349211 181.150407,124.349211 C179.89701,124.349211 178.62945,124.590861 177.426507,125.090096 C173.787584,126.597536 171.415335,130.147943 171.415335,134.086053 L171.415335,235.913062 C171.415335,239.852057 173.787584,243.402464 177.426507,244.909904 L177.426507,244.909904 Z" id="Shape"></path>
                        <path d="M123.923445,0 L118.61244,0 C113.235048,0 108.875598,4.35944976 108.875598,9.73684211 L108.875598,40.7177033 C108.875598,46.0950957 113.235048,50.4545455 118.61244,50.4545455 L123.923445,50.4545455 C129.300837,50.4545455 133.660287,46.0950957 133.660287,40.7177033 L133.660287,9.73684211 C133.660287,4.35944976 129.301722,0 123.923445,0 L123.923445,0 Z" id="Shape"></path>
                        <path d="M123.923445,84.402488 L118.61244,84.402488 C113.235048,84.402488 108.875598,88.7619378 108.875598,94.1393301 L108.875598,158.290072 C108.875598,163.667464 113.235048,168.026914 118.61244,168.026914 L123.923445,168.026914 C129.300837,168.026914 133.660287,163.667464 133.660287,158.290072 L133.660287,94.1393301 C133.660287,88.7610526 129.301722,84.402488 123.923445,84.402488 L123.923445,84.402488 Z" id="Shape"></path>
                        <path d="M123.923445,201.973971 L118.61244,201.973971 C113.235048,201.973971 108.875598,206.334306 108.875598,211.710813 L108.875598,275.86244 C108.875598,281.239833 113.235048,285.599282 118.61244,285.599282 L123.923445,285.599282 C129.300837,285.599282 133.660287,281.239833 133.660287,275.86244 L133.660287,211.710813 C133.660287,206.334306 129.301722,201.973971 123.923445,201.973971 L123.923445,201.973971 Z" id="Shape"></path>
                        <path d="M123.923445,319.545455 L118.61244,319.545455 C113.235048,319.545455 108.875598,323.904904 108.875598,329.282297 L108.875598,360.263158 C108.875598,365.64055 113.235048,370 118.61244,370 L123.923445,370 C129.300837,370 133.660287,365.64055 133.660287,360.263158 L133.660287,329.282297 C133.660287,323.904904 129.301722,319.545455 123.923445,319.545455 L123.923445,319.545455 Z" id="Shape"></path>
                    </g>
                </g>
            </g>
        </g>
    </g>
</svg>