<?xml version="1.0" encoding="UTF-8"?>
<svg width="32px" height="32px" viewBox="0 0 32 32" version="1.1" xmlns="http://www.w3.org/2000/svg" xmlns:xlink="http://www.w3.org/1999/xlink">
    <!-- Generator: Sketch 54.1 (76490) - https://sketchapp.com -->
    <title>ico-shown</title>
    <desc>Created with Sketch.</desc>
    <g id="Welcome" stroke="none" stroke-width="1" fill="none" fill-rule="evenodd">
        <g id="Home-Real" transform="translate(-947.000000, -1218.000000)" fill="#FFFFFF">
            <g id="buscadores" transform="translate(150.000000, 744.000000)">
                <g id="shown" transform="translate(782.000000, 463.000000)">
                    <g id="ico-shown" transform="translate(15.000000, 11.000000)">
                        <path d="M28.508878,5.81853659 C27.2249756,5.81853659 26.1822439,4.77502439 26.1822439,3.49112195 C26.1822439,2.208 27.2249756,1.16370732 28.508878,1.16370732 C29.7927805,1.16370732 30.8355122,2.208 30.8355122,3.49112195 C30.8355122,4.77502439 29.7927805,5.81853659 28.508878,5.81853659 M27.3451707,23.8548293 C27.3451707,24.4963902 26.8230244,25.0185366 26.1822439,25.0185366 C25.5399024,25.0185366 25.0177561,24.4963902 25.0177561,23.8548293 C25.0177561,23.2132683 25.5399024,22.691122 26.1822439,22.691122 C26.8230244,22.691122 27.3451707,23.2132683 27.3451707,23.8548293 M16.8725854,18.0370732 C14.947122,18.0370732 13.3814634,16.4714146 13.3814634,14.5459512 C13.3814634,12.6204878 14.947122,11.0548293 16.8725854,11.0548293 C18.7980488,11.0548293 20.3629268,12.6204878 20.3629268,14.5459512 C20.3629268,16.4714146 18.7980488,18.0370732 16.8725854,18.0370732 M19.1992195,28.5096585 C19.1992195,29.7927805 18.1557073,30.8362927 16.8725854,30.8362927 C15.5886829,30.8362927 14.5451707,29.7927805 14.5451707,28.5096585 C14.5451707,27.2257561 15.5886829,26.1822439 16.8725854,26.1822439 C18.1557073,26.1822439 19.1992195,27.2257561 19.1992195,28.5096585 M3.49034146,29.6733659 C2.20721951,29.6733659 1.16292683,28.6290732 1.16292683,27.3459512 C1.16292683,26.0620488 2.20721951,25.0185366 3.49034146,25.0185366 C4.7742439,25.0185366 5.8177561,26.0620488 5.8177561,27.3459512 C5.8177561,28.6290732 4.7742439,29.6733659 3.49034146,29.6733659 M6.4,5.23629268 C6.4,4.59473171 6.92136585,4.07336585 7.56370732,4.07336585 C8.20526829,4.07336585 8.72663415,4.59473171 8.72663415,5.23629268 C8.72663415,5.87863415 8.20526829,6.40078049 7.56370732,6.40078049 C6.92136585,6.40078049 6.4,5.87863415 6.4,5.23629268 M28.508878,0 C26.5834146,0 25.0177561,1.56565854 25.0177561,3.49112195 C25.0177561,4.09365854 25.1715122,4.66029268 25.44,5.15512195 L19.7213659,10.8737561 C18.9330732,10.2602927 17.9465366,9.89112195 16.8725854,9.89112195 C15.7986341,9.89112195 14.8113171,10.2602927 14.0222439,10.8737561 L9.56097561,6.41170732 C9.76546341,6.06517073 9.89112195,5.66712195 9.89112195,5.23629268 C9.89112195,3.95317073 8.84682927,2.90887805 7.56370732,2.90887805 C6.27980488,2.90887805 5.23629268,3.95317073 5.23629268,5.23629268 C5.23629268,6.52019512 6.27980488,7.56370732 7.56370732,7.56370732 C7.9937561,7.56370732 8.39180488,7.43882927 8.73756098,7.23356098 L13.2003902,11.6963902 C12.5869268,12.4854634 12.2177561,13.472 12.2177561,14.5459512 C12.2177561,15.6199024 12.5869268,16.606439 13.2003902,17.3955122 L5.83180488,24.7640976 C5.21131707,24.2005854 4.39180488,23.8548293 3.49034146,23.8548293 C1.56565854,23.8548293 0,25.4204878 0,27.3459512 C0,29.2706341 1.56565854,30.8362927 3.49034146,30.8362927 C5.41580488,30.8362927 6.98146341,29.2706341 6.98146341,27.3459512 C6.98146341,26.7434146 6.8284878,26.1767805 6.55921951,25.6819512 L14.0230244,18.2173659 C14.6669268,18.718439 15.4427317,19.0532683 16.291122,19.1594146 L16.291122,25.0708293 C14.6427317,25.3486829 13.3822439,26.782439 13.3822439,28.5096585 C13.3822439,30.435122 14.9479024,32 16.8733659,32 C18.7988293,32 20.3637073,30.435122 20.3637073,28.5096585 C20.3637073,26.7832195 19.1032195,25.3494634 17.4548293,25.0708293 L17.4548293,19.1594146 C18.3032195,19.0532683 19.0790244,18.718439 19.7229268,18.2173659 L24.1849756,22.6794146 C23.9789268,23.0259512 23.8540488,23.424 23.8540488,23.8548293 C23.8540488,25.1379512 24.8983415,26.1822439 26.1822439,26.1822439 C27.4645854,26.1822439 28.508878,25.1379512 28.508878,23.8548293 C28.508878,22.5709268 27.4645854,21.5274146 26.1822439,21.5274146 C25.7514146,21.5274146 25.3533659,21.6530732 25.0068293,21.857561 L20.5447805,17.3955122 C21.1582439,16.606439 21.5274146,15.6199024 21.5274146,14.5459512 C21.5274146,13.472 21.1582439,12.4854634 20.5447805,11.6963902 L26.1681951,6.0737561 C26.7879024,6.63570732 27.6081951,6.9822439 28.508878,6.9822439 C30.4343415,6.9822439 32,5.41658537 32,3.49112195 C32,1.56565854 30.4343415,0 28.508878,0" id="Fill-1"></path>
                    </g>
                </g>
            </g>
        </g>
    </g>
</svg>