<?xml version="1.0" encoding="UTF-8"?>
<svg width="29px" height="27px" viewBox="0 0 29 27" version="1.1" xmlns="http://www.w3.org/2000/svg" xmlns:xlink="http://www.w3.org/1999/xlink">
    <!-- Generator: Sketch 54.1 (76490) - https://sketchapp.com -->
    <title>ico-map</title>
    <desc>Created with Sketch.</desc>
    <g id="Welcome" stroke="none" stroke-width="1" fill="none" fill-rule="evenodd">
        <g id="Home-Real" transform="translate(-163.000000, -1221.000000)" fill="#FFFFFF">
            <g id="buscadores" transform="translate(150.000000, 744.000000)">
                <g id="Places" transform="translate(0.000000, 463.000000)">
                    <g id="ico-map" transform="translate(13.500000, 14.000000)">
                        <path d="M27.42428,21.6352171 L19.1452,24.8929067 L19.1452,4.0423895 L27.42428,1.25021708 L27.42428,21.6352171 Z M10.34908,2.23245846 L18.1102,4.08056191 L18.1102,25.0334929 L10.34908,23.6481136 L10.34908,2.23245846 Z M1.035,4.08521708 L9.31408,2.22407915 L9.31408,23.6676654 L1.035,25.5297343 L1.035,4.08521708 Z M28.244,0.0994584612 C28.10876,0.000768806028 27.93488,-0.0271622285 27.77756,0.027768806 L18.60332,3.12159639 L9.9498,1.06121708 C9.92864,1.05563087 9.90656,1.06307915 9.8854,1.06121708 C9.8302,1.05563087 9.775,1.0481826 9.71888,1.06028605 L0.40572,3.15511363 C0.16928,3.2081826 -6.21724894e-14,3.42045846 -6.21724894e-14,3.66625156 L-6.21724894e-14,26.1823895 C-6.21724894e-14,26.3415964 0.07176,26.4914929 0.19412,26.5901826 C0.28704,26.6655964 0.40112,26.7056309 0.51796,26.7056309 C0.55476,26.7056309 0.59248,26.7009757 0.6302,26.6944585 L9.844,24.6219757 L18.538,26.1740102 C18.56744,26.1805274 18.5978,26.1833205 18.62724,26.1833205 C18.69072,26.1833205 18.75236,26.170286 18.81032,26.1488723 C18.81216,26.1479412 18.814,26.1488723 18.81584,26.1479412 L28.129,22.4815274 C28.32772,22.4023895 28.45928,22.2087343 28.45928,21.9936654 L28.45928,0.524010185 C28.45928,0.355492944 28.37924,0.198148116 28.244,0.0994584612 L28.244,0.0994584612 Z" id="Fill-1"></path>
                    </g>
                </g>
            </g>
        </g>
    </g>
</svg>