<?xml version="1.0" encoding="UTF-8"?>
<svg width="29px" height="29px" viewBox="0 0 29 29" version="1.1" xmlns="http://www.w3.org/2000/svg" xmlns:xlink="http://www.w3.org/1999/xlink">
    <!-- Generator: Sketch 54.1 (76490) - https://sketchapp.com -->
    <title>ico-calendar</title>
    <desc>Created with Sketch.</desc>
    <defs>
        <polygon id="path-1" points="0 0 28.9667353 0 28.9667353 28.4669118 0 28.4669118"></polygon>
    </defs>
    <g id="Welcome" stroke="none" stroke-width="1" fill="none" fill-rule="evenodd">
        <g id="Home-Real" transform="translate(-553.000000, -1218.000000)">
            <g id="buscadores" transform="translate(150.000000, 744.000000)">
                <g id="Time" transform="translate(391.000000, 463.000000)">
                    <g id="ico-calendar" transform="translate(12.000000, 11.500000)">
                        <g id="Group-7">
                            <mask id="mask-2" fill="white">
                                <use xlink:href="#path-1"></use>
                            </mask>
                            <g id="Clip-2"></g>
                            <path d="M0.998794118,27.4681176 L27.9679412,27.4681176 L27.9679412,8.49017647 L0.998794118,8.49017647 L0.998794118,27.4681176 Z M21.4250294,1.99758824 C21.1930294,0.859764706 20.184,0 18.9779412,0 C18.7024412,0 18.4789706,0.223470588 18.4789706,0.498970588 C18.4789706,0.775323529 18.7024412,0.998794118 18.9779412,0.998794118 C19.8044412,0.998794118 20.4765588,1.67091176 20.4765588,2.49741176 C20.4765588,3.32305882 19.8044412,3.99517647 18.9779412,3.99517647 C18.7024412,3.99517647 18.4789706,4.21864706 18.4789706,4.495 C18.4789706,4.77135294 18.7024412,4.99397059 18.9779412,4.99397059 C20.184,4.99397059 21.1930294,4.13505882 21.4250294,2.99638235 L27.9679412,2.99638235 L27.9679412,7.49138235 L0.998794118,7.49138235 L0.998794118,2.99638235 L7.99120588,2.99638235 L9.48897059,2.99638235 C9.76447059,2.99638235 9.98879412,2.77291176 9.98879412,2.49741176 C9.98879412,2.22105882 9.76447059,1.99758824 9.48897059,1.99758824 L8.58229412,1.99758824 C8.78870588,1.41758824 9.338,0.998794118 9.98879412,0.998794118 C10.8144412,0.998794118 11.4865588,1.67091176 11.4865588,2.49741176 C11.4865588,3.32305882 10.8144412,3.99517647 9.98879412,3.99517647 C9.71329412,3.99517647 9.48897059,4.21864706 9.48897059,4.495 C9.48897059,4.77135294 9.71329412,4.99397059 9.98879412,4.99397059 C11.3654412,4.99397059 12.4853529,3.87405882 12.4853529,2.49741176 C12.4853529,1.11991176 11.3654412,0 9.98879412,0 C8.78273529,0 7.77370588,0.859764706 7.54170588,1.99758824 L0,1.99758824 L0,8.49017647 L0,28.4669118 L28.9667353,28.4669118 L28.9667353,8.49017647 L28.9667353,1.99758824 L21.4250294,1.99758824 Z" id="Fill-1" fill="#FFFFFF" mask="url(#mask-2)"></path>
                            <path d="M6.13964118,14.8364853 C6.23687647,14.9337206 6.36481765,14.9823382 6.49275882,14.9823382 C6.61984706,14.9823382 6.74778824,14.9337206 6.84587647,14.8364853 L8.98931765,12.6921912 L8.98931765,23.9723382 L7.49155294,23.9723382 C7.21605294,23.9723382 6.99258235,24.1958088 6.99258235,24.4713088 C6.99258235,24.7476618 7.21605294,24.9711324 7.49155294,24.9711324 L11.4867294,24.9711324 C11.7622294,24.9711324 11.9857,24.7476618 11.9857,24.4713088 C11.9857,24.1958088 11.7622294,23.9723382 11.4867294,23.9723382 L9.98896471,23.9723382 L9.98896471,11.4869853 C9.98896471,11.4221618 9.97531765,11.3564853 9.94972941,11.2959265 C9.89940588,11.1739559 9.80217059,11.0758676 9.67934706,11.0255441 C9.55822941,10.9752206 9.42005294,10.9752206 9.29808235,11.0255441 C9.23667059,11.0511324 9.18208235,11.0869559 9.13517059,11.1338676 L6.13964118,14.13025 C5.94431765,14.3255735 5.94431765,14.6411618 6.13964118,14.8364853" id="Fill-3" fill="#FFFFFF" mask="url(#mask-2)"></path>
                            <path d="M18.9779412,16.9805235 C17.6012941,16.9805235 16.4805294,15.8606118 16.4805294,14.4831118 C16.4805294,13.1064647 17.6012941,11.9865529 18.9779412,11.9865529 C20.3545882,11.9865529 21.4753529,13.1064647 21.4753529,14.4831118 C21.4753529,15.8606118 20.3545882,16.9805235 18.9779412,16.9805235 M18.9779412,23.9720824 C17.6012941,23.9720824 16.4805294,22.8521706 16.4805294,21.4755235 C16.4805294,21.1983176 16.2579118,20.9757 15.9815588,20.9757 C15.7060588,20.9757 15.4817353,21.1983176 15.4817353,21.4755235 C15.4817353,23.4023176 17.0502941,24.9708765 18.9779412,24.9708765 C20.9064412,24.9708765 22.4741471,23.4023176 22.4741471,21.4755235 L22.4741471,14.4831118 C22.4741471,12.5563176 20.9064412,10.9877588 18.9779412,10.9877588 C17.0502941,10.9877588 15.4817353,12.5563176 15.4817353,14.4831118 C15.4817353,16.4107588 17.0502941,17.9793176 18.9779412,17.9793176 C19.9554118,17.9793176 20.8399118,17.5741706 21.4753529,16.9259353 L21.4753529,21.4755235 C21.4753529,22.8521706 20.3545882,23.9720824 18.9779412,23.9720824" id="Fill-4" fill="#FFFFFF" mask="url(#mask-2)"></path>
                            <path d="M12.9848353,0.998708824 C13.8113353,0.998708824 14.4834529,1.67082647 14.4834529,2.49732647 C14.4834529,3.32297353 13.8113353,3.99509118 12.9848353,3.99509118 C12.7093353,3.99509118 12.4858647,4.21856176 12.4858647,4.49491471 C12.4858647,4.77126765 12.7093353,4.99473824 12.9848353,4.99473824 C14.3614824,4.99473824 15.4822471,3.87397353 15.4822471,2.49732647 C15.4822471,1.12067941 14.3614824,-8.52941176e-05 12.9848353,-8.52941176e-05 C12.7093353,-8.52941176e-05 12.4858647,0.223385294 12.4858647,0.499738235 C12.4858647,0.775238235 12.7093353,0.998708824 12.9848353,0.998708824" id="Fill-5" fill="#FFFFFF" mask="url(#mask-2)"></path>
                            <path d="M15.9818147,0.998708824 C16.8074618,0.998708824 17.4795794,1.67082647 17.4795794,2.49732647 C17.4795794,3.32297353 16.8074618,3.99509118 15.9818147,3.99509118 C15.7063147,3.99509118 15.4819912,4.21856176 15.4819912,4.49491471 C15.4819912,4.77126765 15.7063147,4.99473824 15.9818147,4.99473824 C17.3584618,4.99473824 18.4792265,3.87397353 18.4792265,2.49732647 C18.4792265,1.12067941 17.3584618,-8.52941176e-05 15.9818147,-8.52941176e-05 C15.7063147,-8.52941176e-05 15.4819912,0.223385294 15.4819912,0.499738235 C15.4819912,0.775238235 15.7063147,0.998708824 15.9818147,0.998708824" id="Fill-6" fill="#FFFFFF" mask="url(#mask-2)"></path>
                        </g>
                    </g>
                </g>
            </g>
        </g>
    </g>
</svg>