<?xml version="1.0" encoding="UTF-8"?> <svg xmlns="http://www.w3.org/2000/svg" xmlns:xlink="http://www.w3.org/1999/xlink" width="163px" height="46px" viewBox="0 0 163 46"><!-- Generator: Sketch 54.1 (76490) - https://sketchapp.com --><title>logo-echoes</title><desc>Created with Sketch.</desc><defs><polygon id="path-1" points="0.0029291685 0.109980799 14.3300541 0.109980799 14.3300541 20.0728487 0.0029291685 20.0728487"></polygon><polygon id="path-3" points="0.0691765273 0.361376852 5.11216142 0.361376852 5.11216142 6.36647173 0.0691765273 6.36647173"></polygon><polygon id="path-5" points="0.112151041 0.361376852 5.4661093 0.361376852 5.4661093 6.36647173 0.112151041 6.36647173"></polygon><polygon id="path-7" points="0.0761985066 0.361376852 5.11958465 0.361376852 5.11958465 6.36647173 0.0761985066 6.36647173"></polygon><polygon id="path-9" points="0.261819513 0.361376852 5.61537652 0.361376852 5.61537652 6.36647173 0.261819513 6.36647173"></polygon><polygon id="path-11" points="0 45.3611111 161.992247 45.3611111 161.992247 0.368459552 0 0.368459552"></polygon></defs><g id="Symbols" stroke="none" stroke-width="1" fill="none" fill-rule="evenodd"><g id="header-real" transform="translate(-151.000000, -17.000000)"><g id="logo-echoes" transform="translate(151.000000, 17.000000)"><g id="Group-58" transform="translate(0.000000, -0.319444)"><polygon id="Fill-1" fill="#7FC8DD" points="24.008277 12.4583333 35.7326178 13.4976866 37.4638325 33.5416667 25.7394917 32.5027159"></polygon><polygon id="Fill-2" fill="#ED126E" points="0.300869565 33.8636592 11.4543914 34.8194444 16.9601288 14.6918963 5.80620117 13.7361111"></polygon><polygon id="Fill-3" fill="#1D549B" points="20.8045733 0.319444444 20.8045733 19.7562275 24.6715484 20.7944927 31.6971659 22.6805556 31.6971659 3.24298054"></polygon><polygon id="Fill-4" fill="#AD2685" points="6.70827697 43.7638889 18.7695797 43.7638889 22.0860548 25.2361111 10.024752 25.2361111"></polygon><polygon id="Fill-5" fill="#000000" points="54.1230918 13.7361111 66.9379066 13.7361111 66.9379066 17.0019962 57.5863423 17.0019962 57.5863423 22.0061489 66.2972644 22.0061489 66.2972644 25.2716289 57.5863423 25.2716289 57.5863423 30.1773432 66.9379066 30.1773432 66.9379066 33.5416667 54.1230918 33.5416667"></polygon><g id="Group-57" transform="translate(0.941610, 0.319444)"><path d="M69.0828341,23.2500365 C69.0828341,17.9216975 72.095865,13.2128959 78.5516722,13.2128959 C82.4390399,13.2128959 85.5487736,15.1681985 87.1313271,18.802658 L83.8414295,20.0970413 C83.1051248,17.5361281 81.0783809,16.544948 78.5235843,16.544948 C74.3725914,16.544948 72.581786,19.5049595 72.581786,23.1123615 C72.581786,26.9807889 74.3725914,29.9408003 78.5793588,29.9408003 C81.1064689,29.9408003 82.8414996,28.9496203 83.8968028,26.3337962 L87.159415,27.6556349 C85.6045482,31.2900944 82.4807705,33.2593237 78.5793588,33.2593237 C72.1231505,33.2593237 69.0828341,28.5915062 69.0828341,23.2500365" id="Fill-6" fill="#000000"></path><polygon id="Fill-8" fill="#000000" points="90.3560607 13.5297074 93.8826993 13.5297074 93.8826993 21.6529274 102.476398 21.6529274 102.476398 13.5297074 106.003037 13.5297074 106.003037 32.9836555 102.476398 32.9836555 102.476398 24.8604355 93.8826993 24.8604355 93.8826993 32.9836555 90.3560607 32.9836555"></polygon><path d="M124.887988,23.2500365 C124.887988,19.5877236 123.347566,16.3523622 119.140799,16.3523622 C114.934031,16.3523622 113.392807,19.5877236 113.392807,23.2500365 C113.392807,26.9258781 114.934031,30.1616373 119.140799,30.1616373 C123.347566,30.1616373 124.887988,26.9258781 124.887988,23.2500365 M109.67156,23.2500365 C109.67156,17.9491529 112.657305,13.2407492 119.140799,13.2407492 C125.624694,13.2407492 128.609637,17.9491529 128.609637,23.2500365 C128.609637,28.5501242 125.624694,33.2593237 119.140799,33.2593237 C112.657305,33.2593237 109.67156,28.5501242 109.67156,23.2500365" id="Fill-10" fill="#000000"></path><polygon id="Fill-12" fill="#000000" points="132.27828 13.5297074 145.328729 13.5297074 145.328729 16.7376134 135.80532 16.7376134 135.80532 21.6529274 144.676287 21.6529274 144.676287 24.8604355 135.80532 24.8604355 135.80532 29.6790588 145.328729 29.6790588 145.328729 32.9836555 132.27828 32.9836555"></polygon><g id="Group-16" transform="translate(147.662193, 13.130848)"><mask id="mask-2" fill="white"><use xlink:href="#path-1"></use></mask><g id="Clip-15"></g><path d="M0.0029291685,14.3589404 L3.50147987,13.4787756 C3.75106108,15.9012181 5.48689436,16.9755602 7.56901153,16.9755602 C9.66597517,16.9755602 10.8035358,15.8733648 10.8035358,14.4974111 C10.8035358,10.4626596 1.3082148,11.8123517 1.3082148,5.4793039 C1.3082148,2.03743012 4.12583415,0.109980799 7.43017697,0.109980799 C9.8461391,0.109980799 12.0534481,1.15607169 13.4004644,3.52400127 L10.4708946,5.30024688 C9.79116703,3.97840819 8.62391345,3.22119596 7.30538637,3.22119596 C5.91704075,3.22119596 4.83445217,4.06117232 4.83445217,5.30024688 C4.83445217,8.96216184 14.3301744,7.72348519 14.3301744,14.1802812 C14.3301744,17.8565208 11.2625726,20.0728487 7.51403946,20.0728487 C4.04277416,20.0728487 0.627684697,18.1867815 0.0029291685,14.3589404" id="Fill-14" fill="#000000" mask="url(#mask-2)"></path></g><g id="Group-19" transform="translate(52.965787, 38.994639)"><mask id="mask-4" fill="white"><use xlink:href="#path-3"></use></mask><g id="Clip-18"></g><path d="M0.0691765273,3.35401647 C0.0691765273,1.55747773 0.989256441,0.361376852 2.74635629,0.361376852 C3.9188262,0.361376852 4.68803387,0.878254776 5.1041363,1.92036662 L4.71291174,2.07475356 C4.393512,1.15718582 3.75511377,0.752914864 2.74194247,0.752914864 C1.25007281,0.752914864 0.480865141,1.74528865 0.480865141,3.33730448 C0.480865141,4.82029449 1.13691863,5.97103426 2.69981059,5.97103426 C3.68770276,5.97103426 4.33492863,5.54169532 4.72575193,4.63725843 L5.11216142,4.79164537 C4.65031581,5.82460541 3.84740264,6.36655132 2.69981059,6.36655132 C0.985243882,6.36655132 0.0691765273,5.14180132 0.0691765273,3.35401647" id="Fill-17" fill="#000000" mask="url(#mask-4)"></path></g><g id="Group-22" transform="translate(58.984626, 38.994639)"><mask id="mask-6" fill="white"><use xlink:href="#path-5"></use></mask><g id="Clip-21"></g><path d="M5.03315412,3.36237247 C5.03315412,1.9366807 4.34419764,0.733019639 2.78531824,0.733019639 C1.2340627,0.733019639 0.548717524,1.9366807 0.548717524,3.36237247 C0.548717524,4.79164537 1.2340627,5.99570434 2.78531824,5.99570434 C4.34419764,5.99570434 5.03315412,4.79164537 5.03315412,3.36237247 M0.112151041,3.36237247 C0.112151041,1.75722578 0.973647584,0.361376852 2.78531824,0.361376852 C4.60902657,0.361376852 5.4661093,1.75722578 5.4661093,3.36237247 C5.4661093,4.96632544 4.60902657,6.36655132 2.78531824,6.36655132 C0.973647584,6.36655132 0.112151041,4.96632544 0.112151041,3.36237247" id="Fill-20" fill="#000000" mask="url(#mask-6)"></path></g><polygon id="Fill-23" fill="#000000" points="69.9660787 39.4143092 69.9660787 45.3032956 69.5038318 45.3032956 66.3977094 40.0394172 66.3977094 45.3032956 65.998861 45.3032956 65.998861 39.4143092 66.4566941 39.4143092 69.566829 44.6746065 69.566829 39.4143092"></polygon><polygon id="Fill-25" fill="#000000" points="75.8597262 39.4143092 75.8597262 45.3032956 75.3974793 45.3032956 72.291357 40.0394172 72.291357 45.3032956 71.8925085 45.3032956 71.8925085 39.4143092 72.3503416 39.4143092 75.4600753 44.6746065 75.4600753 39.4143092"></polygon><polygon id="Fill-27" fill="#000000" points="77.7862363 39.4143092 81.6443123 39.4143092 81.6443123 39.7935122 78.2023387 39.7935122 78.2023387 42.15229 81.2703418 42.15229 81.2703418 42.531493 78.2023387 42.531493 78.2023387 44.9105639 81.6443123 44.9105639 81.6443123 45.3032956 77.7862363 45.3032956"></polygon><g id="Group-31" transform="translate(82.658728, 38.994639)"><mask id="mask-8" fill="white"><use xlink:href="#path-7"></use></mask><g id="Clip-30"></g><path d="M0.0761985066,3.35401647 C0.0761985066,1.55747773 0.99627842,0.361376852 2.75297701,0.361376852 C3.92584818,0.361376852 4.69465459,0.878254776 5.11155954,1.92036662 L4.71993372,2.07475356 C4.40053398,1.15718582 3.76213575,0.752914864 2.74896445,0.752914864 C1.25709479,0.752914864 0.48788712,1.74528865 0.48788712,3.33730448 C0.48788712,4.82029449 1.14353936,5.97103426 2.70683257,5.97103426 C3.69472474,5.97103426 4.34195061,5.54169532 4.73237265,4.63725843 L5.11958465,4.79164537 C4.65693653,5.82460541 3.85482587,6.36655132 2.70683257,6.36655132 C0.992667117,6.36655132 0.0761985066,5.14180132 0.0761985066,3.35401647" id="Fill-29" fill="#000000" mask="url(#mask-8)"></path></g><polygon id="Fill-32" fill="#000000" points="90.6585676 39.7847981 88.5106444 39.7847981 88.5106444 39.414349 93.2089505 39.414349 93.2089505 39.7847981 91.069855 39.7847981 91.069855 45.3033354 90.6585676 45.3033354"></polygon><polygon id="Fill-34" fill="#000000" points="98.2220819 43.0692609 95.9529795 39.4141103 96.4521419 39.4141103 98.43234 42.6610109 100.419761 39.4141103 100.92414 39.4141103 98.6510245 43.0692609 98.6510245 45.3034945 98.2220819 45.3034945"></polygon><g id="Group-38" transform="translate(101.517758, 38.994639)"><mask id="mask-10" fill="white"><use xlink:href="#path-9"></use></mask><g id="Clip-37"></g><path d="M5.18282259,3.36237247 C5.18282259,1.9366807 4.49386611,0.733019639 2.9341842,0.733019639 C1.38332992,0.733019639 0.698385997,1.9366807 0.698385997,3.36237247 C0.698385997,4.79164537 1.38332992,5.99570434 2.9341842,5.99570434 C4.49386611,5.99570434 5.18282259,4.79164537 5.18282259,3.36237247 M0.261819513,3.36237247 C0.261819513,1.75722578 1.12371731,0.361376852 2.9341842,0.361376852 C4.75789253,0.361376852 5.61537652,1.75722578 5.61537652,3.36237247 C5.61537652,4.96632544 4.75789253,6.36655132 2.9341842,6.36655132 C1.12371731,6.36655132 0.261819513,4.96632544 0.261819513,3.36237247" id="Fill-36" fill="#000000" mask="url(#mask-10)"></path></g><path d="M108.563451,43.1191979 L108.563451,39.4143092 L108.975541,39.4143092 L108.975541,43.081397 C108.975541,44.2902308 109.504798,44.9614956 110.630722,44.9614956 C111.769887,44.9614956 112.303157,44.2778957 112.303157,43.0527478 L112.303157,39.4143092 L112.716049,39.4143092 L112.716049,43.0778158 C112.716049,44.5198217 112.014252,45.3609917 110.630722,45.3609917 C109.256821,45.3609917 108.563451,44.5281777 108.563451,43.1191979" id="Fill-39" fill="#000000"></path><path d="M116.133626,42.2524823 C117.096239,42.2441263 117.639139,41.8187664 117.639139,41.0317114 C117.639139,40.2386877 117.062534,39.7846787 116.105137,39.7846787 L114.940692,39.7846787 L114.940692,42.2524823 L116.133626,42.2524823 Z M114.52459,39.4142297 L116.100723,39.4142297 C117.256742,39.4142297 118.050025,39.9939765 118.050025,41.0273344 C118.050025,41.8398554 117.5629,42.3650893 116.760789,42.5361882 L118.403531,45.303216 L117.936871,45.303216 L116.357126,42.5815493 C116.23073,42.5903032 116.087883,42.5986592 115.941425,42.5986592 L114.940692,42.5986592 L114.940692,45.303216 L114.52459,45.303216 L114.52459,39.4142297 Z" id="Fill-41" fill="#000000"></path><polygon id="Fill-43" fill="#000000" points="121.924793 39.4143092 122.340895 39.4143092 122.340895 42.1447298 125.627182 42.1447298 125.627182 39.4143092 126.038469 39.4143092 126.038469 45.3032956 125.627182 45.3032956 125.627182 42.5275139 122.340895 42.5275139 122.340895 45.3032956 121.924793 45.3032956"></polygon><polygon id="Fill-45" fill="#000000" points="127.965581 39.4143092 131.822855 39.4143092 131.822855 39.7935122 128.380881 39.7935122 128.380881 42.15229 131.448884 42.15229 131.448884 42.531493 128.380881 42.531493 128.380881 44.9105639 131.822855 44.9105639 131.822855 45.3032956 127.965581 45.3032956"></polygon><path d="M134.893506,42.2524823 C135.855317,42.2441263 136.397413,41.8187664 136.397413,41.0317114 C136.397413,40.2386877 135.822414,39.7846787 134.864214,39.7846787 L133.700171,39.7846787 L133.700171,42.2524823 L134.893506,42.2524823 Z M133.283266,39.4142297 L134.860603,39.4142297 C136.015016,39.4142297 136.809904,39.9939765 136.809904,41.0273344 C136.809904,41.8398554 136.32278,42.3650893 135.519867,42.5361882 L137.16301,45.303216 L136.69675,45.303216 L135.115802,42.5815493 C134.990209,42.5903032 134.846559,42.5986592 134.700502,42.5986592 L133.700171,42.5986592 L133.700171,45.303216 L133.283266,45.303216 L133.283266,39.4142297 Z" id="Fill-47" fill="#000000"></path><mask id="mask-12" fill="white"><use xlink:href="#path-11"></use></mask><g id="Clip-50"></g><polygon id="Fill-49" fill="#000000" mask="url(#mask-12)" points="138.513958 45.303415 138.930061 45.303415 138.930061 39.4144286 138.513958 39.4144286"></polygon><polygon id="Fill-51" fill="#000000" mask="url(#mask-12)" points="142.33869 39.7847981 140.191168 39.7847981 140.191168 39.414349 144.889474 39.414349 144.889474 39.7847981 142.749977 39.7847981 142.749977 45.3033354 142.33869 45.3033354"></polygon><path d="M149.098529,43.4774711 L147.863864,39.9647703 L146.627996,43.4774711 L149.098529,43.4774711 Z M147.669656,39.4144684 L148.048843,39.4144684 L150.195964,45.3034548 L149.751372,45.3034548 L149.229338,43.835983 L146.49839,43.835983 L145.976757,45.3034548 L145.518122,45.3034548 L147.669656,39.4144684 Z" id="Fill-52" fill="#000000" mask="url(#mask-12)"></path><path d="M151.122825,42.3486558 C151.122825,40.5521171 152.038892,39.3560162 153.800406,39.3560162 C154.972073,39.3560162 155.737268,39.8728942 156.157383,40.915006 L155.783012,41.0693929 C155.442747,40.1434692 154.799533,39.719303 153.79519,39.719303 C152.30332,39.719303 151.534112,40.739928 151.534112,42.3319439 C151.534112,43.8149339 152.189764,44.9863647 153.754261,44.9863647 C154.804348,44.9863647 155.49812,44.4782406 155.783012,43.4989977 L155.791438,42.6610109 L154.304383,42.6610109 L154.304383,42.3200067 L156.199515,42.3200067 L156.199515,45.3034945 L155.859651,45.3034945 L155.829557,44.1694668 C155.417467,44.9330455 154.72811,45.3611907 153.754261,45.3611907 C152.038892,45.3611907 151.122825,44.1364407 151.122825,42.3486558" id="Fill-53" fill="#000000" mask="url(#mask-12)"></path><polygon id="Fill-54" fill="#000000" mask="url(#mask-12)" points="157.906579 39.4143092 161.764655 39.4143092 161.764655 39.7935122 158.322681 39.7935122 158.322681 42.15229 161.390684 42.15229 161.390684 42.531493 158.322681 42.531493 158.322681 44.9105639 161.764655 44.9105639 161.764655 45.3032956 157.906579 45.3032956"></polygon><polygon id="Fill-55" fill="#210C7A" mask="url(#mask-12)" points="23.2783428 12.1627066 31.1505835 12.8339714 31.1525898 22.8380859 24.0555756 20.9496313"></polygon><polygon id="Fill-56" fill="#771461" mask="url(#mask-12)" points="9.45575717 25.1276283 13.5425491 25.1359843 11.0274768 34.4429702 7.85755469 34.1715993"></polygon></g></g></g></g></g></svg> 