<?xml version="1.0" encoding="UTF-8" standalone="no"?>
<svg width="1005px" height="1002px" viewBox="0 0 1005 1002" version="1.1" xmlns="http://www.w3.org/2000/svg" xmlns:xlink="http://www.w3.org/1999/xlink" xmlns:sketch="http://www.bohemiancoding.com/sketch/ns">
    <!-- Generator: Sketch 3.4.1 (15681) - http://www.bohemiancoding.com/sketch -->
    <title>Group Copy + Group</title>
    <desc>Created with Sketch.</desc>
    <defs></defs>
    <g id="Exportable" stroke="none" stroke-width="1" fill="none" fill-rule="evenodd" sketch:type="MSPage">
        <g id="FAQ" sketch:type="MSLayerGroup" transform="translate(0.000000, -119.000000)">
            <g id="Group-Copy-+-Group" transform="translate(0.000000, 119.000000)" sketch:type="MSShapeGroup">
                <rect id="Rectangle-1" stroke="#979797" fill="#5E9FEA" x="0" y="0" width="1000" height="1000"></rect>
                <path d="M9.00799351,4 C7.89900932,4 7,4.88939268 7,6.00799351 L7,1000.20547 C7,1001.31445 7.63630492,1001.57715 8.40895761,1000.8045 L1003.8045,5.40895761 C1004.58265,4.63081181 1004.32407,4 1003.20547,4 L9.00799351,4 Z" id="Rectangle-12-Copy" fill="#6EAAEF"></path>
                <g id="talk25" transform="translate(275.000000, 289.000000)" fill="#FFFFFF">
                    <g id="Capa_1">
                        <g id="Group">
                            <path d="M185.267258,363.722278 C185.224276,363.709997 185.181293,363.698594 185.138311,363.68719 L158.989353,356.896005 C156.7727,356.244254 155.021834,355.096016 154.643766,354.496897 L154.626222,340.273302 C154.648152,340.246986 154.670959,340.223302 154.692888,340.197864 C163.658622,329.482142 168.59631,315.597141 168.59631,301.101618 L168.59631,290.508702 C177.54099,261.369411 171.237521,236.105535 168.002454,228.75295 C167.991928,228.728388 167.977893,228.705581 167.966489,228.68102 C167.904209,228.544179 167.835788,228.411724 167.765613,228.280146 C167.724385,228.202953 167.684912,228.124006 167.64193,228.048568 C167.574386,227.932779 167.500703,227.822254 167.427019,227.710851 C167.370002,227.624887 167.315616,227.537168 167.25509,227.454712 C167.191055,227.366993 167.121758,227.283661 167.053337,227.198573 C166.975267,227.101206 166.898952,227.002083 166.816496,226.909979 C166.759479,226.845944 166.697199,226.786295 166.63755,226.724015 C166.538428,226.621384 166.440183,226.517876 166.335798,226.421385 C166.279658,226.369631 166.220009,226.32314 166.162992,226.274018 C166.049835,226.17665 165.937555,226.078405 165.819134,225.988932 C165.754222,225.939809 165.685802,225.89595 165.619136,225.848582 C165.503347,225.767881 165.389312,225.685425 165.269138,225.610864 C165.184928,225.558233 165.096332,225.513496 165.010367,225.464374 C164.904228,225.404725 164.798965,225.343322 164.689317,225.288936 C164.581423,225.235428 164.470897,225.190691 164.360371,225.142446 C164.266512,225.102095 164.173531,225.058236 164.077917,225.022271 C163.956865,224.97578 163.833182,224.938061 163.709498,224.898588 C163.618271,224.869641 163.528798,224.837185 163.436693,224.811746 C163.317396,224.778413 163.194589,224.753852 163.07266,224.727536 C162.970907,224.705607 162.87003,224.680168 162.767399,224.662624 C162.660382,224.644203 162.551611,224.633677 162.443717,224.619642 C162.320911,224.603853 162.198104,224.588063 162.073544,224.579292 C161.984071,224.573151 161.892843,224.573151 161.802493,224.569643 C161.65688,224.565257 161.512144,224.560871 161.365653,224.565257 C161.287584,224.567888 161.209514,224.574906 161.130567,224.580169 C160.973551,224.590695 160.817411,224.602098 160.660395,224.623151 C160.634956,224.625783 160.610395,224.625783 160.585834,224.629291 C153.823596,225.597706 145.573647,223.621403 136.840369,221.530188 C121.393097,217.831088 103.968645,213.668834 88.7047062,224.674028 C73.9451497,225.942441 63.479426,238.345872 63.479426,255.110679 C63.479426,267.30183 69.136408,289.076255 70.4328911,293.907804 L70.4328911,299.768293 C70.4328911,314.8989 75.6688231,328.884777 84.0626301,339.317168 L84.0433319,354.510932 C83.6661413,355.110928 81.9143979,356.258289 79.6977452,356.910917 L53.5496638,363.702102 C53.5066816,363.713506 53.4636994,363.724909 53.4207172,363.73719 C36.7787164,368.400318 28.0699992,384.71776 28.0699992,398.425568 L28.0699992,406.004468 C28.0699992,414.300907 35.3304799,421.049988 44.2558625,421.049988 L119.181708,421.042093 C119.236093,421.04297 119.289602,421.049988 119.344865,421.049988 C119.400127,421.049988 119.453636,421.04297 119.508899,421.042093 L194.435621,421.033321 C203.360127,421.033321 210.620607,414.284241 210.620607,405.988679 L210.620607,398.409779 C210.618853,384.70197 201.911013,368.384529 185.267258,363.722278 L185.267258,363.722278 Z M119.373812,377.796751 L95.0379997,363.195088 C96.8932513,360.847734 98.0792087,357.995998 98.0792087,354.615317 L98.0827175,351.600424 C104.573905,355.426716 111.827368,357.600386 119.42118,357.600386 C126.875519,357.600386 134.069334,355.670574 140.605257,352.017965 L140.608766,354.590756 C140.608766,358.070559 141.863144,360.988084 143.810501,363.374034 L119.373812,377.796751 L119.373812,377.796751 Z M84.4696451,297.372694 C84.4696451,290.397299 87.4213809,280.197363 89.6275074,273.744772 C121.422922,274.474592 145.413999,282.110509 154.562187,285.496453 L154.562187,289.391165 L154.562187,289.4552 L154.562187,301.099864 C154.562187,313.471716 149.908708,324.806732 142.650859,332.649666 C142.634192,332.666332 142.61928,332.682999 142.603491,332.699665 C136.364056,339.418921 128.209721,343.564509 119.422057,343.564509 C100.801999,343.564509 84.4696451,323.098848 84.4696451,299.768293 L84.4696451,297.372694 L84.4696451,297.372694 Z M91.2204799,238.594993 C91.2696024,238.594993 91.3169705,238.588853 91.366093,238.587976 C91.5467936,238.584467 91.726617,238.578327 91.9064405,238.560783 C91.9950364,238.552011 92.0810008,238.536222 92.1687195,238.523941 C92.3081923,238.50552 92.4485423,238.487099 92.5871379,238.459906 C92.6897689,238.439731 92.7888911,238.411661 92.8897676,238.3871 C93.0108195,238.357275 93.1327485,238.330082 93.2529232,238.294118 C93.3608173,238.261662 93.4643254,238.221311 93.5695879,238.184469 C93.6792363,238.145873 93.789762,238.109031 93.897656,238.064295 C94.0090588,238.018681 94.1169529,237.964295 94.224847,237.913418 C94.323092,237.866927 94.421337,237.823068 94.5178276,237.772191 C94.6380023,237.708157 94.7529138,237.636227 94.8678254,237.565175 C94.9476494,237.516052 95.0301051,237.471316 95.1081747,237.418685 C95.2494019,237.324826 95.3844888,237.22044 95.5186985,237.116932 C95.5651894,237.080968 95.6134347,237.050266 95.6590485,237.013424 C105.984422,228.576635 119.384338,231.78451 133.571091,235.180979 C141.207885,237.009038 149.049064,238.882711 156.663051,238.910781 C158.492864,245.671264 160.291976,257.651014 158.359532,271.920222 C146.940305,267.758845 120.140474,259.647492 84.7424504,259.647492 C84.7249066,259.647492 84.7091172,259.650124 84.6915735,259.650124 C84.5284166,259.651001 84.3670141,259.662405 84.2056116,259.674685 C84.1301735,259.680826 84.0538582,259.68258 83.9792973,259.691352 C83.8459648,259.706264 83.7143866,259.729071 83.5828085,259.751878 C83.481932,259.769422 83.379301,259.782579 83.2793016,259.803632 C83.1880742,259.82293 83.0994782,259.850123 83.0091279,259.873807 C82.874041,259.908017 82.738077,259.940473 82.6064989,259.982578 C82.555622,259.999245 82.5073767,260.01942 82.457377,260.037841 C82.2924657,260.094858 82.1284317,260.152752 81.9687836,260.221173 C81.9354504,260.235208 81.9047489,260.253629 81.8714158,260.267664 C81.7003642,260.344857 81.531067,260.424681 81.367033,260.515031 C81.3056298,260.548364 81.2486126,260.587837 81.1880867,260.623802 C81.0573858,260.700995 80.9258077,260.776433 80.8003698,260.86152 C80.6828267,260.941344 80.5714239,261.02994 80.4582667,261.117659 C80.3959864,261.165904 80.3301974,261.209763 80.2696714,261.259763 C80.1293214,261.375552 79.9959889,261.50099 79.8644108,261.627305 C79.8354636,261.656252 79.8030077,261.68169 79.7740605,261.710637 C79.6538858,261.830812 79.5407286,261.960636 79.4284486,262.09046 C79.3916068,262.132565 79.3521333,262.172038 79.3170458,262.215897 C79.2302043,262.322037 79.1503802,262.435194 79.0688018,262.547474 C79.013539,262.622912 78.9556446,262.696596 78.9038905,262.774666 C78.8468733,262.859753 78.7968737,262.950981 78.7433652,263.038699 C78.6740674,263.152734 78.6038924,263.265014 78.5416121,263.383434 C78.5056474,263.450977 78.4749458,263.522907 78.4416127,263.591327 C78.3951218,263.686064 78.3468765,263.779045 78.3047715,263.876413 C77.8196868,260.567662 77.5153028,257.525576 77.5153028,255.11331 C77.5161799,247.492306 81.1047539,238.594993 91.2204799,238.594993 L91.2204799,238.594993 Z M44.2549853,407.014988 C42.8216609,407.014988 42.1049988,406.198327 42.1049988,406.005345 L42.1049988,398.426446 C42.1049988,390.024744 47.2725102,380.071298 57.148764,377.270438 L80.9249305,371.095915 L112.326488,389.937025 L112.326488,407.008848 L44.2549853,407.014988 L44.2549853,407.014988 Z M196.583853,405.988679 C196.583853,406.18166 195.867191,406.998322 194.43299,406.998322 L126.361487,407.006216 L126.361487,389.969481 L158.184972,371.187143 L181.540088,377.252894 C191.416342,380.053754 196.582976,390.0072 196.582976,398.408902 L196.582976,405.988679 L196.583853,405.988679 Z" id="Shape"></path>
                            <path d="M395.792252,363.722278 C395.749269,363.709997 395.706287,363.698594 395.663305,363.68719 L369.514346,356.896005 C367.297694,356.244254 365.546828,355.096016 365.16876,354.496897 L365.151216,340.273302 C365.173146,340.246986 365.195953,340.223302 365.217882,340.197864 C374.183615,329.482142 379.121304,315.597141 379.121304,301.101618 L379.121304,290.508702 C388.065984,261.369411 381.762515,236.105535 378.527448,228.75295 C378.516922,228.728388 378.502887,228.706459 378.49236,228.682775 C378.429203,228.544179 378.359905,228.409092 378.287976,228.27576 C378.247625,228.201199 378.209906,228.124883 378.167801,228.052077 C378.098503,227.933657 378.023942,227.819622 377.948504,227.705588 C377.893241,227.622255 377.839733,227.538045 377.781838,227.457344 C377.716049,227.366993 377.644997,227.281029 377.574822,227.194187 C377.498507,227.099451 377.423946,227.002961 377.343245,226.91261 C377.283596,226.845944 377.220438,226.784541 377.159035,226.720506 C377.061668,226.61963 376.965177,226.517876 376.862546,226.42314 C376.805529,226.369631 376.744126,226.322263 376.685354,226.271386 C376.573951,226.175773 376.462548,226.079282 376.345005,225.990686 C376.279216,225.940687 376.209918,225.896827 376.142375,225.848582 C376.027463,225.767881 375.913429,225.686302 375.794132,225.612618 C375.709922,225.559987 375.621326,225.515251 375.534484,225.466128 C375.428344,225.406479 375.323082,225.345076 375.213433,225.290691 C375.106417,225.237182 374.996768,225.192446 374.88712,225.145078 C374.792384,225.10385 374.698524,225.05999 374.602034,225.023148 C374.482736,224.977535 374.359053,224.939816 374.237124,224.901219 C374.145019,224.871395 374.054669,224.838939 373.96081,224.813501 C373.842389,224.781045 373.72046,224.756483 373.599409,224.730168 C373.496778,224.707361 373.395024,224.6828 373.290639,224.664379 C373.184499,224.645958 373.076605,224.635432 372.968711,224.622274 C372.845027,224.606484 372.722221,224.589818 372.596783,224.581046 C372.50731,224.574906 372.41696,224.574906 372.32661,224.571397 C372.180996,224.567011 372.03626,224.562625 371.88977,224.567011 C371.8117,224.569643 371.732754,224.57666 371.654684,224.581923 C371.498545,224.592449 371.341528,224.603853 371.185389,224.624905 C371.15995,224.628414 371.135389,224.628414 371.110828,224.631923 C364.349467,225.600338 356.098641,223.624034 347.365363,221.53282 C331.918091,217.83372 314.493639,213.671465 299.2297,224.676659 C284.470144,225.945073 274.00442,238.348503 274.00442,255.11331 C274.00442,267.304462 279.661402,289.078887 280.957885,293.910435 L280.957885,299.770925 C280.957885,314.901531 286.193817,328.887409 294.587624,339.319799 L294.568326,354.513563 C294.191135,355.11356 292.439392,356.260921 290.222739,356.913548 L264.074658,363.704734 C264.031675,363.716137 263.988693,363.727541 263.945711,363.739821 C247.30371,368.400318 238.594993,384.71776 238.594993,398.425568 L238.594993,406.004468 C238.594993,414.30003 245.855474,421.049111 254.780856,421.049111 L329.706702,421.041216 C329.761087,421.042093 329.814596,421.049111 329.869859,421.049111 C329.925121,421.049111 329.97863,421.042093 330.033893,421.041216 L404.960615,421.032444 C413.885121,421.032444 421.145601,414.283364 421.145601,405.987802 L421.145601,398.408902 C421.143847,384.70197 412.436007,368.384529 395.792252,363.722278 L395.792252,363.722278 Z M329.898806,377.796751 L305.562994,363.195088 C307.418245,360.847734 308.604203,357.995998 308.604203,354.615317 L308.607711,351.600424 C315.098899,355.426716 322.352362,357.600386 329.946174,357.600386 C337.400513,357.600386 344.594328,355.670574 351.130251,352.017965 L351.13376,354.590756 C351.13376,358.070559 352.388138,360.988084 354.335494,363.374034 L329.898806,377.796751 L329.898806,377.796751 Z M294.994639,297.372694 C294.994639,290.397299 297.946375,280.197363 300.152501,273.744772 C331.947916,274.474592 355.938993,282.110509 365.087181,285.496453 L365.087181,289.391165 L365.087181,289.4552 L365.087181,301.099864 C365.087181,313.471716 360.433702,324.806732 353.175853,332.649666 C353.159186,332.666332 353.144274,332.682999 353.128484,332.699665 C346.88905,339.418921 338.734715,343.564509 329.947051,343.564509 C311.326993,343.564509 294.994639,323.098848 294.994639,299.768293 L294.994639,297.372694 L294.994639,297.372694 Z M301.745474,238.594993 C301.793719,238.594993 301.841087,238.588853 301.889332,238.587976 C302.070033,238.584467 302.250734,238.578327 302.430557,238.560783 C302.518276,238.552011 302.60424,238.536222 302.691082,238.523941 C302.831432,238.50552 302.972659,238.487099 303.112132,238.459906 C303.213886,238.439731 303.312131,238.412538 303.411253,238.387977 C303.534059,238.358152 303.656865,238.330082 303.777917,238.294118 C303.884057,238.261662 303.987565,238.222188 304.091073,238.185347 C304.202476,238.145873 304.313879,238.109031 304.423527,238.063417 C304.534053,238.017804 304.639315,237.964295 304.747209,237.913418 C304.846331,237.86605 304.946331,237.822191 305.044576,237.770437 C305.162996,237.707279 305.276153,237.636227 305.390188,237.566052 C305.471766,237.516052 305.555099,237.470439 305.634923,237.417807 C305.77615,237.323948 305.909483,237.22044 306.043692,237.116932 C306.090183,237.08009 306.139306,237.049389 306.185797,237.012547 C316.511171,228.575758 329.911086,231.783632 344.097839,235.180102 C351.734634,237.008161 359.575812,238.881833 367.1898,238.909903 C369.019613,245.670387 370.818724,257.650137 368.88628,271.919345 C357.464422,267.758845 330.66459,259.647492 295.267444,259.647492 C295.249901,259.647492 295.234111,259.650124 295.216567,259.650124 C295.053411,259.651001 294.892008,259.662405 294.730606,259.674685 C294.655167,259.680826 294.578852,259.68258 294.504291,259.691352 C294.370959,259.706264 294.239381,259.729071 294.107802,259.751878 C294.006926,259.769422 293.904295,259.782579 293.804296,259.803632 C293.713068,259.82293 293.624472,259.850123 293.534122,259.873807 C293.399035,259.908017 293.263071,259.940473 293.131493,259.982578 C293.080616,259.999245 293.032371,260.01942 292.982371,260.037841 C292.81746,260.094858 292.652548,260.152752 292.493777,260.221173 C292.460444,260.235208 292.428866,260.253629 292.39641,260.267664 C292.225358,260.344857 292.056061,260.424681 291.892027,260.515031 C291.830624,260.548364 291.773607,260.587837 291.713081,260.623802 C291.58238,260.700995 291.450802,260.776433 291.325364,260.86152 C291.207821,260.941344 291.096418,261.02994 290.983261,261.117659 C290.92098,261.165904 290.855191,261.209763 290.794665,261.259763 C290.654315,261.375552 290.520983,261.50099 290.389405,261.627305 C290.360458,261.656252 290.328002,261.68169 290.299054,261.710637 C290.17888,261.830812 290.065723,261.960636 289.95432,262.09046 C289.917478,262.132565 289.878004,262.172038 289.842917,262.215897 C289.756075,262.322037 289.676251,262.435194 289.594673,262.547474 C289.53941,262.622912 289.481516,262.696596 289.429762,262.774666 C289.372744,262.859753 289.322745,262.950981 289.269236,263.038699 C289.199938,263.152734 289.129763,263.265014 289.067483,263.383434 C289.031518,263.450977 289.000817,263.522907 288.967484,263.591327 C288.920993,263.686064 288.872748,263.779045 288.830643,263.876413 C288.345558,260.567662 288.041174,257.525576 288.041174,255.11331 C288.041174,247.492306 291.629748,238.594993 301.745474,238.594993 L301.745474,238.594993 Z M254.779979,407.014988 C253.346655,407.014988 252.629993,406.198327 252.629993,406.005345 L252.629993,398.426446 C252.629993,390.024744 257.797504,380.071298 267.673758,377.270438 L291.449924,371.095915 L322.851482,389.937025 L322.851482,407.008848 L254.779979,407.014988 L254.779979,407.014988 Z M407.108847,405.988679 C407.108847,406.18166 406.392185,406.998322 404.957984,406.998322 L336.886481,407.006216 L336.886481,389.969481 L368.709966,371.187143 L392.065959,377.252894 C401.942213,380.053754 407.108847,390.0072 407.108847,398.408902 L407.108847,405.988679 L407.108847,405.988679 Z" id="Shape"></path>
                            <path d="M414.032488,28.0699992 L273.682492,28.0699992 C269.807078,28.0699992 266.664992,31.2120847 266.664992,35.087499 C266.664992,38.9629132 269.807078,42.1049988 273.682492,42.1049988 L414.032488,42.1049988 C425.641187,42.1049988 435.084987,51.5496763 435.084987,63.1574982 L435.084987,161.402495 C435.084987,173.010317 425.641187,182.454995 414.032488,182.454995 L266.664992,182.454995 C262.789578,182.454995 259.647492,185.59708 259.647492,189.472495 L259.647492,207.618872 L236.539743,184.511122 C233.799409,181.769911 229.356455,181.769911 226.616121,184.511122 C223.87491,187.251456 223.87491,191.69441 226.616121,194.434744 L261.70362,229.522243 C263.045717,230.865217 264.840442,231.577493 266.667624,231.577493 C267.571127,231.577493 268.483402,231.402933 269.351818,231.043286 C271.973731,229.957328 273.683369,227.397695 273.683369,224.559993 L273.683369,196.489994 L414.033365,196.489994 C433.380612,196.489994 449.120864,180.749742 449.120864,161.402495 L449.120864,63.1574982 C449.119987,43.8102512 433.379735,28.0699992 414.032488,28.0699992 L414.032488,28.0699992 Z" id="Shape"></path>
                            <path d="M252.629993,133.332496 L252.629993,35.087499 C252.629993,15.740252 236.889741,0 217.542494,0 L35.087499,0 C15.740252,0 0,15.740252 0,35.087499 L0,133.332496 C0,152.679743 15.740252,168.419995 35.087499,168.419995 L133.332496,168.419995 L133.332496,196.489994 C133.332496,199.327696 135.042135,201.887329 137.664048,202.973287 C138.532463,203.332934 139.443861,203.507494 140.348242,203.507494 C142.174546,203.507494 143.969271,202.794341 145.312245,201.452244 L178.343617,168.419995 L217.542494,168.419995 C236.889741,168.419995 252.629993,152.679743 252.629993,133.332496 L252.629993,133.332496 Z M238.594993,133.332496 C238.594993,144.940318 229.150316,154.384996 217.542494,154.384996 L175.437495,154.384996 C173.576103,154.384996 171.791027,155.124465 170.475245,156.440246 L147.367496,179.548873 L147.367496,161.402495 C147.367496,157.527081 144.22541,154.384996 140.349996,154.384996 L35.087499,154.384996 C23.4796771,154.384996 14.0349996,144.940318 14.0349996,133.332496 L14.0349996,35.087499 C14.0349996,23.4796771 23.4796771,14.0349996 35.087499,14.0349996 L217.542494,14.0349996 C229.150316,14.0349996 238.594993,23.4796771 238.594993,35.087499 L238.594993,133.332496 L238.594993,133.332496 Z" id="Shape"></path>
                            <path d="M42.1049988,49.1224986 L63.1574982,49.1224986 C67.0329124,49.1224986 70.174998,45.980413 70.174998,42.1049988 C70.174998,38.2295845 67.0329124,35.087499 63.1574982,35.087499 L42.1049988,35.087499 C38.2295845,35.087499 35.087499,38.2295845 35.087499,42.1049988 C35.087499,45.980413 38.2295845,49.1224986 42.1049988,49.1224986 L42.1049988,49.1224986 Z" id="Shape"></path>
                            <path d="M210.524994,35.087499 L91.2274974,35.087499 C87.3520831,35.087499 84.2099976,38.2295845 84.2099976,42.1049988 C84.2099976,45.980413 87.3520831,49.1224986 91.2274974,49.1224986 L210.524994,49.1224986 C214.400408,49.1224986 217.542494,45.980413 217.542494,42.1049988 C217.542494,38.2295845 214.400408,35.087499 210.524994,35.087499 L210.524994,35.087499 Z" id="Shape"></path>
                            <path d="M210.524994,63.1574982 L42.1049988,63.1574982 C38.2295845,63.1574982 35.087499,66.2995837 35.087499,70.174998 C35.087499,74.0504122 38.2295845,77.1924978 42.1049988,77.1924978 L210.524994,77.1924978 C214.400408,77.1924978 217.542494,74.0504122 217.542494,70.174998 C217.542494,66.2995837 214.400408,63.1574982 210.524994,63.1574982 L210.524994,63.1574982 Z" id="Shape"></path>
                            <path d="M210.524994,91.2274974 L189.472495,91.2274974 C185.59708,91.2274974 182.454995,94.3695829 182.454995,98.2449972 C182.454995,102.120411 185.59708,105.262497 189.472495,105.262497 L210.524994,105.262497 C214.400408,105.262497 217.542494,102.120411 217.542494,98.2449972 C217.542494,94.3695829 214.400408,91.2274974 210.524994,91.2274974 L210.524994,91.2274974 Z" id="Shape"></path>
                            <path d="M42.1049988,105.262497 L161.402495,105.262497 C165.27791,105.262497 168.419995,102.120411 168.419995,98.2449972 C168.419995,94.3695829 165.27791,91.2274974 161.402495,91.2274974 L42.1049988,91.2274974 C38.2295845,91.2274974 35.087499,94.3695829 35.087499,98.2449972 C35.087499,102.120411 38.2295845,105.262497 42.1049988,105.262497 L42.1049988,105.262497 Z" id="Shape"></path>
                            <path d="M210.524994,119.297497 L42.1049988,119.297497 C38.2295845,119.297497 35.087499,122.439582 35.087499,126.314996 C35.087499,130.190411 38.2295845,133.332496 42.1049988,133.332496 L210.524994,133.332496 C214.400408,133.332496 217.542494,130.190411 217.542494,126.314996 C217.542494,122.439582 214.400408,119.297497 210.524994,119.297497 L210.524994,119.297497 Z" id="Shape"></path>
                            <path d="M273.682492,77.1924978 L294.734991,77.1924978 C298.610406,77.1924978 301.752491,74.0504122 301.752491,70.174998 C301.752491,66.2995837 298.610406,63.1574982 294.734991,63.1574982 L273.682492,63.1574982 C269.807078,63.1574982 266.664992,66.2995837 266.664992,70.174998 C266.664992,74.0504122 269.807078,77.1924978 273.682492,77.1924978 L273.682492,77.1924978 Z" id="Shape"></path>
                            <path d="M407.014988,77.1924978 C410.890402,77.1924978 414.032488,74.0504122 414.032488,70.174998 C414.032488,66.2995837 410.890402,63.1574982 407.014988,63.1574982 L322.804991,63.1574982 C318.929576,63.1574982 315.787491,66.2995837 315.787491,70.174998 C315.787491,74.0504122 318.929576,77.1924978 322.804991,77.1924978 L407.014988,77.1924978 L407.014988,77.1924978 Z" id="Shape"></path>
                            <path d="M273.682492,105.262497 L407.014988,105.262497 C410.890402,105.262497 414.032488,102.120411 414.032488,98.2449972 C414.032488,94.3695829 410.890402,91.2274974 407.014988,91.2274974 L273.682492,91.2274974 C269.807078,91.2274974 266.664992,94.3695829 266.664992,98.2449972 C266.664992,102.120411 269.807078,105.262497 273.682492,105.262497 L273.682492,105.262497 Z" id="Shape"></path>
                            <path d="M407.014988,119.297497 L385.962489,119.297497 C382.087075,119.297497 378.944989,122.439582 378.944989,126.314996 C378.944989,130.190411 382.087075,133.332496 385.962489,133.332496 L407.014988,133.332496 C410.890402,133.332496 414.032488,130.190411 414.032488,126.314996 C414.032488,122.439582 410.890402,119.297497 407.014988,119.297497 L407.014988,119.297497 Z" id="Shape"></path>
                            <path d="M273.682492,133.332496 L357.89249,133.332496 C361.767904,133.332496 364.909989,130.190411 364.909989,126.314996 C364.909989,122.439582 361.767904,119.297497 357.89249,119.297497 L273.682492,119.297497 C269.807078,119.297497 266.664992,122.439582 266.664992,126.314996 C266.664992,130.190411 269.807078,133.332496 273.682492,133.332496 L273.682492,133.332496 Z" id="Shape"></path>
                            <path d="M273.682492,161.402495 L407.014988,161.402495 C410.890402,161.402495 414.032488,158.26041 414.032488,154.384996 C414.032488,150.509581 410.890402,147.367496 407.014988,147.367496 L273.682492,147.367496 C269.807078,147.367496 266.664992,150.509581 266.664992,154.384996 C266.664992,158.26041 269.807078,161.402495 273.682492,161.402495 L273.682492,161.402495 Z" id="Shape"></path>
                        </g>
                    </g>
                </g>
            </g>
        </g>
    </g>
</svg>