<?xml version="1.0" encoding="UTF-8" standalone="no"?>
<svg width="1005px" height="1002px" viewBox="0 0 1005 1002" version="1.1" xmlns="http://www.w3.org/2000/svg" xmlns:xlink="http://www.w3.org/1999/xlink" xmlns:sketch="http://www.bohemiancoding.com/sketch/ns">
    <!-- Generator: Sketch 3.4.1 (15681) - http://www.bohemiancoding.com/sketch -->
    <title>trim-line</title>
    <desc>Created with Sketch.</desc>
    <defs></defs>
    <g id="Exportable" stroke="none" stroke-width="1" fill="none" fill-rule="evenodd" sketch:type="MSPage">
        <g id="Spacer" sketch:type="MSLayerGroup" transform="translate(0.000000, -119.000000)">
            <g id="trim-line" transform="translate(0.000000, 119.000000)" sketch:type="MSShapeGroup">
                <rect id="Rectangle-1" stroke="#979797" fill="#5E9FEA" x="0" y="0" width="1003" height="1000"></rect>
                <path d="M9.00799351,4 C7.89900932,4 7,4.88939268 7,6.00799351 L7,1000.20547 C7,1001.31445 7.63630492,1001.57715 8.40895761,1000.8045 L1003.8045,5.40895761 C1004.58265,4.63081181 1004.32407,4 1003.20547,4 L9.00799351,4 Z" id="Rectangle-12-Copy" fill="#6EAAEF"></path>
                <g id="Capa_1" transform="translate(441.000000, 379.000000)" fill="#FFFFFF">
                    <g id="Group" transform="translate(61.000000, 121.000000) rotate(90.000000) translate(-61.000000, -121.000000) translate(-60.000000, 60.000000)">
                        <path d="M54.4997608,118.79878 C57.2844976,121.583517 61.4722249,122.416459 65.1111483,120.909904 C68.7491866,119.402464 71.1214354,115.852057 71.1214354,111.914833 L71.1214354,10.0860526 C71.1214354,6.14794258 68.7491866,2.59753589 65.1111483,1.09009569 C63.9064354,0.591746411 62.6415311,0.349210526 61.3863636,0.349210526 C58.8530144,0.349210526 56.3621531,1.33794258 54.4997608,3.2012201 L3.5858134,54.1151675 C1.75971292,55.9412679 0.73291866,58.4179665 0.73291866,61 C0.73291866,63.5820335 1.75971292,66.0596172 3.5858134,67.8839474 L54.4997608,118.79878 L54.4997608,118.79878 Z" id="Shape"></path>
                        <path d="M177.426507,120.909904 C181.06189,122.414689 185.251388,121.587057 188.036124,118.79878 L238.951842,67.8839474 C240.777057,66.0578469 241.802967,63.5820335 241.802967,61 C241.802967,58.4179665 240.778828,55.9403828 238.951842,54.1151675 L188.036124,3.2012201 C186.173732,1.33882775 183.682871,0.349210526 181.150407,0.349210526 C179.89701,0.349210526 178.62945,0.590861244 177.426507,1.09009569 C173.787584,2.59753589 171.415335,6.14794258 171.415335,10.0860526 L171.415335,111.913062 C171.415335,115.852057 173.787584,119.402464 177.426507,120.909904 L177.426507,120.909904 Z" id="Shape"></path>
                    </g>
                </g>
            </g>
        </g>
    </g>
</svg>