<?xml version="1.0" encoding="utf-8"?>
<!-- Generator: Adobe Illustrator 16.0.3, SVG Export Plug-In . SVG Version: 6.00 Build 0)  -->
<!DOCTYPE svg PUBLIC "-//W3C//DTD SVG 1.1//EN" "http://www.w3.org/Graphics/SVG/1.1/DTD/svg11.dtd">
<svg version="1.1" id="Layer_1" xmlns="http://www.w3.org/2000/svg" xmlns:xlink="http://www.w3.org/1999/xlink" x="0px" y="0px"
	 width="19" height="18px" viewBox="0 0 31.064 31.065" enable-background="new 0 0 31.064 31.065" xml:space="preserve">
<g>
	<defs>
		<path id="SVGID_1_" d="M-8.827,20.082c-1.693-1.69-3.706-2.943-5.903-3.701c2.353-1.622,3.899-4.333,3.899-7.401
			c0-4.952-4.027-8.979-8.979-8.979c-4.95,0-8.98,4.028-8.98,8.979c0,3.067,1.547,5.779,3.9,7.401
			c-2.197,0.758-4.212,2.011-5.903,3.701c-2.934,2.934-4.549,6.834-4.549,10.983h2.427c0-7.226,5.88-13.105,13.105-13.105
			c7.228,0,13.105,5.88,13.105,13.105h2.427C-4.278,26.916-5.894,23.016-8.827,20.082 M-19.811,15.532
			c-3.613,0-6.552-2.939-6.552-6.553c0-3.613,2.938-6.553,6.552-6.553c3.614,0,6.553,2.939,6.553,6.553
			C-13.258,12.593-16.196,15.532-19.811,15.532"/>
	</defs>
	<use xlink:href="#SVGID_1_"  overflow="visible" fill-rule="evenodd" clip-rule="evenodd" fill="#272C8A"/>
	<clipPath id="SVGID_2_">
		<use xlink:href="#SVGID_1_"  overflow="visible"/>
	</clipPath>
	<g clip-path="url(#SVGID_2_)">
		<defs>
			<rect id="SVGID_3_" x="-35.343" width="31.064" height="31.065"/>
		</defs>
		<use xlink:href="#SVGID_3_"  overflow="visible" fill="#272C8A"/>
		<clipPath id="SVGID_4_">
			<use xlink:href="#SVGID_3_"  overflow="visible"/>
		</clipPath>
		<rect x="-43.972" y="-8.629" clip-path="url(#SVGID_4_)" fill="#272C8A" width="48.323" height="48.323"/>
	</g>
</g>
<g>
	<defs>
		<path id="SVGID_5_" d="M26.516,20.082c-1.693-1.69-3.706-2.943-5.903-3.701c2.353-1.622,3.899-4.333,3.899-7.401
			C24.512,4.028,20.483,0,15.532,0S6.553,4.028,6.553,8.979c0,3.067,1.547,5.779,3.899,7.401c-2.197,0.758-4.213,2.011-5.903,3.701
			C1.614,23.016,0,26.916,0,31.065h2.427c0-7.226,5.879-13.105,13.105-13.105s13.105,5.88,13.105,13.105h2.427
			C31.064,26.916,29.448,23.016,26.516,20.082 M15.532,15.532c-3.613,0-6.553-2.939-6.553-6.553c0-3.613,2.939-6.553,6.553-6.553
			s6.553,2.939,6.553,6.553C22.085,12.593,19.146,15.532,15.532,15.532"/>
	</defs>
	<use xlink:href="#SVGID_5_"  overflow="visible" fill-rule="evenodd" clip-rule="evenodd" fill="#272C8A"/>
	<clipPath id="SVGID_6_">
		<use xlink:href="#SVGID_5_"  overflow="visible"/>
	</clipPath>
	<g clip-path="url(#SVGID_6_)">
		<defs>
			<rect id="SVGID_7_" width="31.064" height="31.065"/>
		</defs>
		<use xlink:href="#SVGID_7_"  overflow="visible" fill="#272C8A"/>
		<clipPath id="SVGID_8_">
			<use xlink:href="#SVGID_7_"  overflow="visible"/>
		</clipPath>
		<rect x="-8.63" y="-8.629" clip-path="url(#SVGID_8_)" fill="#272C8A" width="48.324" height="48.323"/>
	</g>
</g>
<g>
	<defs>
		<path id="SVGID_9_" d="M62.441,20.082c-1.694-1.69-3.706-2.943-5.904-3.701c2.354-1.622,3.9-4.333,3.9-7.401
			C60.438,4.028,56.409,0,51.458,0c-4.952,0-8.98,4.028-8.98,8.979c0,3.067,1.548,5.779,3.9,7.401
			c-2.197,0.758-4.213,2.011-5.904,3.701c-2.934,2.934-4.549,6.834-4.549,10.983h2.428c0-7.226,5.878-13.105,13.105-13.105
			c7.227,0,13.105,5.88,13.105,13.105h2.427C66.99,26.916,65.374,23.016,62.441,20.082 M51.458,15.532
			c-3.613,0-6.553-2.939-6.553-6.553c0-3.613,2.939-6.553,6.553-6.553s6.553,2.939,6.553,6.553
			C58.011,12.593,55.071,15.532,51.458,15.532"/>
	</defs>
	<use xlink:href="#SVGID_9_"  overflow="visible" fill-rule="evenodd" clip-rule="evenodd" fill="#272C8A"/>
	<clipPath id="SVGID_10_">
		<use xlink:href="#SVGID_9_"  overflow="visible"/>
	</clipPath>
	<g clip-path="url(#SVGID_10_)">
		<defs>
			<rect id="SVGID_11_" x="35.925" width="31.065" height="31.065"/>
		</defs>
		<use xlink:href="#SVGID_11_"  overflow="visible" fill="#272C8A"/>
		<clipPath id="SVGID_12_">
			<use xlink:href="#SVGID_11_"  overflow="visible"/>
		</clipPath>
		<rect x="27.296" y="-8.629" clip-path="url(#SVGID_12_)" fill="#272C8A" width="48.323" height="48.323"/>
	</g>
</g>
<path fill-rule="evenodd" clip-rule="evenodd" fill="#272C8A" d="M58.301,17.43c-4.435-1.535-4.435-1.535-4.435-1.535
	s5.264-1.537,4.746-7.231c-1.985-0.173-7.061-1.156-7.439-6.179C50.346,7.266,45.53,8.387,43.7,8.646
	c-0.933,6.127,4.798,7.249,4.798,7.249s0,0-4.436,1.535c-4.091-3.072-3.469-8.715-3.469-8.715
	C41.423-1.191,50.103-1.587,51.14-1.605c0.068,0,0.103,0,0.103,0c1.034,0.018,9.716,0.415,10.545,10.321h-0.019
	C61.769,8.715,62.391,14.358,58.301,17.43z"/>
<polygon fill-rule="evenodd" clip-rule="evenodd" fill="#272C8A" points="11.643,20.553 11.643,27.596 16.593,23.98 "/>
<polygon fill-rule="evenodd" clip-rule="evenodd" fill="#272C8A" points="19.828,20.553 19.828,27.596 14.878,23.98 "/>
</svg>
