<?xml version="1.0" encoding="UTF-8"?>
<svg width="25px" height="27px" viewBox="0 0 25 27" version="1.1" xmlns="http://www.w3.org/2000/svg" xmlns:xlink="http://www.w3.org/1999/xlink">
    <!-- Generator: Sketch 54.1 (76490) - https://sketchapp.com -->
    <title>ico-pdf</title>
    <desc>Created with Sketch.</desc>
    <g id="Welcome" stroke="none" stroke-width="1" fill="none" fill-rule="evenodd">
        <g id="Resources-Real" transform="translate(-173.000000, -820.000000)" fill="#26288E">
            <g id="ico-pdf" transform="translate(173.000000, 820.000000)">
                <path d="M23.654,24.6143208 C23.654,25.1782642 23.2005,25.638283 22.6435,25.638283 L7.553,25.638283 C6.996,25.638283 6.5425,25.1782642 6.5425,24.6133019 L6.5425,19.9973208 L15.0995,19.9973208 C15.9315,19.9973208 16.608,19.3080566 16.608,18.4608679 L16.608,10.7663774 C16.608,9.91918868 15.9315,9.22941509 15.0995,9.22941509 L6.5425,9.22941509 L6.5425,2.05403774 C6.5425,1.4865283 6.996,1.02549057 7.553,1.02549057 L16.608,1.02549057 L16.608,7.69143396 C16.608,7.97416981 16.833,8.20392453 17.1115,8.20392453 L23.654,8.20392453 L23.654,24.6143208 Z M1.509,18.9723396 C1.232,18.9723396 1.007,18.7430943 1.007,18.4608679 L1.007,10.7663774 C1.007,10.4846604 1.232,10.2549057 1.509,10.2549057 L15.0995,10.2549057 C15.376,10.2549057 15.602,10.4846604 15.602,10.7663774 L15.602,18.4608679 C15.602,18.7430943 15.376,18.9723396 15.0995,18.9723396 L1.509,18.9723396 Z M17.6145,1.38413208 L23.0875,7.17843396 L17.6145,7.17843396 L17.6145,1.38413208 Z M24.5195,7.21562264 L17.8525,0.15690566 C17.7575,0.0565471698 17.6265,-2.84217094e-14 17.49,-2.84217094e-14 L7.553,-2.84217094e-14 C6.441,-2.84217094e-14 5.536,0.921056604 5.536,2.05403774 L5.536,9.22941509 L1.509,9.22941509 C0.677,9.22941509 -4.26325641e-14,9.91918868 -4.26325641e-14,10.7663774 L-4.26325641e-14,18.4608679 C-4.26325641e-14,19.3080566 0.677,19.9973208 1.509,19.9973208 L5.536,19.9973208 L5.536,24.6127925 C5.536,25.7437358 6.441,26.6632642 7.553,26.6632642 L22.6435,26.6632642 C23.7555,26.6632642 24.6605,25.7442453 24.6605,24.6143208 L24.6605,7.57120755 C24.6605,7.43875472 24.61,7.31088679 24.5195,7.21562264 L24.5195,7.21562264 Z" id="Fill-1"></path>
                <path d="M5.26925,14.2261472 C5.20375,14.3239585 5.11275,14.3962981 4.99675,14.4421472 C4.88075,14.4885057 4.65075,14.5114302 4.30675,14.5114302 L3.82875,14.5114302 L3.82875,13.2612792 L4.25025,13.2612792 C4.56525,13.2612792 4.77425,13.2714679 4.87875,13.2918453 C5.02025,13.3178264 5.13725,13.3825245 5.22925,13.4869585 C5.32175,13.590883 5.36825,13.7233358 5.36825,13.8832981 C5.36825,14.0137132 5.33525,14.1278264 5.26925,14.2261472 M6.01675,13.0136943 C5.84975,12.7926 5.64225,12.6484302 5.39475,12.5822038 C5.23325,12.5383925 4.88725,12.5164868 4.35675,12.5164868 L2.95625,12.5164868 L2.95625,16.9210528 L3.82875,16.9210528 L3.82875,15.2592792 L4.39775,15.2592792 C4.79325,15.2592792 5.09475,15.2383925 5.30325,15.1961094 C5.45675,15.1624868 5.60725,15.0926943 5.75625,14.9872415 C5.90425,14.8822981 6.02675,14.7376189 6.12325,14.5537132 C6.21925,14.3692981 6.26775,14.1415811 6.26775,13.8715811 C6.26775,13.5210906 6.18375,13.2347887 6.01675,13.0136943" id="Fill-4"></path>
                <path d="M9.61445,15.528617 C9.55545,15.7257679 9.47895,15.8673906 9.38595,15.9534849 C9.29245,16.0395792 9.17495,16.1007113 9.03345,16.1368811 C8.92545,16.1649 8.74945,16.1786547 8.50545,16.1786547 L7.85395,16.1786547 L7.85395,13.2616358 L8.24595,13.2616358 C8.60195,13.2616358 8.84095,13.2753906 8.96245,13.3034094 C9.12595,13.3395792 9.26045,13.4088623 9.36645,13.5112585 C9.47295,13.6131453 9.55545,13.7557868 9.61445,13.9376547 C9.67345,14.1195226 9.70295,14.3813717 9.70295,14.7216736 C9.70295,15.0624849 9.67345,15.3309566 9.61445,15.528617 M10.46345,13.719617 C10.36945,13.4384094 10.23145,13.2005038 10.05095,13.0064094 C9.86995,12.8118057 9.65295,12.6768057 9.39895,12.6003906 C9.21045,12.5443528 8.93645,12.516334 8.57645,12.516334 L6.98095,12.516334 L6.98095,16.9209 L8.62395,16.9209 C8.94595,16.9209 9.20345,16.8898245 9.39595,16.828183 C9.65395,16.743617 9.85795,16.6264472 10.00945,16.4761642 C10.20995,16.2779943 10.36445,16.0186925 10.47245,15.6982585 C10.56095,15.4353906 10.60495,15.1231075 10.60495,14.7609 C10.60495,14.3482585 10.55795,14.001334 10.46345,13.719617" id="Fill-6"></path>
                <polygon id="Fill-8" points="14.31465 13.261534 14.31465 12.5167415 11.35115 12.5167415 11.35115 16.9213075 12.22415 16.9213075 12.22415 15.0491377 14.02915 15.0491377 14.02915 14.3043453 12.22415 14.3043453 12.22415 13.261534"></polygon>
            </g>
        </g>
    </g>
</svg>