<?xml version="1.0" encoding="utf-8"?>
<!-- Generator: Adobe Illustrator 16.0.3, SVG Export Plug-In . SVG Version: 6.00 Build 0)  -->
<!DOCTYPE svg PUBLIC "-//W3C//DTD SVG 1.1//EN" "http://www.w3.org/Graphics/SVG/1.1/DTD/svg11.dtd">
<svg version="1.1" id="Layer_1" xmlns="http://www.w3.org/2000/svg" xmlns:xlink="http://www.w3.org/1999/xlink" x="0px" y="0px"
	 width="18" height="19" viewBox="0 0 31.065 32.67" enable-background="new 0 0 31.065 32.67" xml:space="preserve">
<g>
	<defs>
		<path id="SVGID_1_" d="M-44.752,21.687c-1.693-1.69-3.706-2.943-5.903-3.701c2.353-1.622,3.899-4.333,3.899-7.401
			c0-4.952-4.027-8.979-8.979-8.979c-4.95,0-8.98,4.028-8.98,8.979c0,3.067,1.547,5.779,3.9,7.401
			c-2.197,0.758-4.212,2.011-5.903,3.701c-2.934,2.934-4.549,6.834-4.549,10.983h2.427c0-7.226,5.88-13.105,13.105-13.105
			c7.228,0,13.105,5.88,13.105,13.105h2.427C-40.203,28.521-41.818,24.621-44.752,21.687 M-55.735,17.138
			c-3.613,0-6.552-2.939-6.552-6.553c0-3.613,2.938-6.553,6.552-6.553c3.614,0,6.553,2.939,6.553,6.553
			C-49.183,14.199-52.121,17.138-55.735,17.138"/>
	</defs>
	<use xlink:href="#SVGID_1_"  overflow="visible" fill-rule="evenodd" clip-rule="evenodd" fill="#272C8A"/>
	<clipPath id="SVGID_2_">
		<use xlink:href="#SVGID_1_"  overflow="visible"/>
	</clipPath>
	<g clip-path="url(#SVGID_2_)">
		<defs>
			<rect id="SVGID_3_" x="-71.268" y="1.605" width="31.064" height="31.065"/>
		</defs>
		<use xlink:href="#SVGID_3_"  overflow="visible" fill="#272C8A"/>
		<clipPath id="SVGID_4_">
			<use xlink:href="#SVGID_3_"  overflow="visible"/>
		</clipPath>
		<rect x="-79.896" y="-7.024" clip-path="url(#SVGID_4_)" fill="#272C8A" width="48.323" height="48.323"/>
	</g>
</g>
<g>
	<defs>
		<path id="SVGID_5_" d="M-9.409,21.687c-1.693-1.69-3.706-2.943-5.903-3.701c2.353-1.622,3.899-4.333,3.899-7.401
			c0-4.952-4.028-8.979-8.979-8.979s-8.979,4.028-8.979,8.979c0,3.067,1.547,5.779,3.899,7.401
			c-2.197,0.758-4.213,2.011-5.903,3.701c-2.935,2.934-4.549,6.834-4.549,10.983h2.427c0-7.226,5.879-13.105,13.105-13.105
			s13.105,5.88,13.105,13.105h2.427C-4.86,28.521-6.477,24.621-9.409,21.687 M-20.393,17.138c-3.613,0-6.553-2.939-6.553-6.553
			c0-3.613,2.939-6.553,6.553-6.553s6.553,2.939,6.553,6.553C-13.84,14.199-16.779,17.138-20.393,17.138"/>
	</defs>
	<use xlink:href="#SVGID_5_"  overflow="visible" fill-rule="evenodd" clip-rule="evenodd" fill="#272C8A"/>
	<clipPath id="SVGID_6_">
		<use xlink:href="#SVGID_5_"  overflow="visible"/>
	</clipPath>
	<g clip-path="url(#SVGID_6_)">
		<defs>
			<rect id="SVGID_7_" x="-35.925" y="1.605" width="31.064" height="31.065"/>
		</defs>
		<use xlink:href="#SVGID_7_"  overflow="visible" fill="#272C8A"/>
		<clipPath id="SVGID_8_">
			<use xlink:href="#SVGID_7_"  overflow="visible"/>
		</clipPath>
		<rect x="-44.555" y="-7.024" clip-path="url(#SVGID_8_)" fill="#272C8A" width="48.324" height="48.323"/>
	</g>
</g>
<g>
	<defs>
		<path id="SVGID_9_" d="M26.517,21.687c-1.694-1.69-3.706-2.943-5.904-3.701c2.354-1.622,3.9-4.333,3.9-7.401
			c0-4.952-4.028-8.979-8.979-8.979c-4.952,0-8.98,4.028-8.98,8.979c0,3.067,1.548,5.779,3.9,7.401
			c-2.197,0.758-4.213,2.011-5.904,3.701C1.615,24.621,0,28.521,0,32.67h2.428c0-7.226,5.878-13.105,13.105-13.105
			c7.227,0,13.105,5.88,13.105,13.105h2.427C31.065,28.521,29.449,24.621,26.517,21.687 M15.533,17.138
			c-3.613,0-6.553-2.939-6.553-6.553c0-3.613,2.939-6.553,6.553-6.553s6.553,2.939,6.553,6.553
			C22.086,14.199,19.146,17.138,15.533,17.138"/>
	</defs>
	<use xlink:href="#SVGID_9_"  overflow="visible" fill-rule="evenodd" clip-rule="evenodd" fill="#272C8A"/>
	<clipPath id="SVGID_10_">
		<use xlink:href="#SVGID_9_"  overflow="visible"/>
	</clipPath>
	<g clip-path="url(#SVGID_10_)">
		<defs>
			<rect id="SVGID_11_" y="1.605" width="31.065" height="31.065"/>
		</defs>
		<use xlink:href="#SVGID_11_"  overflow="visible" fill="#272C8A"/>
		<clipPath id="SVGID_12_">
			<use xlink:href="#SVGID_11_"  overflow="visible"/>
		</clipPath>
		<rect x="-8.629" y="-7.024" clip-path="url(#SVGID_12_)" fill="#272C8A" width="48.323" height="48.323"/>
	</g>
</g>
<path fill-rule="evenodd" clip-rule="evenodd" fill="#272C8A" d="M22.376,19.036C17.941,17.5,17.941,17.5,17.941,17.5
	s5.264-1.537,4.746-7.231c-1.985-0.173-7.061-1.156-7.439-6.179c-0.827,4.781-5.643,5.902-7.473,6.161
	c-0.933,6.127,4.798,7.249,4.798,7.249s0,0-4.436,1.535c-4.091-3.072-3.469-8.715-3.469-8.715C5.498,0.415,14.178,0.018,15.215,0
	c0.068,0,0.103,0,0.103,0c1.034,0.018,9.716,0.415,10.545,10.321h-0.019C25.844,10.321,26.466,15.964,22.376,19.036z"/>
<polygon fill-rule="evenodd" clip-rule="evenodd" fill="#272C8A" points="-24.282,22.159 -24.282,29.202 -19.332,25.585 "/>
<polygon fill-rule="evenodd" clip-rule="evenodd" fill="#272C8A" points="-16.097,22.159 -16.097,29.202 -21.047,25.585 "/>
</svg>
