<?xml version="1.0" encoding="UTF-8"?>
<svg width="15px" height="16px" viewBox="0 0 15 16" version="1.1" xmlns="http://www.w3.org/2000/svg" xmlns:xlink="http://www.w3.org/1999/xlink">
    <!-- Generator: Sketch 56.2 (81672) - https://sketch.com -->
    <title>ico-text</title>
    <desc>Created with Sketch.</desc>
    <g id="Welcome" stroke="none" stroke-width="1" fill="none" fill-rule="evenodd">
        <g id="Explore-results-Real" transform="translate(-179.000000, -730.000000)" fill="#26288E">
            <g id="ico-text" transform="translate(179.000000, 730.000000)">
                <path d="M10.8332816,7.12768 C10.8332816,6.68582045 10.5298565,6.32768 10.155668,6.32768 L3.17742775,6.32768 C2.80323926,6.32768 2.49994822,6.68582045 2.49994822,7.12768 C2.49994822,7.56953955 2.80323926,7.92768 3.17742775,7.92768 L10.155668,7.92768 C10.5298565,7.92768 10.8332816,7.56953955 10.8332816,7.12768" id="Fill-1"></path>
                <path d="M3.10558405,8.72768 C2.77107658,8.72768 2.49994822,9.08597871 2.49994822,9.52768 C2.49994822,9.96953955 2.77107658,10.32768 3.10558405,10.32768 L6.89431239,10.32768 C7.22881986,10.32768 7.49994822,9.96953955 7.49994822,9.52768 C7.49994822,9.08597871 7.22881986,8.72768 6.89431239,8.72768 L3.10558405,8.72768 Z" id="Fill-3"></path>
                <path d="M4.80608414,14.6833231 L2.61747573,14.6833231 C1.89592233,14.6833231 1.30873786,14.1251692 1.30873786,13.4390154 L1.30873786,2.48873846 C1.30873786,1.80258462 1.89592233,1.24443077 2.61747573,1.24443077 L10.6629126,1.24443077 C11.384466,1.24443077 11.9716505,1.80258462 11.9716505,2.48873846 L11.9716505,6.31507692 C11.9716505,6.65870769 12.2645955,6.93723077 12.6260194,6.93723077 C12.9874434,6.93723077 13.2803883,6.65870769 13.2803883,6.31507692 L13.2803883,2.48873846 C13.2803883,1.11655385 12.1062783,-1.38378198e-12 10.6629126,-1.38378198e-12 L2.61747573,-1.38378198e-12 C1.17423948,-1.38378198e-12 -1.18660637e-12,1.11655385 -1.18660637e-12,2.48873846 L-1.18660637e-12,13.4390154 C-1.18660637e-12,14.8112 1.17423948,15.9276308 2.61747573,15.9276308 L4.80608414,15.9276308 C5.16750809,15.9276308 5.46045307,15.6492308 5.46045307,15.3056 C5.46045307,14.9619692 5.16750809,14.6833231 4.80608414,14.6833231" id="Fill-5"></path>
                <path d="M13.4409294,10.979179 L13.3093434,11.0946151 L12.3483219,10.2506807 L12.4795047,10.1357167 C12.744424,9.9030741 13.1754724,9.9030741 13.4403918,10.1357167 C13.7053111,10.3683593 13.7053111,10.7468905 13.4409294,10.979179 L13.4409294,10.979179 Z M9.84523048,14.1307725 L8.46552618,14.4664577 L8.86928962,13.2989954 L11.3863595,11.0935528 L12.347381,11.9374872 L9.84523048,14.1307725 Z M14.4012789,9.2917823 C13.6063864,8.59385443 12.3133756,8.59385443 11.5191552,9.29131016 L7.78877887,12.5599921 C7.70947779,12.6292774 7.65114446,12.7148511 7.61861757,12.8089233 L6.80625198,15.1575397 C6.73420897,15.3657495 6.79684338,15.5919003 6.96996166,15.7475856 C7.09966596,15.864438 7.27574123,15.9277036 7.45638639,15.9277036 C7.51687026,15.9277036 7.57789177,15.9206216 7.6377036,15.9059856 L10.3801767,15.2389823 C10.4929455,15.2113626 10.5959025,15.158838 10.6788326,15.0861298 L14.4014133,11.8233495 C15.1961713,11.1254216 15.1961713,9.9898282 14.4012789,9.2917823 L14.4012789,9.2917823 Z" id="Fill-8"></path>
                <path d="M10.155668,3.92768 L3.17742775,3.92768 C2.80323926,3.92768 2.49994822,4.28582045 2.49994822,4.72768 C2.49994822,5.16953955 2.80323926,5.52768 3.17742775,5.52768 L10.155668,5.52768 C10.5298565,5.52768 10.8332816,5.16953955 10.8332816,4.72768 C10.8332816,4.28582045 10.5298565,3.92768 10.155668,3.92768" id="Fill-11"></path>
            </g>
        </g>
    </g>
</svg>