<?xml version="1.0" encoding="UTF-8"?>
<svg width="36px" height="32px" viewBox="0 0 36 32" version="1.1" xmlns="http://www.w3.org/2000/svg" xmlns:xlink="http://www.w3.org/1999/xlink">
    <!-- Generator: Sketch 54.1 (76490) - https://sketchapp.com -->
    <title>ico-digital-objets</title>
    <desc>Created with Sketch.</desc>
    <g id="Welcome" stroke="none" stroke-width="1" fill="none" fill-rule="evenodd">
        <g id="Home-Real" transform="translate(-550.000000, -753.000000)" fill="#FFFFFF">
            <g id="buscadores" transform="translate(150.000000, 744.000000)">
                <g id="Digital-objects" transform="translate(391.000000, 0.000000)">
                    <g id="ico-digital-objets" transform="translate(9.000000, 9.000000)">
                        <path d="M34.5193016,30.1932072 C34.0220662,30.8721945 33.063494,31.025685 32.3753079,30.5342131 C31.6886495,30.0427412 31.5343614,29.0923101 32.030833,28.4118105 C32.5280685,27.7320671 33.4874044,27.5785766 34.1748267,28.0708047 C34.862249,28.5630327 35.0157733,29.5127076 34.5193016,30.1932072 L34.5193016,30.1932072 Z M18.4931971,29.3070455 L18.4931971,18.5914458 L27.486208,14.4653501 L27.486208,25.2081698 L18.4931971,29.3070455 Z M8.31094562,14.4653501 L17.3031927,18.5914458 L17.3031927,29.3070455 L8.31094562,25.2081698 L8.31094562,14.4653501 Z M3.61661531,30.5342131 C3.07813453,30.9190734 2.35023072,30.9183173 1.81327755,30.5311886 C1.27632437,30.1448161 1.05176643,29.4597799 1.25646551,28.8337203 C1.46116458,28.2084168 2.04929253,27.7842387 2.71303692,27.7827265 C2.7962914,27.7827265 2.87878207,27.7895315 2.96050894,27.8023854 C3.57307856,27.8999237 4.06649499,28.35359 4.21085367,28.9516735 C4.35368474,29.549757 4.11919737,30.1743044 3.61661531,30.5349692 L3.61661531,30.5342131 Z M16.4339855,2.69648825 C16.4339855,1.85644935 17.1214077,1.1767059 17.9699923,1.1767059 C18.8170493,1.1767059 19.5052354,1.85644935 19.5052354,2.69648825 C19.5052354,3.53577104 18.8170493,4.2162706 17.9699923,4.2162706 C17.1221715,4.21551449 16.4347493,3.53577104 16.4339855,2.69648825 L16.4339855,2.69648825 Z M17.9188176,17.5661598 L9.1503646,13.5459196 L17.9188176,9.55214327 L26.6872706,13.5459196 L17.9188176,17.5661598 Z M34.8714146,27.116593 C34.2863419,26.6961955 33.5561467,26.5238023 32.8427551,26.6394872 C32.3424644,26.7173666 31.8742535,26.9298337 31.4885332,27.2542052 L28.6754485,25.2497559 L28.6754485,13.5436512 C28.6800313,13.3168181 28.5501849,13.1066193 28.3416668,13.009081 L18.4931971,8.51702783 L18.4931971,5.34287543 C19.8558208,5.07899282 20.7991169,3.84123973 20.6837827,2.4719234 C20.5669209,1.10185095 19.4288552,0.0372471889 18.041026,0.000953879006 C16.652433,-0.0353394309 15.4586096,0.968019366 15.2699504,2.3297746 C15.0805274,3.69152983 15.9566089,4.97616178 17.3031927,5.3118749 L17.3031927,8.53593059 L7.47534566,13.009081 C7.26224476,13.104351 7.1247603,13.3130375 7.12094129,13.5436512 L7.12094129,25.3601481 L4.48276737,27.2549613 C3.52877802,26.4436546 2.13712982,26.3861902 1.11821725,27.116593 C-0.093173553,27.9921691 -0.362032042,29.6737592 0.517104664,30.8767312 C1.39700517,32.0804593 3.09341058,32.3534152 4.31320321,31.4884247 C5.35808506,30.7376068 5.72929309,29.3645099 5.20226935,28.1978312 L7.86335734,26.2931886 L17.669818,30.7602901 C17.8279251,30.8321206 18.0097101,30.8321206 18.1670534,30.7602901 L28.0689893,26.2500903 L30.7896539,28.1970751 C30.2626302,29.3645099 30.6330744,30.7376068 31.67872,31.4884247 C32.8985127,32.3609763 34.6010285,32.0902887 35.4832204,30.8827801 C36.3646485,29.6752714 36.0912072,27.9891447 34.8714146,27.116593 L34.8714146,27.116593 Z" id="Fill-1"></path>
                    </g>
                </g>
            </g>
        </g>
    </g>
</svg>