<?xml version="1.0" encoding="UTF-8"?>
<svg width="22px" height="19px" viewBox="0 0 22 19" version="1.1" xmlns="http://www.w3.org/2000/svg" xmlns:xlink="http://www.w3.org/1999/xlink">
    <!-- Generator: Sketch 54.1 (76490) - https://sketchapp.com -->
    <title>ico-map-violet</title>
    <desc>Created with Sketch.</desc>
    <g id="Welcome" stroke="none" stroke-width="1" fill="none" fill-rule="evenodd">
        <g id="Explore-results-list-Real" transform="translate(-1052.000000, -516.000000)" fill="#26288E">
            <g id="Menu-categorias-body" transform="translate(1027.000000, 335.000000)">
                <g id="ico-map-oscuro" transform="translate(25.500000, 181.000000)">
                    <path d="M19.8589614,15.2247824 L13.8637655,17.5172307 L13.8637655,2.84464446 L19.8589614,0.879782391 L19.8589614,15.2247824 Z M7.49416138,1.57098929 L13.1142828,2.87150653 L13.1142828,17.6161617 L7.49416138,16.6412651 L7.49416138,1.57098929 Z M0.749482759,2.87478239 L6.74467862,1.56509274 L6.74467862,16.6550238 L0.749482759,17.9653686 L0.749482759,2.87478239 Z M20.4525517,0.0699892875 C20.3546193,0.00054101165 20.2287062,-0.0191141608 20.1147848,0.0195410116 L13.4713697,2.19667894 L7.20502759,0.746782391 C7.18970483,0.742851356 7.17371586,0.748092736 7.1583931,0.746782391 C7.11842069,0.742851356 7.07844828,0.737609977 7.03780966,0.746127219 L0.293797241,2.22026515 C0.122582069,2.25760998 -6.21724894e-14,2.40698929 -6.21724894e-14,2.5799548 L-6.21724894e-14,18.4246445 C-6.21724894e-14,18.5366789 0.0519641379,18.6421617 0.140569655,18.71161 C0.207856552,18.7646789 0.290466207,18.7928514 0.375074483,18.7928514 C0.401722759,18.7928514 0.429037241,18.7895755 0.456351724,18.7849893 L7.12841379,17.3265755 L13.424069,18.4187479 C13.4453876,18.4233341 13.4673724,18.4252996 13.488691,18.4252996 C13.5346593,18.4252996 13.5792952,18.4161272 13.6212662,18.4010583 C13.6225986,18.4004031 13.623931,18.4010583 13.6252634,18.4004031 L20.3692759,15.8203341 C20.5131766,15.7646445 20.6084441,15.6283686 20.6084441,15.4770238 L20.6084441,0.368747908 C20.6084441,0.250161701 20.5504841,0.139437563 20.4525517,0.0699892875 L20.4525517,0.0699892875 Z" id="Fill-1"></path>
                </g>
            </g>
        </g>
    </g>
</svg>