<?xml version="1.0" encoding="UTF-8"?>
<svg width="18px" height="15px" viewBox="0 0 18 15" version="1.1" xmlns="http://www.w3.org/2000/svg" xmlns:xlink="http://www.w3.org/1999/xlink">
    <!-- Generator: Sketch 56.2 (81672) - https://sketch.com -->
    <title>ico-picture</title>
    <desc>Created with Sketch.</desc>
    <g id="Welcome" stroke="none" stroke-width="1" fill="none" fill-rule="evenodd">
        <g id="Explore-results-Real" transform="translate(-178.000000, -434.000000)" fill="#26288E">
            <g id="ico-picture" transform="translate(178.000000, 435.000000)">
                <path d="M15.6880734,11.7471264 L2.31192661,11.7471264 L5.6559633,3.05747126 L10.1146789,8.48850575 L12.3440367,6.8591954 L15.6880734,11.7471264 Z M12.2201835,3.70114943 C12.2201835,4.58989464 12.9595183,5.31034483 13.8715596,5.31034483 C14.7836009,5.31034483 15.5229358,4.58989464 15.5229358,3.70114943 C15.5229358,2.81240421 14.7836009,2.09195402 13.8715596,2.09195402 C12.9595183,2.09195402 12.2201835,2.81240421 12.2201835,3.70114943 L12.2201835,3.70114943 Z M1.1559633,12.8735632 L16.8440367,12.8735632 L16.8440367,0.965517241 L1.1559633,0.965517241 L1.1559633,12.8735632 Z M0,14 L17.8348624,14 L17.8348624,-0.16091954 L0,-0.16091954 L0,14 Z" id="Fill-1"></path>
            </g>
        </g>
    </g>
</svg>