<?xml version="1.0" encoding="UTF-8"?>
<svg width="21px" height="22px" viewBox="0 0 21 22" version="1.1" xmlns="http://www.w3.org/2000/svg" xmlns:xlink="http://www.w3.org/1999/xlink">
    <!-- Generator: Sketch 54.1 (76490) - https://sketchapp.com -->
    <title>ico-image</title>
    <desc>Created with Sketch.</desc>
    <g id="Welcome" stroke="none" stroke-width="1" fill="none" fill-rule="evenodd">
        <g id="Resources-Real" transform="translate(-951.000000, -443.000000)" fill="#26288E">
            <g id="ico-image" transform="translate(951.000000, 443.000000)">
                <path d="M2.7435,16.6957241 L8.65425,11.4324138 L12.90525,15.7315172 C13.06725,15.8938621 13.3275,15.8938621 13.48875,15.7315172 C13.65,15.5684138 13.65,15.3044138 13.48875,15.1405517 L11.50575,13.1347586 L15.29325,8.93806897 L19.80675,13.1226207 L19.80675,16.6957241 L2.7435,16.6957241 Z M0.825,20.8696552 L19.80675,20.8696552 L19.80675,17.5302069 L0.825,17.5302069 L0.825,20.8696552 Z M0.825,0.834482759 L19.80675,0.834482759 L19.80675,11.99 L15.54675,8.03986207 C15.46575,7.96551724 15.35925,7.92834483 15.24975,7.93062069 C15.14025,7.93593103 15.0375,7.98448276 14.96325,8.06641379 L10.9215,12.5430345 L8.96475,10.5637931 C8.81025,10.4082759 8.5635,10.4006897 8.4,10.5455862 L1.494,16.6957241 L0.825,16.6957241 L0.825,0.834482759 Z M-8.01136935e-13,7.10542736e-15 L-8.01136935e-13,16.6957241 L-8.01136935e-13,21.7041379 L20.6325,21.7041379 L20.6325,16.6957241 L20.6325,7.10542736e-15 L-8.01136935e-13,7.10542736e-15 Z" id="Fill-3"></path>
                <path d="M5.364075,6.26066897 C6.176325,6.26066897 6.837075,6.92901379 6.837075,7.7506 C6.837075,8.57142759 6.176325,9.23977241 5.364075,9.23977241 C4.551825,9.23977241 3.891825,8.57142759 3.891825,7.7506 C3.891825,6.92977241 4.551825,6.26066897 5.364075,6.26066897 M5.364075,10.0750138 C6.631575,10.0750138 7.662075,9.03191034 7.662075,7.7506 C7.662075,6.46853103 6.631575,5.42618621 5.364075,5.42618621 C4.097325,5.42618621 3.066075,6.46853103 3.066075,7.7506 C3.066075,9.03191034 4.097325,10.0750138 5.364075,10.0750138" id="Fill-1"></path>
            </g>
        </g>
    </g>
</svg>