<?xml version="1.0" encoding="UTF-8"?>
<svg width="16px" height="13px" viewBox="0 0 16 13" version="1.1" xmlns="http://www.w3.org/2000/svg" xmlns:xlink="http://www.w3.org/1999/xlink">
    <!-- Generator: Sketch 56.2 (81672) - https://sketch.com -->
    <title>ico-speaker</title>
    <desc>Created with Sketch.</desc>
    <g id="Welcome" stroke="none" stroke-width="1" fill="none" fill-rule="evenodd">
        <g id="Explore-results-Real" transform="translate(-364.000000, -732.000000)" fill="#26288E">
            <g id="ico-speaker" transform="translate(364.000000, 732.000000)">
                <path d="M13.8154348,12.7363426 C13.6849111,12.8949944 13.4961299,12.990502 13.2941939,12.9991206 C13.284285,12.9994723 13.2742053,13 13.2637839,13 C13.072611,13 12.889126,12.9222571 12.7533061,12.7824255 L12.6586592,12.6848072 C12.3936823,12.4120036 12.3755729,11.9761511 12.6164611,11.6810096 C13.7807538,10.2556064 14.4220971,8.44535845 14.4220971,6.58339917 C14.4220971,4.64668714 13.7353096,2.78226542 12.4890125,1.33364492 C12.236507,1.03955878 12.2491494,0.594384123 12.5180557,0.316479753 L12.6128734,0.218861446 C12.7533061,0.073577263 12.935766,-0.00645215989 13.1450483,0.000407504928 C13.3435674,0.0062118367 13.5314944,0.0966187012 13.6635557,0.249641993 C15.1702171,1.99586641 16,4.24548469 16,6.58339917 C16.0003416,8.83284157 15.2245451,11.0179086 13.8154348,12.7363426 L13.8154348,12.7363426 Z M10.7669427,10.5220158 C10.7507607,10.5230921 10.73505,10.5238095 10.7191821,10.5238095 C10.5438506,10.5238095 10.3748033,10.445067 10.2499032,10.3021108 L10.1609805,10.2004092 C9.92814776,9.93512402 9.90096822,9.514865 10.0970379,9.21316816 C10.5941249,8.44798463 10.8564938,7.54074172 10.8564938,6.58937429 C10.8564938,5.56590096 10.5586187,4.60592388 9.99491829,3.81311769 C9.78015284,3.51177959 9.80010545,3.07412188 10.0406365,2.79968897 L10.1292449,2.6983461 C10.2616862,2.54695957 10.4395315,2.46445033 10.6316735,2.47754419 C10.8191023,2.48830627 10.9939625,2.58893167 11.1125784,2.75466762 C11.8946577,3.84701823 12.3076923,5.1732646 12.3076923,6.58955366 C12.3076923,7.90862531 11.9424182,9.16420072 11.2511469,10.2201396 C11.135516,10.3959202 10.9590847,10.5062315 10.7669427,10.5220158 L10.7669427,10.5220158 Z M7.99982813,11.6223664 C7.99982813,11.9166439 7.83723978,12.1839893 7.58252949,12.3085949 C7.48387651,12.3574317 7.37852064,12.3809524 7.2735085,12.3809524 C7.10765463,12.3809524 6.94300385,12.3211632 6.81032075,12.2062532 L2.84031194,8.7695444 L0.726147765,8.7695444 C0.325176703,8.7699035 -2.94875235e-13,8.43020061 -2.94875235e-13,8.01149705 L-2.94875235e-13,4.98900317 C-2.94875235e-13,4.56994051 0.325176703,4.23023762 0.726147765,4.23023762 L2.84048381,4.23023762 L6.81049262,0.793708405 C7.02739167,0.605902263 7.32816293,0.565863286 7.58270136,0.691546173 C7.83723978,0.816331325 8,1.08385633 8,1.37795428 L7.99982813,11.6223664 Z" id="Fill-1"></path>
            </g>
        </g>
    </g>
</svg>