<?xml version="1.0" encoding="UTF-8"?>
<svg width="81px" height="81px" viewBox="0 0 81 81" version="1.1" xmlns="http://www.w3.org/2000/svg" xmlns:xlink="http://www.w3.org/1999/xlink">
    <!-- Generator: Sketch 54.1 (76490) - https://sketchapp.com -->
    <title>bot-search</title>
    <desc>Created with Sketch.</desc>
    <g id="Welcome" stroke="none" stroke-width="1" fill="none" fill-rule="evenodd">
        <g id="Search-Category-Real" transform="translate(-1193.000000, -284.000000)">
            <g id="Search-field" transform="translate(150.000000, 268.000000)">
                <g id="bot-search" transform="translate(1043.000000, 16.000000)">
                    <rect id="Rectangle" fill="#F3106A" x="0" y="0" width="81" height="81" rx="40.5"></rect>
                    <g id="lupa-real-blanca" transform="translate(22.000000, 22.000000)" fill="#FFFFFF">
                        <path d="M3.40789474,14.6052632 C3.40789474,8.43091634 8.43091634,3.40789474 14.6052632,3.40789474 C20.77961,3.40789474 25.8026316,8.43091634 25.8026316,14.6052632 C25.8026316,20.77961 20.77961,25.8026316 14.6052632,25.8026316 C8.43091634,25.8026316 3.40789474,20.77961 3.40789474,14.6052632 Z M26.0262365,23.8456832 C28.0651044,21.328693 29.2919304,18.1301193 29.2919304,14.6462543 C29.2919304,6.57046428 22.7215958,0 14.6459652,0 C6.5703346,0 0,6.57046428 0,14.6462543 C0,22.7220442 6.5703346,29.2915348 14.6459652,29.2915348 C18.1297615,29.2915348 21.3292457,28.0646846 23.8461862,26.0267502 L34.5945448,36.7743472 C34.8944356,37.0752176 35.3832186,37.0752176 35.6840831,36.7743472 L36.7736214,35.6838137 C37.0754595,35.383917 37.0754595,34.8951243 36.7736214,34.5942539 L26.0262365,23.8456832 Z" id="Fill-1"></path>
                    </g>
                </g>
            </g>
        </g>
    </g>
</svg>