<?xml version="1.0" encoding="UTF-8"?>
<svg width="21px" height="20px" viewBox="0 0 21 20" version="1.1" xmlns="http://www.w3.org/2000/svg" xmlns:xlink="http://www.w3.org/1999/xlink">
    <!-- Generator: Sketch 54.1 (76490) - https://sketchapp.com -->
    <title>ico-calendar-violet</title>
    <desc>Created with Sketch.</desc>
    <defs>
        <polygon id="path-1" points="0 0 19.9770588 0 19.9770588 19.6323529 0 19.6323529"></polygon>
    </defs>
    <g id="Welcome" stroke="none" stroke-width="1" fill="none" fill-rule="evenodd">
        <g id="Explore-results-list-Real" transform="translate(-1052.000000, -551.000000)">
            <g id="Menu-categorias-body" transform="translate(1027.000000, 335.000000)">
                <g id="ico-calendar-oscuro" transform="translate(25.500000, 216.000000)">
                    <g id="Group-7">
                        <mask id="mask-2" fill="white">
                            <use xlink:href="#path-1"></use>
                        </mask>
                        <g id="Clip-2"></g>
                        <path d="M0.688823529,18.9435294 L19.2882353,18.9435294 L19.2882353,5.85529412 L0.688823529,5.85529412 L0.688823529,18.9435294 Z M14.7758824,1.37764706 C14.6158824,0.592941176 13.92,0 13.0882353,0 C12.8982353,0 12.7441176,0.154117647 12.7441176,0.344117647 C12.7441176,0.534705882 12.8982353,0.688823529 13.0882353,0.688823529 C13.6582353,0.688823529 14.1217647,1.15235294 14.1217647,1.72235294 C14.1217647,2.29176471 13.6582353,2.75529412 13.0882353,2.75529412 C12.8982353,2.75529412 12.7441176,2.90941176 12.7441176,3.1 C12.7441176,3.29058824 12.8982353,3.44411765 13.0882353,3.44411765 C13.92,3.44411765 14.6158824,2.85176471 14.7758824,2.06647059 L19.2882353,2.06647059 L19.2882353,5.16647059 L0.688823529,5.16647059 L0.688823529,2.06647059 L5.51117647,2.06647059 L6.54411765,2.06647059 C6.73411765,2.06647059 6.88882353,1.91235294 6.88882353,1.72235294 C6.88882353,1.53176471 6.73411765,1.37764706 6.54411765,1.37764706 L5.91882353,1.37764706 C6.06117647,0.977647059 6.44,0.688823529 6.88882353,0.688823529 C7.45823529,0.688823529 7.92176471,1.15235294 7.92176471,1.72235294 C7.92176471,2.29176471 7.45823529,2.75529412 6.88882353,2.75529412 C6.69882353,2.75529412 6.54411765,2.90941176 6.54411765,3.1 C6.54411765,3.29058824 6.69882353,3.44411765 6.88882353,3.44411765 C7.83823529,3.44411765 8.61058824,2.67176471 8.61058824,1.72235294 C8.61058824,0.772352941 7.83823529,0 6.88882353,0 C6.05705882,0 5.36117647,0.592941176 5.20117647,1.37764706 L0,1.37764706 L0,5.85529412 L0,19.6323529 L19.9770588,19.6323529 L19.9770588,5.85529412 L19.9770588,1.37764706 L14.7758824,1.37764706 Z" id="Fill-1" fill="#26288E" mask="url(#mask-2)"></path>
                        <path d="M4.23423529,10.2320588 C4.30129412,10.2991176 4.38952941,10.3326471 4.47776471,10.3326471 C4.56541176,10.3326471 4.65364706,10.2991176 4.72129412,10.2320588 L6.19952941,8.75323529 L6.19952941,16.5326471 L5.16658824,16.5326471 C4.97658824,16.5326471 4.82247059,16.6867647 4.82247059,16.8767647 C4.82247059,17.0673529 4.97658824,17.2214706 5.16658824,17.2214706 L7.92188235,17.2214706 C8.11188235,17.2214706 8.266,17.0673529 8.266,16.8767647 C8.266,16.6867647 8.11188235,16.5326471 7.92188235,16.5326471 L6.88894118,16.5326471 L6.88894118,7.92205882 C6.88894118,7.87735294 6.87952941,7.83205882 6.86188235,7.79029412 C6.82717647,7.70617647 6.76011765,7.63852941 6.67541176,7.60382353 C6.59188235,7.56911765 6.49658824,7.56911765 6.41247059,7.60382353 C6.37011765,7.62147059 6.33247059,7.64617647 6.30011765,7.67852941 L4.23423529,9.745 C4.09952941,9.87970588 4.09952941,10.0973529 4.23423529,10.2320588" id="Fill-3" fill="#26288E" mask="url(#mask-2)"></path>
                        <path d="M13.0882353,11.7107059 C12.1388235,11.7107059 11.3658824,10.9383529 11.3658824,9.98835294 C11.3658824,9.03894118 12.1388235,8.26658824 13.0882353,8.26658824 C14.0376471,8.26658824 14.8105882,9.03894118 14.8105882,9.98835294 C14.8105882,10.9383529 14.0376471,11.7107059 13.0882353,11.7107059 M13.0882353,16.5324706 C12.1388235,16.5324706 11.3658824,15.7601176 11.3658824,14.8107059 C11.3658824,14.6195294 11.2123529,14.466 11.0217647,14.466 C10.8317647,14.466 10.6770588,14.6195294 10.6770588,14.8107059 C10.6770588,16.1395294 11.7588235,17.2212941 13.0882353,17.2212941 C14.4182353,17.2212941 15.4994118,16.1395294 15.4994118,14.8107059 L15.4994118,9.98835294 C15.4994118,8.65952941 14.4182353,7.57776471 13.0882353,7.57776471 C11.7588235,7.57776471 10.6770588,8.65952941 10.6770588,9.98835294 C10.6770588,11.3177647 11.7588235,12.3995294 13.0882353,12.3995294 C13.7623529,12.3995294 14.3723529,12.1201176 14.8105882,11.6730588 L14.8105882,14.8107059 C14.8105882,15.7601176 14.0376471,16.5324706 13.0882353,16.5324706" id="Fill-4" fill="#26288E" mask="url(#mask-2)"></path>
                        <path d="M8.95505882,0.688764706 C9.52505882,0.688764706 9.98858824,1.15229412 9.98858824,1.72229412 C9.98858824,2.29170588 9.52505882,2.75523529 8.95505882,2.75523529 C8.76505882,2.75523529 8.61094118,2.90935294 8.61094118,3.09994118 C8.61094118,3.29052941 8.76505882,3.44464706 8.95505882,3.44464706 C9.90447059,3.44464706 10.6774118,2.67170588 10.6774118,1.72229412 C10.6774118,0.772882353 9.90447059,-5.88235294e-05 8.95505882,-5.88235294e-05 C8.76505882,-5.88235294e-05 8.61094118,0.154058824 8.61094118,0.344647059 C8.61094118,0.534647059 8.76505882,0.688764706 8.95505882,0.688764706" id="Fill-5" fill="#26288E" mask="url(#mask-2)"></path>
                        <path d="M11.0219412,0.688764706 C11.5913529,0.688764706 12.0548824,1.15229412 12.0548824,1.72229412 C12.0548824,2.29170588 11.5913529,2.75523529 11.0219412,2.75523529 C10.8319412,2.75523529 10.6772353,2.90935294 10.6772353,3.09994118 C10.6772353,3.29052941 10.8319412,3.44464706 11.0219412,3.44464706 C11.9713529,3.44464706 12.7442941,2.67170588 12.7442941,1.72229412 C12.7442941,0.772882353 11.9713529,-5.88235294e-05 11.0219412,-5.88235294e-05 C10.8319412,-5.88235294e-05 10.6772353,0.154058824 10.6772353,0.344647059 C10.6772353,0.534647059 10.8319412,0.688764706 11.0219412,0.688764706" id="Fill-6" fill="#26288E" mask="url(#mask-2)"></path>
                    </g>
                </g>
            </g>
        </g>
    </g>
</svg>