<?xml version="1.0" encoding="UTF-8"?>
<svg width="50px" height="49px" viewBox="0 0 18 19" version="1.1" xmlns="http://www.w3.org/2000/svg" xmlns:xlink="http://www.w3.org/1999/xlink">
    <!-- Generator: Sketch 54.1 (76490) - https://sketchapp.com -->
    <title>ico-people-violet</title>
    <desc>Created with Sketch.</desc>
    <g id="Welcome" stroke="none" stroke-width="1" fill="none" fill-rule="evenodd">
        <g id="Explore-results-list-Real" transform="translate(-1053.000000, -479.000000)" fill="#26288E">
            <g id="Menu-categorias-body" transform="translate(1027.000000, 335.000000)">
                <g id="ico-people-oscuro" transform="translate(26.000000, 144.500000)">
                    <path d="M9,9 C6.90624,9 5.20344,7.29648 5.20344,5.20344 C5.20344,3.10968 6.90624,1.40616 9,1.40616 C11.09304,1.40616 12.79656,3.10968 12.79656,5.20344 C12.79656,7.29648 11.09304,9 9,9 M15.36408,11.63592 C14.38344,10.656 13.21704,9.93024 11.94408,9.49104 C13.30704,8.55144 14.20344,6.9804 14.20344,5.20344 C14.20344,2.33424 11.8692,0 9,0 C6.13152,0 3.79656,2.33424 3.79656,5.20344 C3.79656,6.9804 4.69296,8.55144 6.05592,9.49104 C4.78296,9.93024 3.61584,10.656 2.63592,11.63592 C0.936,13.33584 0,15.59592 0,18 L1.40616,18 C1.40616,13.8132 4.8132,10.40616 9,10.40616 C13.1868,10.40616 16.59384,13.8132 16.59384,18 L18,18 C18,15.59592 17.06328,13.33584 15.36408,11.63592" id="Fill-1"></path>
                </g>
            </g>
        </g>
    </g>
</svg>
