<?xml version="1.0" encoding="UTF-8"?>
<svg width="18px" height="19px" viewBox="0 0 18 19" version="1.1" xmlns="http://www.w3.org/2000/svg" xmlns:xlink="http://www.w3.org/1999/xlink">
    <!-- Generator: Sketch 54.1 (76490) - https://sketchapp.com -->
    <title>ico-linkedin</title>
    <desc>Created with Sketch.</desc>
    <g id="Symbols" stroke="none" stroke-width="1" fill="none" fill-rule="evenodd">
        <g id="footer-real" transform="translate(-1183.000000, -34.000000)" fill="#CBCBCB">
            <g id="ico-linkedin" transform="translate(1183.000000, 34.000000)">
                <path d="M0.229016847,19 L4.08700025,19 L4.08700025,6.17967475 L0.229016847,6.17967475 L0.229016847,19 Z M2.18335429,0 C0.863565502,0 0,0.955949687 0,2.21388348 C0,3.44481869 0.838219764,4.4307668 2.13175761,4.4307668 L2.15800855,4.4307668 C3.50404828,4.4307668 4.34045763,3.44481869 4.34045763,2.21388348 C4.3160171,0.955949687 3.50404828,0 2.18335429,0 L2.18335429,0 Z M18,11.6483869 L18,19 L14.1420166,19 L14.1420166,12.141361 C14.1420166,10.4184517 13.5844104,9.24251355 12.1876792,9.24251355 C11.1213477,9.24251355 10.4867991,10.0344719 10.207996,10.8014315 C10.1057078,11.0754171 10.0803621,11.456397 10.0803621,11.8403768 L10.0803621,19 L6.22056827,19 C6.22056827,19 6.27307015,7.38361139 6.22056827,6.17967475 L10.0794569,6.17967475 L10.0794569,7.99657913 C10.07131,8.01057839 10.0613528,8.02457765 10.0541111,8.03857692 L10.0794569,8.03857692 L10.0794569,7.99657913 C10.5918029,7.12462502 11.5078703,5.8786906 13.5581594,5.8786906 C16.096354,5.8786906 18,7.71059418 18,11.6483869 L18,11.6483869 Z" id="Fill-1"></path>
            </g>
        </g>
    </g>
</svg>