<?xml version="1.0" encoding="UTF-8"?>
<svg width="16px" height="22px" viewBox="0 0 16 22" version="1.1" xmlns="http://www.w3.org/2000/svg" xmlns:xlink="http://www.w3.org/1999/xlink">
    <!-- Generator: Sketch 56.2 (81672) - https://sketch.com -->
    <title>ico-birth</title>
    <desc>Created with Sketch.</desc>
    <g id="Welcome" stroke="none" stroke-width="1" fill="none" fill-rule="evenodd">
        <g id="Explore-results-Real" transform="translate(-366.000000, -825.000000)" fill="#26288E">
            <g id="ico-birth" transform="translate(366.000000, 825.000000)">
                <path d="M11.434825,12.6142613 L11.4813465,10.4913817 L14.1146923,12.9048735 C14.3289208,13.1051984 14.6037422,13.2 14.8788507,13.2 C15.1760713,13.2 15.4781738,13.0831908 15.698433,12.852394 C16.1205724,12.405472 16.0967373,11.7099778 15.6444451,11.2949384 C15.6444451,11.2949384 12.6260047,8.07196477 12.1920914,7.69642613 C11.3888778,6.99669973 10.2111951,6.6 8.3006553,6.6 L7.70133222,6.6 C5.78878227,6.6 4.6128225,6.99669973 3.80673726,7.69501539 C3.37425975,8.07055404 0.355245096,11.2949384 0.355245096,11.2949384 C-0.0950369343,11.7096956 -0.122030883,12.405472 0.301544369,12.852394 C0.522090669,13.0831908 0.821895796,13.2 1.12112658,13.2 C1.39623512,13.2 1.67134366,13.1051984 1.88700807,12.9048735 L4.51920519,10.4927924 L4.56543951,12.6153899 L11.4353993,12.6153899 L11.4353993,12.6142613 L11.434825,12.6142613 Z M8.3831614,5.86666667 C10.0647778,5.86666667 11.4285714,4.55631413 11.4285714,2.92921106 C11.4285714,1.31168231 10.0650539,0 8.3831614,0 C6.70044051,0 5.33333333,1.31168231 5.33333333,2.92921106 C5.33333333,4.55498436 6.69878374,5.86666667 8.3831614,5.86666667 L8.3831614,5.86666667 Z M4.7718532,13.9333333 L4.7718532,13.9333333 C4.7718532,13.9333333 2.71046448,16.0389061 2.71046448,16.0419492 C2.04669188,16.7175252 2.21698052,17.9051778 2.83431076,18.551429 L5.7267732,21.608673 C6.83514307,22.7387827 8.32157001,21.1701849 7.24742082,20.0760396 L5.42313254,18.213641 L7.19799094,16.4057422 L4.7718532,13.9333333 L4.7718532,13.9333333 Z M11.222807,13.9333333 C11.222807,13.9333333 13.2891195,16.0389061 13.294555,16.0419492 C13.9530681,16.7175252 13.7826646,17.9051778 13.1581235,18.551429 L10.2762114,21.608673 C9.16274533,22.7387827 7.67558736,21.1701849 8.75589674,20.0760396 L10.5841335,18.213641 L8.79421715,16.4057422 L11.222807,13.9333333 Z" id="Fill-1"></path>
            </g>
        </g>
    </g>
</svg>