<?xml version="1.0" encoding="UTF-8"?>
<svg width="13px" height="18px" viewBox="0 0 13 18" version="1.1" xmlns="http://www.w3.org/2000/svg" xmlns:xlink="http://www.w3.org/1999/xlink">
    <!-- Generator: Sketch 56.2 (81672) - https://sketch.com -->
    <title>ico-light-concept</title>
    <desc>Created with Sketch.</desc>
    <g id="Welcome" stroke="none" stroke-width="1" fill="none" fill-rule="evenodd">
        <g id="Explore-results-Real" transform="translate(-181.000000, -629.000000)" fill="#26288E">
            <g id="ico-light-concept" transform="translate(181.000000, 629.000000)">
                <path d="M10.361,10.15875 C9.44243529,11.32245 8.94078824,12.6219 8.90454118,13.9263 L7.75503529,13.9263 L8.14274118,8.65215 L9.13227059,6.7443 C9.20690588,6.60045 9.19482353,6.4323 9.10045882,6.2985 C9.00609412,6.16455 8.84229412,6.0834 8.66656471,6.0834 L4.23172941,6.0834 C4.05584706,6.0834 3.8922,6.16455 3.79783529,6.2985 C3.70347059,6.4323 3.69138824,6.60045 3.76602353,6.74415 L4.75555294,8.65215 L5.14325882,13.92615 L3.99375294,13.92615 C3.95750588,12.62175 3.45585882,11.32245 2.53729412,10.15875 C1.59242353,8.96175 1.02837647,7.44 1.02837647,6.0882 C1.02837647,3.243 3.46014118,0.9282 6.44907059,0.9282 C9.438,0.9282 11.8696118,3.243 11.8696118,6.0882 C11.8697647,7.44015 11.3057176,8.9619 10.361,10.15875 M5.72810588,8.3376 L5.04017647,7.01175 L7.85811765,7.01175 L7.17049412,8.3376 C7.14327059,8.38995 7.12721176,8.4462 7.12292941,8.5038 L6.72421176,13.9263 L6.17423529,13.9263 L5.77536471,8.5038 C5.77108235,8.4462 5.75502353,8.38995 5.72810588,8.3376 M8.90224706,16.99695 L3.99589412,16.99695 L3.99589412,16.38975 L6.44907059,16.38975 C6.73308235,16.38975 6.96341176,16.182 6.96341176,15.92565 C6.96341176,15.6693 6.73308235,15.46155 6.44907059,15.46155 L3.99589412,15.46155 L3.99589412,14.8545 L8.9024,14.8545 L8.90301176,16.9968 C8.90301176,16.99695 8.90285882,16.99695 8.90224706,16.99695 M6.44922353,0 C2.89318824,0 -4.40536496e-13,2.73105 -4.40536496e-13,6.0882 C-4.40536496e-13,7.64895 0.619564706,9.32895 1.69963529,10.69725 C2.52918824,11.74815 2.96751765,12.9174 2.96751765,14.0787 L2.96751765,16.9968 C2.96751765,17.5086 3.42894118,17.925 3.99604706,17.925 L8.9024,17.925 C9.46950588,17.925 9.93077647,17.5086 9.93077647,16.9968 L9.93077647,14.0787 C9.93077647,12.91755 10.3694118,11.74815 11.1988118,10.69725 C12.2788824,9.32895 12.8982941,7.64895 12.8982941,6.0882 C12.8982941,2.73105 10.0052588,0 6.44922353,0" id="Fill-1"></path>
            </g>
        </g>
    </g>
</svg>