<?xml version="1.0" encoding="UTF-8"?>
<svg width="35px" height="33px" viewBox="0 0 35 33" version="1.1" xmlns="http://www.w3.org/2000/svg" xmlns:xlink="http://www.w3.org/1999/xlink">
    <!-- Generator: Sketch 54.1 (76490) - https://sketchapp.com -->
    <title>ico-download</title>
    <desc>Created with Sketch.</desc>
    <g id="Symbols" stroke="none" stroke-width="1" fill="none" fill-rule="evenodd">
        <g id="card-resources" transform="translate(-23.000000, -290.000000)" fill="#80CFE3">
            <g id="ico-download">
                <g transform="translate(23.000000, 290.000000)">
                    <path d="M33.8,15.7221 C33.246,15.7221 32.803,16.1651 32.803,16.7191 L32.803,25.7871 C32.803,28.2541 30.794,30.2551 28.335,30.2551 L6.462,30.2551 C3.995,30.2551 1.994,28.2461 1.994,25.7871 L1.994,16.5711 C1.994,16.0171 1.551,15.5741 0.997,15.5741 C0.444,15.5741 -6.71462885e-13,16.0171 -6.71462885e-13,16.5711 L-6.71462885e-13,25.7871 C-6.71462885e-13,29.3541 2.903,32.2491 6.462,32.2491 L28.335,32.2491 C31.903,32.2491 34.797,29.3471 34.797,25.7871 L34.797,16.7191 C34.797,16.1721 34.354,15.7221 33.8,15.7221" id="Fill-1"></path>
                    <path d="M16.697,24.333 C16.889,24.524 17.148,24.628 17.399,24.628 C17.65,24.628 17.908,24.532 18.1,24.333 L24.437,17.996 C24.827,17.605 24.827,16.978 24.437,16.586 C24.045,16.195 23.417,16.195 23.026,16.586 L18.396,21.224 L18.396,0.997 C18.396,0.443 17.952,-3.55271368e-14 17.399,-3.55271368e-14 C16.845,-3.55271368e-14 16.402,0.443 16.402,0.997 L16.402,21.224 L11.764,16.586 C11.373,16.195 10.745,16.195 10.354,16.586 C9.962,16.978 9.962,17.605 10.354,17.996 L16.697,24.333 Z" id="Fill-4"></path>
                </g>
            </g>
        </g>
    </g>
</svg>