<?xml version="1.0" encoding="UTF-8"?>
<svg width="17px" height="15px" viewBox="0 0 17 15" version="1.1" xmlns="http://www.w3.org/2000/svg" xmlns:xlink="http://www.w3.org/1999/xlink">
    <!-- Generator: Sketch 56.2 (81672) - https://sketch.com -->
    <title>ico-video</title>
    <desc>Created with Sketch.</desc>
    <g id="Welcome" stroke="none" stroke-width="1" fill="none" fill-rule="evenodd">
        <g id="Explore-results-Real" transform="translate(-470.000000, -730.000000)" fill="#26288E">
            <g id="ico-video" transform="translate(470.000000, 730.000000)">
                <path d="M9.83909302,6.22016279 C8.40595349,6.22016279 7.24393023,5.05813953 7.24393023,3.625 C7.24393023,2.19186047 8.40595349,1.03051163 9.83909302,1.03051163 C11.2715581,1.03051163 12.4342558,2.19186047 12.4342558,3.625 C12.4342558,5.05881395 11.2722326,6.22016279 9.83909302,6.22016279 M3.10704651,6.21476744 C1.96255814,6.21476744 1.03523256,5.28676744 1.03523256,4.14295349 C1.03523256,2.99913953 1.96255814,2.07181395 3.10704651,2.07181395 C4.25086047,2.07181395 5.17818605,2.99913953 5.17818605,4.14295349 C5.17818605,5.28676744 4.25086047,6.21476744 3.10704651,6.21476744 M15.5352326,6.21476744 L12.428186,8.28590698 C12.428186,7.65734884 12.1422326,7.10095349 11.7004884,6.72125581 C12.7525814,6.08662791 13.464093,4.94348837 13.464093,3.625 C13.464093,1.62332558 11.8414419,0 9.83909302,0 C7.83674419,0 6.21409302,1.62332558 6.21409302,3.625 C6.21409302,4.64067442 6.63425581,5.55653488 7.30732558,6.21476744 L5.40748837,6.21476744 C5.90386047,5.66376744 6.21409302,4.94213953 6.21409302,4.14295349 C6.21409302,2.42655814 4.82344186,1.03590698 3.10704651,1.03590698 C1.39065116,1.03590698 3.51718654e-13,2.42655814 3.51718654e-13,4.14295349 C3.51718654e-13,5.07972093 0.422860465,5.90925581 1.07772093,6.47846512 C0.438372093,6.83118605 3.51718654e-13,7.5035814 3.51718654e-13,8.28590698 L3.51718654e-13,12.4288605 C3.51718654e-13,13.5726744 0.927325581,14.5 2.07113953,14.5 L10.3570465,14.5 C11.5008605,14.5 12.428186,13.5726744 12.428186,12.4288605 L15.5352326,14.5 C16.107814,14.5 16.5711395,14.0366744 16.5711395,13.4647674 L16.5711395,7.25 C16.5711395,6.67809302 16.107814,6.21476744 15.5352326,6.21476744" id="Fill-1"></path>
            </g>
        </g>
    </g>
</svg>