<?xml version="1.0" encoding="UTF-8"?>
<svg width="19px" height="16px" viewBox="0 0 19 16" version="1.1" xmlns="http://www.w3.org/2000/svg" xmlns:xlink="http://www.w3.org/1999/xlink">
    <!-- Generator: Sketch 54.1 (76490) - https://sketchapp.com -->
    <title>ico-twitter</title>
    <desc>Created with Sketch.</desc>
    <defs>
        <polygon id="path-1" points="0 0.000266666667 18.3175 0.000266666667 18.3175 15.8711111 0 15.8711111"></polygon>
    </defs>
    <g id="Symbols" stroke="none" stroke-width="1" fill="none" fill-rule="evenodd">
        <g id="footer-real" transform="translate(-1218.000000, -37.000000)">
            <g id="ico-twitter" transform="translate(1218.000000, 37.000000)">
                <g id="Group-3">
                    <mask id="mask-2" fill="white">
                        <use xlink:href="#path-1"></use>
                    </mask>
                    <g id="Clip-2"></g>
                    <path d="M18.3175,1.8776 C17.6433333,2.19671111 16.92,2.41271111 16.16,2.50871111 C16.9366667,2.0136 17.5308333,1.22693333 17.8125,0.292711111 C17.0841667,0.752266667 16.2808333,1.0856 15.4241667,1.26604444 C14.7383333,0.486488889 13.7633333,0.000266666667 12.6816667,0.000266666667 C10.6066667,0.000266666667 8.92416667,1.79493333 8.92416667,4.00737778 C8.92416667,4.32115556 8.95666667,4.62693333 9.02083333,4.92026667 C5.89833333,4.75315556 3.12916667,3.1576 1.27666667,0.732711111 C0.9525,1.32293333 0.768333333,2.01182222 0.768333333,2.74693333 C0.768333333,4.13715556 1.43166667,5.36471111 2.43916667,6.08293333 C1.82333333,6.06071111 1.24416667,5.88026667 0.7375,5.57982222 L0.7375,5.6296 C0.7375,7.57093333 2.0325,9.19137778 3.75166667,9.56026667 C3.43666667,9.65093333 3.10416667,9.69982222 2.76083333,9.69982222 C2.51833333,9.69982222 2.28333333,9.67493333 2.05333333,9.62604444 C2.5325,11.2189333 3.91916667,12.3780444 5.56333333,12.4091556 C4.2775,13.4838222 2.65666667,14.1229333 0.896666667,14.1229333 C0.5925,14.1229333 0.294166667,14.1024889 5.06261699e-13,14.0678222 C1.66333333,15.2073778 3.6375,15.8713778 5.76,15.8713778 C12.6725,15.8713778 16.4508333,9.76471111 16.4508333,4.46782222 L16.4383333,3.94871111 C17.1766667,3.38693333 17.815,2.68115556 18.3175,1.8776" id="Fill-1" fill="#CBCBCB" mask="url(#mask-2)"></path>
                </g>
            </g>
        </g>
    </g>
</svg>