<?xml version="1.0" encoding="UTF-8"?>
<svg width="18px" height="18px" viewBox="0 0 18 18" version="1.1" xmlns="http://www.w3.org/2000/svg" xmlns:xlink="http://www.w3.org/1999/xlink">
    <!-- Generator: Sketch 56.2 (81672) - https://sketch.com -->
    <title>ico-3D</title>
    <desc>Created with Sketch.</desc>
    <g id="Welcome" stroke="none" stroke-width="1" fill="none" fill-rule="evenodd">
        <g id="Explore-results-Real" transform="translate(-573.000000, -729.000000)" fill="#26288E">
            <g id="ico-3D" transform="translate(573.000000, 729.000000)">
                <path d="M16.5056332,13.5593587 L9.76565376,16.1642352 L9.76565376,7.21918247 L16.5056332,4.62928748 L16.5056332,13.5593587 Z M1.49451651,13.5593587 L1.49451651,4.62928748 L8.23449591,7.19711879 L8.23449591,16.1642352 L1.49451651,13.5593587 Z M9.00007484,1.52348366 L15.0514959,3.55361485 L9.00007484,5.85613719 L2.9486538,3.55361485 L9.00007484,1.52348366 Z M17.3155738,2.77621053 L9.22841494,0.0277838966 C9.03681609,-0.00926129887 8.88223066,-0.00926129887 8.73145543,0.0277838966 L0.640758566,2.77975162 C-0.018134636,2.98241063 4.97576077e-05,3.50186054 4.97576077e-05,3.51656966 L4.97576077e-05,14.0937901 C4.97576077e-05,14.399413 0.191698763,14.6682631 0.497059429,14.782395 L8.73145543,17.9620168 C8.87869261,18.0246667 9.19140153,17.999062 9.26869424,17.9620168 L17.5030902,14.7862084 C17.8087231,14.6720765 18.0000498,14.4032265 18.0000498,14.0973312 L18.0000498,3.51656966 C18.0000498,3.28803349 17.860433,2.84594266 17.3155738,2.77621053 L17.3155738,2.77621053 Z" id="Fill-1"></path>
            </g>
        </g>
    </g>
</svg>