<?xml version="1.0" encoding="UTF-8"?>
<svg width="15px" height="21px" viewBox="0 0 15 21" version="1.1" xmlns="http://www.w3.org/2000/svg" xmlns:xlink="http://www.w3.org/1999/xlink">
    <!-- Generator: Sketch 56.2 (81672) - https://sketch.com -->
    <title>ico-man-pointer</title>
    <desc>Created with Sketch.</desc>
    <g id="Welcome" stroke="none" stroke-width="1" fill="none" fill-rule="evenodd">
        <g id="Explore-results-Real" transform="translate(-180.000000, -530.000000)" fill="#26288E">
            <g id="ico-man-pointer" transform="translate(180.000000, 530.000000)">
                <path d="M12.0992064,19.0053111 C10.8809482,19.4092889 9.24753105,19.6315778 7.50007821,19.6315778 C5.75246895,19.6315778 4.11905184,19.4091333 2.90079361,19.0053111 C1.74870426,18.6235778 1.37609369,18.2021778 1.37609369,18.0578222 C1.37609369,17.9134667 1.74870426,17.4920667 2.90079361,17.1103333 C3.44140743,16.9311333 4.0644586,16.7880222 4.74241587,16.6839556 L4.90212846,17.7997556 C5.00849923,18.5937111 5.69021076,19.2148444 6.45608034,19.2148444 L8.33571451,19.2148444 C9.10158409,19.2148444 9.78313919,18.5937111 9.88966639,17.7999111 L10.0536025,16.6544 C10.8107122,16.7601778 11.5047815,16.9134 12.0992064,17.1103333 C13.2511393,17.4920667 13.6239063,17.9134667 13.6239063,18.0578222 C13.6239063,18.2021778 13.2511393,18.6235778 12.0992064,19.0053111 L12.0992064,19.0053111 Z M3.93790867,11.2197556 L4.4043758,7.966 C4.5238865,7.18371111 5.21748652,6.52291111 5.9187515,6.52291111 L8.87335621,6.52291111 C9.57462118,6.52291111 10.2680648,7.18371111 10.3867933,7.95977778 L10.8540426,11.2196 L9.57759331,12.0078 C9.40427152,12.1145111 9.28788937,12.2921556 9.25926312,12.4926667 L8.52671262,17.6102889 C8.52639977,17.6129333 8.52593048,17.6154222 8.52561763,17.6182222 C8.50841059,17.7499778 8.3906206,17.8462667 8.33571451,17.8462667 L6.45608034,17.8462667 C6.40117425,17.8462667 6.28338426,17.7499778 6.26602079,17.6182222 C6.26570794,17.6154222 6.26539508,17.6129333 6.2649258,17.6102889 L5.53253173,12.4926667 C5.50374905,12.2921556 5.38721048,12.1145111 5.21420154,12.0078 L3.93790867,11.2197556 Z M7.39605385,1.36842222 C8.18429258,1.36842222 8.82533293,2.01226667 8.82533293,2.80373333 C8.82533293,3.59504444 8.18413615,4.23904444 7.39605385,4.23904444 C6.60781512,4.23904444 5.96646192,3.5952 5.96646192,2.80373333 C5.96661835,2.01242222 6.60781512,1.36842222 7.39605385,1.36842222 L7.39605385,1.36842222 Z M10.2477292,15.2985778 L10.5763836,13.0019556 L11.9615501,12.1467111 C12.1936887,12.0036 12.3185179,11.7376 12.2798803,11.4689556 L11.7481828,7.76051111 C11.5310613,6.33997778 10.2685341,5.18202222 8.92044092,5.15573333 C9.69069047,4.65531111 10.201583,3.78824444 10.201583,2.80373333 C10.201583,1.25782222 8.94296649,0 7.39605385,0 C5.84882836,0 4.59036823,1.25782222 4.59036823,2.80373333 C4.59036823,3.78824444 5.10126081,4.65531111 5.87151036,5.15573333 C4.52357364,5.18217778 3.26088997,6.34013333 3.04298631,7.76673333 L2.512071,11.4689556 C2.47358981,11.7376 2.59841904,12.0036 2.83040118,12.1467111 L4.21556768,13.0019556 L4.54844563,15.3281333 C2.04622957,15.7047333 0,16.5912444 0,18.0578222 C-0.000156427611,20.0792667 3.8876954,21 7.50007821,21 C11.1121482,21 15,20.0792667 15,18.0578222 C15,16.5518889 12.8417683,15.6572889 10.2477292,15.2985778 L10.2477292,15.2985778 Z" id="Fill-1"></path>
            </g>
        </g>
    </g>
</svg>