<?xml version="1.0" encoding="UTF-8"?>
<svg width="23px" height="23px" viewBox="0 0 23 23" version="1.1" xmlns="http://www.w3.org/2000/svg" xmlns:xlink="http://www.w3.org/1999/xlink">
    <!-- Generator: Sketch 54.1 (76490) - https://sketchapp.com -->
    <title>ico-shown-violet</title>
    <desc>Created with Sketch.</desc>
    <g id="Welcome" stroke="none" stroke-width="1" fill="none" fill-rule="evenodd">
        <g id="Explore-results-list-Real" transform="translate(-1052.000000, -585.000000)" fill="#26288E">
            <g id="Menu-categorias-body" transform="translate(1027.000000, 335.000000)">
                <g id="ico-shown-oscuro" transform="translate(25.000000, 250.000000)">
                    <path d="M20.4907561,4.18207317 C19.5679512,4.18207317 18.8184878,3.43204878 18.8184878,2.5092439 C18.8184878,1.587 19.5679512,0.836414634 20.4907561,0.836414634 C21.413561,0.836414634 22.1630244,1.587 22.1630244,2.5092439 C22.1630244,3.43204878 21.413561,4.18207317 20.4907561,4.18207317 M19.6543415,17.1456585 C19.6543415,17.6067805 19.2790488,17.9820732 18.8184878,17.9820732 C18.3568049,17.9820732 17.9815122,17.6067805 17.9815122,17.1456585 C17.9815122,16.6845366 18.3568049,16.3092439 18.8184878,16.3092439 C19.2790488,16.3092439 19.6543415,16.6845366 19.6543415,17.1456585 M12.1271707,12.9641463 C10.7432439,12.9641463 9.61792683,11.8388293 9.61792683,10.4549024 C9.61792683,9.07097561 10.7432439,7.94565854 12.1271707,7.94565854 C13.5110976,7.94565854 14.6358537,9.07097561 14.6358537,10.4549024 C14.6358537,11.8388293 13.5110976,12.9641463 12.1271707,12.9641463 M13.799439,20.4913171 C13.799439,21.413561 13.0494146,22.1635854 12.1271707,22.1635854 C11.2043659,22.1635854 10.4543415,21.413561 10.4543415,20.4913171 C10.4543415,19.5685122 11.2043659,18.8184878 12.1271707,18.8184878 C13.0494146,18.8184878 13.799439,19.5685122 13.799439,20.4913171 M2.50868293,21.3277317 C1.58643902,21.3277317 0.835853659,20.5771463 0.835853659,19.6549024 C0.835853659,18.7320976 1.58643902,17.9820732 2.50868293,17.9820732 C3.4314878,17.9820732 4.1815122,18.7320976 4.1815122,19.6549024 C4.1815122,20.5771463 3.4314878,21.3277317 2.50868293,21.3277317 M4.6,3.76358537 C4.6,3.30246341 4.97473171,2.92773171 5.43641463,2.92773171 C5.89753659,2.92773171 6.27226829,3.30246341 6.27226829,3.76358537 C6.27226829,4.22526829 5.89753659,4.60056098 5.43641463,4.60056098 C4.97473171,4.60056098 4.6,4.22526829 4.6,3.76358537 M20.4907561,0 C19.1068293,0 17.9815122,1.12531707 17.9815122,2.5092439 C17.9815122,2.94231707 18.0920244,3.34958537 18.285,3.7052439 L14.1747317,7.8155122 C13.6081463,7.37458537 12.8990732,7.1092439 12.1271707,7.1092439 C11.3552683,7.1092439 10.6456341,7.37458537 10.0784878,7.8155122 L6.87195122,4.60841463 C7.01892683,4.35934146 7.1092439,4.0732439 7.1092439,3.76358537 C7.1092439,2.84134146 6.35865854,2.0907561 5.43641463,2.0907561 C4.51360976,2.0907561 3.76358537,2.84134146 3.76358537,3.76358537 C3.76358537,4.68639024 4.51360976,5.43641463 5.43641463,5.43641463 C5.7455122,5.43641463 6.03160976,5.34665854 6.28012195,5.19912195 L9.48778049,8.40678049 C9.04685366,8.97392683 8.7815122,9.683 8.7815122,10.4549024 C8.7815122,11.2268049 9.04685366,11.935878 9.48778049,12.5030244 L4.19160976,17.7991951 C3.74563415,17.3941707 3.15660976,17.1456585 2.50868293,17.1456585 C1.12531707,17.1456585 0,18.2709756 0,19.6549024 C0,21.0382683 1.12531707,22.1635854 2.50868293,22.1635854 C3.89260976,22.1635854 5.01792683,21.0382683 5.01792683,19.6549024 C5.01792683,19.2218293 4.90797561,18.814561 4.71443902,18.4589024 L10.0790488,13.0937317 C10.5418537,13.453878 11.0994634,13.6945366 11.7092439,13.7708293 L11.7092439,18.0196585 C10.5244634,18.2193659 9.6184878,19.249878 9.6184878,20.4913171 C9.6184878,21.8752439 10.7438049,23 12.1277317,23 C13.5116585,23 14.6364146,21.8752439 14.6364146,20.4913171 C14.6364146,19.250439 13.730439,18.2199268 12.5456585,18.0196585 L12.5456585,13.7708293 C13.155439,13.6945366 13.7130488,13.453878 14.1758537,13.0937317 L17.3829512,16.3008293 C17.2348537,16.5499024 17.1450976,16.836 17.1450976,17.1456585 C17.1450976,18.0679024 17.8956829,18.8184878 18.8184878,18.8184878 C19.7401707,18.8184878 20.4907561,18.0679024 20.4907561,17.1456585 C20.4907561,16.2228537 19.7401707,15.4728293 18.8184878,15.4728293 C18.5088293,15.4728293 18.2227317,15.5631463 17.9736585,15.710122 L14.766561,12.5030244 C15.2074878,11.935878 15.4728293,11.2268049 15.4728293,10.4549024 C15.4728293,9.683 15.2074878,8.97392683 14.766561,8.40678049 L18.8083902,4.3655122 C19.2538049,4.76941463 19.8433902,5.0184878 20.4907561,5.0184878 C21.8746829,5.0184878 23,3.89317073 23,2.5092439 C23,1.12531707 21.8746829,0 20.4907561,0" id="Fill-1"></path>
                </g>
            </g>
        </g>
    </g>
</svg>