<?xml version="1.0" encoding="UTF-8"?>
<svg width="17px" height="20px" viewBox="0 0 17 20" version="1.1" xmlns="http://www.w3.org/2000/svg" xmlns:xlink="http://www.w3.org/1999/xlink">
    <!-- Generator: Sketch 56.2 (81672) - https://sketch.com -->
    <title>ico-died</title>
    <desc>Created with Sketch.</desc>
    <g id="Welcome" stroke="none" stroke-width="1" fill="none" fill-rule="evenodd">
        <g id="Explore-results-Real" transform="translate(-615.000000, -826.000000)" fill="#26288E">
            <g id="ico-died" transform="translate(615.000000, 826.000000)">
                <path d="M1.66666667,18.3333333 L15,18.3333333 L15,16.6666667 L1.66666667,16.6666667 L1.66666667,18.3333333 Z M3.33333333,6.66666667 C3.33333333,3.90952381 5.57619048,1.66666667 8.33333333,1.66666667 C11.0904762,1.66666667 13.3333333,3.90952381 13.3333333,6.66666667 L13.3333333,15 L9.16666667,15 L9.16666667,13.3333333 L10.8333333,13.3333333 L10.8333333,11.6666667 L9.16666667,11.6666667 L9.16666667,10 L7.5,10 L7.5,11.6666667 L5.83333333,11.6666667 L5.83333333,13.3333333 L7.5,13.3333333 L7.5,15 L3.33333333,15 L3.33333333,6.66666667 Z M8.33333333,0 C4.65809524,0 1.66666667,2.99142857 1.66666667,6.66666667 L1.66666667,15 L6.07514039e-13,15 L6.07514039e-13,20 L16.6666667,20 L16.6666667,15 L15,15 L15,6.66666667 C15,2.99142857 12.0085714,0 8.33333333,0 L8.33333333,0 Z" id="Fill-1"></path>
                <path d="M8.33333333,5 C8.79238095,5 9.16666667,5.37428571 9.16666667,5.83333333 C9.16666667,6.29238095 8.79238095,6.66666667 8.33333333,6.66666667 C7.87428571,6.66666667 7.5,6.29238095 7.5,5.83333333 C7.5,5.37428571 7.87428571,5 8.33333333,5 M8.33333333,8.33333333 C9.71142857,8.33333333 10.8333333,7.21238095 10.8333333,5.83333333 C10.8333333,4.45428571 9.71142857,3.33333333 8.33333333,3.33333333 C6.95428571,3.33333333 5.83333333,4.45428571 5.83333333,5.83333333 C5.83333333,7.21238095 6.95428571,8.33333333 8.33333333,8.33333333" id="Fill-3"></path>
            </g>
        </g>
    </g>
</svg>