<?xml version="1.0" encoding="UTF-8"?>
<svg width="44px" height="44px" viewBox="0 1 25 22" version="1.1" xmlns="http://www.w3.org/2000/svg" xmlns:xlink="http://www.w3.org/1999/xlink">
    <!-- Generator: Sketch 54.1 (76490) - https://sketchapp.com -->
    <title>ico-digital-objets-violet</title>
    <desc>Created with Sketch.</desc>
    <g id="Welcome" stroke="none" stroke-width="1" fill="none" fill-rule="evenodd">
        <g id="Explore-results-list-Real" transform="translate(-1049.000000, -440.000000)" fill="#26288E">
            <g id="Menu-categorias-body" transform="translate(1027.000000, 335.000000)">
                <g id="ico-digital-objets-oscuro" transform="translate(22.000000, 105.000000)">
                    <path d="M23.9717372,20.7578299 C23.6264349,21.2246337 22.9607597,21.3301584 22.4828527,20.9922715 C22.0060066,20.6543845 21.8988621,20.0009632 22.243634,19.5331197 C22.5889364,19.0657961 23.255142,18.9602714 23.7325185,19.2986782 C24.2098951,19.637085 24.3165092,20.2899865 23.9717372,20.7578299 L23.9717372,20.7578299 Z M12.842498,20.1485938 L12.842498,12.781619 L19.0876444,9.94492819 L19.0876444,17.3306168 L12.842498,20.1485938 Z M5.77149001,9.94492819 L12.0161061,12.781619 L12.0161061,20.1485938 L5.77149001,17.3306168 L5.77149001,9.94492819 Z M2.51153841,20.9922715 C2.13759342,21.2568629 1.63210467,21.2563431 1.25922052,20.9901922 C0.88633637,20.7245611 0.730393355,20.2535987 0.872545491,19.8231827 C1.01469763,19.3932865 1.42311981,19.1016641 1.88405342,19.1006245 C1.94186903,19.1006245 1.99915421,19.1053029 2.05590899,19.1141399 C2.48130456,19.1811975 2.82395486,19.4930931 2.92420394,19.9042755 C3.02339218,20.315458 2.86055373,20.7448343 2.51153841,20.9927913 L2.51153841,20.9922715 Z M11.4124899,1.85383567 C11.4124899,1.27630893 11.8898665,0.808985305 12.4791613,0.808985305 C13.0673954,0.808985305 13.5453024,1.27630893 13.5453024,1.85383567 C13.5453024,2.43084259 13.0673954,2.89868604 12.4791613,2.89868604 C11.8903969,2.89816621 11.4130203,2.43084259 11.4124899,1.85383567 L11.4124899,1.85383567 Z M12.4436233,12.0767348 L6.35441986,9.31281971 L12.4436233,6.5670985 L18.5328268,9.31281971 L12.4436233,12.0767348 Z M24.2162601,18.6426577 C23.8099596,18.3536344 23.3028796,18.2351141 22.8074688,18.3146475 C22.4600448,18.3681896 22.1348983,18.5142607 21.867037,18.7372661 L19.9135059,17.3592072 L19.9135059,9.31126023 C19.9166884,9.15531242 19.8265173,9.01080078 19.6817131,8.94374321 L12.842498,5.85545663 L12.842498,3.67322686 C13.7887644,3.49180757 14.4438312,2.64085232 14.363738,1.69944733 C14.282584,0.757522526 13.4922605,0.0256074424 12.5284903,0.000655791817 C11.5641896,-0.0242958587 10.7351456,0.665513314 10.6041322,1.60172004 C10.4725885,2.53792676 11.0809784,3.42111122 12.0161061,3.65191399 L12.0161061,5.86845228 L5.19121226,8.94374321 C5.04322552,9.0092413 4.94775021,9.15271329 4.94509812,9.31126023 L4.94509812,17.4351018 L3.1130329,18.7377859 C2.45054029,18.1800125 1.48411793,18.1405058 0.776539757,18.6426577 C-0.0647038563,19.2446163 -0.25141114,20.4007094 0.359100461,21.2277527 C0.97014248,22.0553158 2.14820179,22.242973 2.99528001,21.648292 C3.7208924,21.1321047 3.97867576,20.1881006 3.61268705,19.386009 L5.46066482,18.0765671 L12.2707069,21.1476995 C12.3805035,21.1970829 12.5067431,21.1970829 12.6160093,21.1476995 L19.4923537,18.0469371 L21.3817041,19.3854891 C21.0157154,20.1881006 21.2729683,21.1321047 21.9991111,21.648292 C22.8461894,22.2481712 24.028492,22.0620735 24.6411253,21.2319113 C25.2532281,20.4017491 25.0633384,19.242537 24.2162601,18.6426577 L24.2162601,18.6426577 Z" id="Fill-1"></path>
                </g>
            </g>
        </g>
    </g>
</svg>
