<?xml version="1.0" encoding="UTF-8"?>
<svg width="792px" height="109px" viewBox="0 0 792 109" version="1.1" xmlns="http://www.w3.org/2000/svg" xmlns:xlink="http://www.w3.org/1999/xlink">
    <!-- Generator: Sketch 54.1 (76490) - https://sketchapp.com -->
    <title>infografia-home</title>
    <desc>Created with Sketch.</desc>
    <g id="Welcome" stroke="none" stroke-width="1" fill="none" fill-rule="evenodd">
        <g id="Home-Real" transform="translate(-325.000000, -578.000000)">
            <g id="infografia-home" transform="translate(325.000000, 578.000000)">
                <g>
                    <g id="Group" transform="translate(29.000000, 42.467577)" fill="#F3106A" fill-rule="nonzero">
                        <path d="M21.6783529,20.6532619 L1.71952941,20.6532619 C1.74877311,22.5851429 2.20205042,24.3139762 3.07936134,25.8368333 C3.95667227,27.3606667 5.16346218,28.5457619 6.6987563,29.3960238 C8.23405042,30.2453095 9.95163025,30.6699524 11.8524706,30.6699524 C13.4023866,30.6699524 14.8353277,30.3839286 16.1512941,29.8128571 C17.4672605,29.2417857 18.5483025,28.4012857 19.3973445,27.2874524 L20.318521,28.2529048 C19.2949916,29.453619 18.0521345,30.3770952 16.5899496,31.0204048 C15.1277647,31.6656667 13.5476303,31.9868333 11.8524706,31.9868333 C9.62994958,31.9868333 7.64820168,31.4967857 5.90917647,30.5157143 C4.16917647,29.5346429 2.80154622,28.1650476 1.8072605,26.4079048 C0.812,24.6507619 0.315831933,22.6593333 0.315831933,20.433619 C0.315831933,18.208881 0.776907563,16.2164762 1.69710924,14.4593333 C2.61828571,12.7021905 3.89721008,11.3335714 5.53583193,10.3515238 C7.17347899,9.37045238 9.00121008,8.87942857 11.0190252,8.87942857 C13.0075966,8.87942857 14.8138824,9.36264286 16.4369076,10.3290714 C18.0599328,11.2955 19.3388571,12.6426429 20.2756303,14.3705 C21.2114286,16.0993333 21.6793277,18.0605 21.6793277,20.2569286 L21.6793277,20.6532619 L21.6783529,20.6532619 Z M6.41314286,11.3843333 C5.03771429,12.1750476 3.94107563,13.2810714 3.12322689,14.7014286 C2.30440336,16.1217857 1.85112605,17.7100476 1.76339496,19.4671905 L20.318521,19.4671905 C20.2015462,17.7100476 19.7268235,16.1217857 18.8933782,14.7014286 C18.0599328,13.2810714 16.9632941,12.1750476 15.6034622,11.3843333 C14.2436303,10.593619 12.7151597,10.1982619 11.0190252,10.1982619 C9.32191597,10.1982619 7.78759664,10.593619 6.41314286,11.3843333 Z" id="Shape"></path>
                        <polygon id="Path" points="42.6889748 31.8550476 34.4422521 21.1364762 26.1955294 31.8550476 24.4847731 31.8550476 33.6088067 20.0821905 24.9672941 9.05611905 26.6780504 9.05611905 34.4422521 19.0279048 42.1625882 9.05611905 43.829479 9.05611905 35.2756975 20.0821905 44.4874622 31.8550476"></polygon>
                        <path d="M67.3414118,10.3515238 C69.0375462,11.3325952 70.374958,12.7090238 71.3555966,14.4808095 C72.3352605,16.2525952 72.824605,18.2518333 72.824605,20.4765714 C72.824605,22.7022857 72.3352605,24.686881 71.3555966,26.429381 C70.3759328,28.171881 69.0375462,29.5346429 67.3414118,30.5157143 C65.6452773,31.4967857 63.7590588,31.9868333 61.6827563,31.9868333 C59.489479,31.9868333 57.5223529,31.431381 55.7823529,30.3175476 C54.0423529,29.2046905 52.7478319,27.6818333 51.9007395,25.7489762 L51.9007395,40.3771905 L50.4531765,40.3771905 L50.4531765,9.05611905 L51.8568739,9.05611905 L51.8568739,15.2939762 C52.7049412,13.3025476 53.9984874,11.7357619 55.7384874,10.593619 C57.4784874,9.45147619 59.4592605,8.88040476 61.6827563,8.88040476 C63.758084,8.88040476 65.6443025,9.37142857 67.3414118,10.3515238 Z M66.6171429,29.3725952 C68.0929748,28.5096429 69.2558992,27.3089286 70.1039664,25.7714286 C70.9520336,24.2339286 71.3760672,22.4699524 71.3760672,20.4775476 C71.3760672,18.4870952 70.9520336,16.7153095 70.1039664,15.1621905 C69.2558992,13.6100476 68.0929748,12.4025 66.6171429,11.5385714 C65.1403361,10.6746429 63.4802689,10.2421905 61.6388908,10.2421905 C59.7965378,10.2421905 58.1364706,10.6746429 56.6596639,11.5385714 C55.1828571,12.4025 54.0199328,13.6110238 53.1728403,15.1621905 C52.3237983,16.7143333 51.9007395,18.4870952 51.9007395,20.4775476 C51.9007395,22.4699524 52.3247731,24.2339286 53.1728403,25.7714286 C54.0209076,27.3089286 55.1828571,28.510619 56.6596639,29.3725952 C58.1364706,30.2375 59.7965378,30.6689762 61.6388908,30.6689762 C63.4812437,30.6689762 65.1403361,30.2375 66.6171429,29.3725952 Z" id="Shape"></path>
                        <path d="M98.7481681,20.6532619 L78.7893445,20.6532619 C78.8185882,22.5851429 79.2718655,24.3139762 80.1491765,25.8368333 C81.0264874,27.3606667 82.2332773,28.5457619 83.7685714,29.3960238 C85.3038655,30.2453095 87.0214454,30.6699524 88.9222857,30.6699524 C90.4722017,30.6699524 91.9051429,30.3839286 93.2211092,29.8128571 C94.5370756,29.2417857 95.6181176,28.4012857 96.4671597,27.2874524 L97.3883361,28.2529048 C96.3648067,29.453619 95.1219496,30.3770952 93.6597647,31.0204048 C92.1975798,31.6656667 90.6174454,31.9868333 88.9222857,31.9868333 C86.6997647,31.9868333 84.7180168,31.4967857 82.9789916,30.5157143 C81.2389916,29.5346429 79.8713613,28.1650476 78.8770756,26.4079048 C77.8818151,24.6507619 77.3856471,22.6593333 77.3856471,20.433619 C77.3856471,18.208881 77.8467227,16.2164762 78.7669244,14.4593333 C79.6881008,12.7021905 80.9670252,11.3335714 82.6056471,10.3515238 C84.2432941,9.37045238 86.0710252,8.87942857 88.0888403,8.87942857 C90.0774118,8.87942857 91.8836975,9.36264286 93.5067227,10.3290714 C95.1297479,11.2955 96.4086723,12.6426429 97.3454454,14.3705 C98.2812437,16.0993333 98.7491429,18.0605 98.7491429,20.2569286 L98.7491429,20.6532619 L98.7481681,20.6532619 Z M83.4839328,11.3843333 C82.1085042,12.1750476 81.0118655,13.2810714 80.1940168,14.7014286 C79.3751933,16.1217857 78.921916,17.7100476 78.8341849,19.4671905 L97.3893109,19.4671905 C97.2723361,17.7100476 96.7976134,16.1217857 95.9641681,14.7014286 C95.1307227,13.2810714 94.034084,12.1750476 92.6742521,11.3843333 C91.3144202,10.593619 89.7859496,10.1982619 88.0898151,10.1982619 C86.3927059,10.1982619 84.8574118,10.593619 83.4839328,11.3843333 Z" id="Shape"></path>
                        <path d="M110.569445,10.3515238 C112.074521,9.37045238 113.939294,8.87942857 116.161815,8.87942857 L116.161815,10.3290714 L115.767025,10.3290714 C113.135092,10.3290714 111.073412,11.1637143 109.581983,12.833 C108.090555,14.5022857 107.34484,16.8012143 107.34484,19.7297857 L107.34484,31.8540714 L105.897277,31.8540714 L105.897277,9.05611905 L107.300975,9.05611905 L107.300975,14.5471905 C107.974555,12.7314762 109.063395,11.3335714 110.569445,10.3515238 Z" id="Path"></path>
                        <path d="M122.259126,2.66402381 C121.966689,2.38580952 121.820471,2.05585714 121.820471,1.67514286 C121.820471,1.26514286 121.958891,0.92152381 122.237681,0.642333333 C122.515496,0.364119048 122.858622,0.2255 123.268034,0.2255 C123.648202,0.2255 123.984504,0.365095238 124.276941,0.642333333 C124.568403,0.92152381 124.715597,1.2505 124.715597,1.63121429 C124.715597,2.01192857 124.568403,2.34871429 124.276941,2.64157143 C123.984504,2.93442857 123.647227,3.08085714 123.268034,3.08085714 C122.887866,3.08183333 122.551563,2.94321429 122.259126,2.66402381 Z M122.566185,9.05611905 L124.013748,9.05611905 L124.013748,31.8550476 L122.566185,31.8550476 L122.566185,9.05611905 Z" id="Shape"></path>
                        <path d="M152.526353,20.6532619 L132.567529,20.6532619 C132.596773,22.5851429 133.05005,24.3139762 133.927361,25.8368333 C134.804672,27.3606667 136.011462,28.5457619 137.546756,29.3960238 C139.08205,30.2453095 140.79963,30.6699524 142.700471,30.6699524 C144.250387,30.6699524 145.683328,30.3839286 146.999294,29.8128571 C148.315261,29.2417857 149.396303,28.4012857 150.245345,27.2874524 L151.166521,28.2529048 C150.142992,29.453619 148.900134,30.3770952 147.43795,31.0204048 C145.975765,31.6656667 144.39563,31.9868333 142.700471,31.9868333 C140.47795,31.9868333 138.496202,31.4967857 136.757176,30.5157143 C135.017176,29.5346429 133.649546,28.1650476 132.655261,26.4079048 C131.66,24.6507619 131.163832,22.6593333 131.163832,20.433619 C131.163832,18.208881 131.624908,16.2164762 132.545109,14.4593333 C133.466286,12.7021905 134.74521,11.3335714 136.383832,10.3515238 C138.021479,9.37045238 139.84921,8.87942857 141.867025,8.87942857 C143.855597,8.87942857 145.661882,9.36264286 147.284908,10.3290714 C148.907933,11.2955 150.186857,12.6426429 151.12363,14.3705 C152.059429,16.0993333 152.527328,18.0605 152.527328,20.2569286 L152.527328,20.6532619 L152.526353,20.6532619 Z M137.261143,11.3843333 C135.885714,12.1750476 134.789076,13.2810714 133.971227,14.7014286 C133.152403,16.1217857 132.699126,17.7100476 132.611395,19.4671905 L151.166521,19.4671905 C151.049546,17.7100476 150.574824,16.1217857 149.741378,14.7014286 C148.907933,13.2810714 147.811294,12.1750476 146.451462,11.3843333 C145.09163,10.593619 143.56316,10.1982619 141.867025,10.1982619 C140.169916,10.1982619 138.635597,10.593619 137.261143,11.3843333 Z" id="Shape"></path>
                        <path d="M177.13395,11.361881 C178.771597,13.0165238 179.59042,15.3818333 179.59042,18.4568333 L179.59042,31.8550476 L178.142857,31.8550476 L178.142857,18.5446905 C178.142857,15.8504048 177.463429,13.7935714 176.103597,12.3722381 C174.743765,10.951881 172.805882,10.2412143 170.290924,10.2412143 C167.454286,10.2412143 165.217143,11.0836667 163.579496,12.766619 C161.940874,14.4515238 161.123025,16.7133571 161.123025,19.5540714 L161.123025,31.8540714 L159.675462,31.8540714 L159.675462,9.05611905 L161.07916,9.05611905 L161.07916,14.6350476 C161.810252,12.848619 162.987798,11.4429048 164.610824,10.4179048 C166.233849,9.39290476 168.170756,8.88040476 170.422521,8.88040476 C173.25916,8.88040476 175.496303,9.70821429 177.13395,11.361881 Z" id="Path"></path>
                        <path d="M192.025815,30.5157143 C190.315059,29.5346429 188.969849,28.1650476 187.990185,26.4079048 C187.009546,24.6507619 186.520202,22.6593333 186.520202,20.433619 C186.520202,18.208881 187.009546,16.2164762 187.990185,14.4593333 C188.968874,12.7021905 190.315059,11.3335714 192.025815,10.3515238 C193.736571,9.37045238 195.673479,8.87942857 197.838487,8.87942857 C199.563866,8.87942857 201.164471,9.20938095 202.641277,9.86830952 C204.118084,10.5272381 205.323899,11.5014762 206.259697,12.7900476 L205.163059,13.7125476 C204.344235,12.5704048 203.299261,11.7064762 202.02716,11.1207619 C200.755059,10.5350476 199.358185,10.2421905 197.838487,10.2421905 C195.966891,10.2421905 194.27758,10.6746429 192.771529,11.5385714 C191.265479,12.4025 190.088908,13.6032143 189.239866,15.1407143 C188.391798,16.6782143 187.967765,18.4421905 187.967765,20.433619 C187.967765,22.4260238 188.391798,24.1968333 189.239866,25.7489762 C190.087933,27.3020952 191.264504,28.5096429 192.771529,29.3725952 C194.27758,30.2375 195.965916,30.6689762 197.838487,30.6689762 C199.35916,30.6689762 200.755059,30.376119 202.02716,29.7904048 C203.299261,29.2046905 204.344235,28.3417381 205.163059,27.1995952 L206.259697,28.0771905 C205.323899,29.3657619 204.117109,30.3390238 202.641277,30.9979524 C201.164471,31.6578571 199.562891,31.9868333 197.838487,31.9868333 C195.673479,31.9868333 193.737546,31.4967857 192.025815,30.5157143 Z" id="Path"></path>
                        <path d="M231.527227,20.6532619 L211.568403,20.6532619 C211.597647,22.5851429 212.050924,24.3139762 212.928235,25.8368333 C213.805546,27.3606667 215.012336,28.5457619 216.54763,29.3960238 C218.082924,30.2453095 219.800504,30.6699524 221.701345,30.6699524 C223.251261,30.6699524 224.684202,30.3839286 226.000168,29.8128571 C227.316134,29.2417857 228.397176,28.4012857 229.246218,27.2874524 L230.167395,28.2529048 C229.143866,29.453619 227.901008,30.3770952 226.438824,31.0204048 C224.976639,31.6656667 223.396504,31.9868333 221.701345,31.9868333 C219.478824,31.9868333 217.497076,31.4967857 215.75805,30.5157143 C214.01805,29.5346429 212.65042,28.1650476 211.656134,26.4079048 C210.660874,24.6507619 210.164706,22.6593333 210.164706,20.433619 C210.164706,18.208881 210.625782,16.2164762 211.545983,14.4593333 C212.46716,12.7021905 213.746084,11.3335714 215.384706,10.3515238 C217.022353,9.37045238 218.850084,8.87942857 220.867899,8.87942857 C222.856471,8.87942857 224.662756,9.36264286 226.285782,10.3290714 C227.908807,11.2955 229.187731,12.6426429 230.124504,14.3705 C231.060303,16.0993333 231.528202,18.0605 231.528202,20.2569286 L231.528202,20.6532619 L231.527227,20.6532619 Z M216.262017,11.3843333 C214.886588,12.1750476 213.78995,13.2810714 212.972101,14.7014286 C212.153277,16.1217857 211.7,17.7100476 211.612269,19.4671905 L230.167395,19.4671905 C230.05042,17.7100476 229.575697,16.1217857 228.742252,14.7014286 C227.908807,13.2810714 226.812168,12.1750476 225.452336,11.3843333 C224.092504,10.593619 222.564034,10.1982619 220.867899,10.1982619 C219.17079,10.1982619 217.636471,10.593619 216.262017,11.3843333 Z" id="Shape"></path>
                    </g>
                    <g id="Group" transform="translate(453.000000, 30.427500)" fill="#26288E" fill-rule="nonzero">
                        <path d="M30.6828194,20.8332695 C33.5609398,23.6760368 35,27.73819 35,33.0212089 L35,56.0400768 L32.4559471,56.0400768 L32.4559471,33.1721523 C32.4559471,28.5447013 31.2602574,25.0093702 28.8719012,22.5676388 C26.4820333,20.128867 23.0763583,18.9080013 18.6563877,18.9080013 C13.671072,18.9080013 9.73935389,20.3552821 6.86123348,23.246884 C3.98160145,26.1414456 2.54405286,30.0274982 2.54405286,34.9094812 L2.54405286,56.0400768 L0,56.0400768 L0,0.0400767918 L2.54405286,0.0400767918 L2.54405286,26.228756 C3.87881144,23.2084083 5.96030923,20.8436284 8.78854626,19.1329366 C11.61376,17.4252044 14.9816446,16.5683787 18.8876652,16.5683787 C23.8729809,16.5683787 27.804699,17.9905022 30.6828194,20.8332695 Z" id="Path"></path>
                        <path d="M84,36.4217676 L49.4312115,36.4217676 C49.480372,39.7660347 50.2669405,42.7584308 51.7864476,45.3944826 C53.3059548,48.0320255 55.3945324,50.0851044 58.0536699,51.5537193 C60.7128075,53.0253161 63.6877642,53.758878 66.9815195,53.758878 C69.6659822,53.758878 72.1478439,53.2638728 74.4271047,52.2768443 C76.7063655,51.2883249 78.5804244,49.8301469 80.0492813,47.9038013 L81.6447639,49.5766803 C79.8705158,51.6565968 77.7193703,53.251945 75.1868583,54.3671977 C72.6528566,55.4824504 69.9177437,56.0400768 66.9815195,56.0400768 C63.1321013,56.0400768 59.6998027,55.1917094 56.6861135,53.4919927 C53.6724242,51.793767 51.3037806,49.4231094 49.5831622,46.3815111 C47.8595644,43.3399128 47,39.892768 47,36.0400768 C47,32.1873856 47.7984861,28.7402408 49.392479,25.6986425 C50.9879615,22.6555532 53.2031646,20.2863866 56.0410678,18.5866699 C58.8759915,16.8884442 62.0431211,16.0400768 65.5379877,16.0400768 C68.982204,16.0400768 72.1091114,16.8780073 74.9201997,18.5493954 C77.731288,20.2222745 79.9464911,22.5556575 81.5672988,25.5450716 C83.1881065,28.5374676 83.9985103,31.9324281 83.9985103,35.734426 L83.9985103,36.4217676 L84,36.4217676 Z M57.5605749,20.3788274 C55.178524,21.7475466 53.27914,23.6604734 51.862423,26.1190987 C50.4442163,28.579215 49.6591376,31.3285813 49.5071869,34.3701797 L81.6447639,34.3701797 C81.4421629,31.3285813 80.6198414,28.579215 79.1748198,26.1190987 C77.731288,23.6619644 75.831904,21.7475466 73.4766679,20.3788274 C71.1214317,19.0101081 68.4742119,18.3257485 65.5379877,18.3257485 C62.6002738,18.3257485 59.9411362,19.0101081 57.5605749,20.3788274 Z" id="Shape"></path>
                        <path d="M105.191554,19.5374337 C107.832579,17.8720417 111.101056,17.0400768 115,17.0400768 L115,19.5008799 L114.307692,19.5008799 C109.692308,19.5008799 106.076923,20.9177059 103.461538,23.7513579 C100.846154,26.5850099 99.5384615,30.4874955 99.5384615,35.4588148 L99.5384615,56.0400768 L97,56.0400768 L97,17.338356 L99.4615385,17.338356 L99.4615385,26.6595797 C100.641026,23.5788238 102.550528,21.2042878 105.191554,19.5374337 Z" id="Path"></path>
                        <path d="M125.757576,6.20195484 C125.252525,5.7269419 125,5.1651619 125,4.5151442 C125,3.81512513 125.239156,3.22834445 125.718954,2.75333151 C126.198752,2.27831857 126.791444,2.04007679 127.5,2.04007679 C128.15508,2.04007679 128.737374,2.27831857 129.242424,2.75333151 C129.745989,3.22834445 130,3.79159508 130,4.44014215 C130,5.09015986 129.745989,5.66664614 129.242424,6.16518913 C128.737374,6.66667338 128.156566,6.91668019 127.5,6.91668019 C126.841949,6.91520956 126.261141,6.67696777 125.757576,6.20195484 Z M126.287879,17.1140167 L128.787879,17.1140167 L128.787879,56.0400768 L126.287879,56.0400768 L126.287879,17.1140167 Z" id="Shape"></path>
                        <path d="M164,53.3231794 C163.065868,54.178499 161.870729,54.8444052 160.419162,55.3238577 C158.966068,55.8018303 157.461078,56.0400768 155.904192,56.0400768 C152.634731,56.0400768 150.105554,55.1462827 148.313608,53.3601742 C146.523189,51.5740658 145.628743,49.1220511 145.628743,46.0011706 L145.628743,18.8321969 L138,18.8321969 L138,16.6435851 L145.628743,16.6435851 L145.628743,8.04007679 L148.197605,8.04007679 L148.197605,16.6435851 L161.508982,16.6435851 L161.508982,18.8321969 L148.197605,18.8321969 L148.197605,45.6238237 C148.197605,48.291888 148.870729,50.329561 150.221557,51.7368428 C151.570858,53.1456044 153.542914,53.8499852 156.137725,53.8499852 C158.732535,53.8499852 160.912176,53.0716149 162.676647,51.5104347 L164,53.3231794 Z" id="Path"></path>
                        <path d="M200.146565,20.6003332 C202.716031,22.9728684 204,26.4081015 204,30.904579 L204,55.8176516 L201.508397,55.8176516 L201.508397,48.1069124 C200.20916,50.5783032 198.276336,52.5176181 195.70687,53.9263108 C193.137405,55.3364573 190.062595,56.0400768 186.480916,56.0400768 C181.964885,56.0400768 178.422901,55.0515205 175.853435,53.0744079 C173.283969,51.098749 172,48.4776211 172,45.2153852 C172,42.1014329 173.167939,39.5689842 175.503817,37.6151318 C177.839695,35.6627331 181.577099,34.6858068 186.716031,34.6858068 L201.432061,34.6858068 L201.432061,30.9031252 C201.432061,27.0986372 200.381679,24.2085638 198.279389,22.2285436 C196.177099,20.2528848 193.074809,19.2643285 188.974046,19.2643285 C186.119084,19.2643285 183.445802,19.7338927 180.954198,20.6730212 C178.462595,21.6121497 176.334351,22.8740128 174.569466,24.4542491 L173.167939,22.6748477 C175.140458,20.8939926 177.516031,19.5114676 180.29313,18.524365 C183.070229,17.5372625 185.989313,17.0400768 189.053435,17.0400768 C193.877863,17.0400768 197.577099,18.2263444 200.146565,20.6003332 Z M201.430534,44.6949394 L201.430534,36.6876334 L186.714504,36.6876334 C182.509924,36.6876334 179.435115,37.4435882 177.48855,38.9496828 C175.541985,40.4586849 174.569466,42.4968554 174.569466,45.0671018 C174.569466,47.8350595 175.645802,50.0084296 177.8,51.5901197 C179.954198,53.1732635 182.899237,53.9626548 186.638168,53.9626548 C193.903817,53.9626548 198.835115,50.8748701 201.430534,44.6949394 Z" id="Shape"></path>
                        <path d="M255,17.3371518 L255,52.5140677 C255,58.8144109 253.423773,63.4764295 250.271318,66.503065 C247.118863,69.5282297 242.364341,71.0400768 236.007752,71.0400768 C232.286822,71.0400768 228.822769,70.4900468 225.620155,69.3899869 C222.414501,68.289927 219.856361,66.7383719 217.945736,64.7397336 L219.418605,62.8661022 C221.484268,64.764735 223.926889,66.22805 226.743426,67.2531058 C229.559964,68.276691 232.621219,68.7899542 235.928713,68.7899542 C241.561788,68.7899542 245.721994,67.5031194 248.409333,64.9279792 C251.096671,62.3513683 252.44034,58.3143837 252.44034,52.8155548 L252.44034,44.5651054 C250.940112,47.7667504 248.641891,50.2918879 245.541116,52.140518 C242.44034,53.9891481 238.900289,54.9156691 234.920961,54.9156691 C231.148351,54.9156691 227.751178,54.1023896 224.727922,52.4787717 C221.704666,50.8551539 219.325885,48.6035606 217.596139,45.728404 C215.864873,42.8532474 215,39.5898344 215,35.9411063 C215,32.2909074 215.864873,29.0274944 217.596139,26.1523378 C219.327405,23.2771812 221.704666,21.038824 224.727922,19.4402075 C227.751178,17.8401204 231.148351,17.0400768 234.920961,17.0400768 C238.900289,17.0400768 242.4525,17.9665978 245.580635,19.8152279 C248.70725,21.6667994 251.019152,24.2154676 252.51786,27.4656446 L252.51786,17.3400931 L255,17.3400931 L255,17.3371518 Z M243.954248,50.5271948 C246.614227,49.1021172 248.70725,47.1152443 250.233318,44.5636347 C251.756346,42.0134958 252.51938,39.1398099 252.51938,35.9396356 C252.51938,32.7394613 251.756346,29.87607 250.233318,27.3509325 C248.70877,24.825795 246.615747,22.8624527 243.954248,21.4623765 C241.29123,20.0637709 238.307494,19.3622621 235,19.3622621 C231.692506,19.3622621 228.70725,20.0637709 226.045752,21.4623765 C223.384253,22.8624527 221.30339,24.825795 219.806202,27.3509325 C218.307494,29.87607 217.55814,32.7394613 217.55814,35.9396356 C217.55814,39.1898126 218.307494,42.0782052 219.806202,44.6018721 C221.30491,47.1284803 223.384253,49.1035879 226.045752,50.5271948 C228.70725,51.9522724 231.690986,52.6640759 235,52.6640759 C238.307494,52.6640759 241.29123,51.9522724 243.954248,50.5271948 Z" id="Shape"></path>
                        <path d="M305,36.4217676 L270.431309,36.4217676 C270.480472,39.7660347 271.267072,42.7584308 272.78664,45.3944826 C274.306209,48.0320255 276.39487,50.0851044 279.054115,51.5537193 C281.71336,53.0253161 284.688436,53.758878 287.982324,53.758878 C290.666895,53.758878 293.148856,53.2638728 295.428209,52.2768443 C297.707562,51.2883249 299.581696,49.8301469 301.050612,47.9038013 L302.646159,49.5766803 C300.871839,51.6565968 298.720607,53.251945 296.187993,54.3671977 C293.655379,55.4824504 290.920156,56.0400768 287.982324,56.0400768 C284.132751,56.0400768 280.700314,55.1917094 277.686503,53.4919927 C274.672693,51.793767 272.303954,49.4231094 270.583266,46.3815111 C268.859599,43.3399128 268,39.892768 268,36.0400768 C268,32.1873856 268.798518,28.7402408 270.392575,25.6986425 C271.988122,22.6555532 274.203414,20.2863866 277.041432,18.5866699 C279.87647,16.8884442 283.043727,16.0400768 286.538734,16.0400768 C289.983089,16.0400768 293.111612,16.8780073 295.921324,18.5493954 C298.732525,20.2222745 300.947818,22.5556575 302.57018,25.5450716 C304.191053,28.5374676 305,31.9324281 305,35.734426 L305,36.4217676 L305,36.4217676 Z M278.561,20.3788274 C276.178853,21.7475466 274.279393,23.6604734 272.862619,26.1190987 C271.444355,28.579215 270.659245,31.3285813 270.507288,34.3701797 L302.646159,34.3701797 C302.44206,31.3285813 301.621195,28.579215 300.176115,26.1190987 C298.732525,23.6619644 296.833065,21.7475466 294.479224,20.3788274 C292.123893,19.0101081 289.476566,18.3257485 286.538734,18.3257485 C283.600902,18.3257485 280.941657,19.0101081 278.561,20.3788274 Z" id="Shape"></path>
                    </g>
                    <g id="Group" transform="translate(318.000000, 48.973577)" fill="#18539E" fill-rule="nonzero">
                        <path d="M4.46174174,25.2839235 C3.07555556,24.4775316 1.98534535,23.351414 1.19111111,21.9065471 C0.396396396,20.4616802 0,18.8244897 0,16.9939996 C0,15.1639975 0.396396396,13.5263189 1.19111111,12.081452 C1.98486486,10.6365851 3.07555556,9.51144381 4.46174174,8.7040756 C5.84888889,7.89768366 7.41861862,7.49399956 9.17333333,7.49399956 C10.5715315,7.49399956 11.8693093,7.7649121 13.0666667,8.3067372 C14.2635435,8.84856229 15.2408408,9.6495848 16,10.7088285 L15.1111111,11.4673836 C14.4470871,10.5282201 13.5995195,9.81847803 12.5688889,9.33620488 C11.5377778,8.85490799 10.4052853,8.61377142 9.17333333,8.61377142 C7.65645646,8.61377142 6.28708709,8.96961871 5.06666667,9.67936077 C3.84528529,10.3900791 2.89201201,11.3770794 2.20444444,12.641338 C1.5163964,13.9055965 1.17333333,15.3568091 1.17333333,16.9939996 C1.17333333,18.6316781 1.5163964,20.0887483 2.20444444,21.364722 C2.89201201,22.6411838 3.84528529,23.6345298 5.06666667,24.34476 C6.28708709,25.0549902 7.65645646,25.4103494 9.17333333,25.4103494 C10.4052853,25.4103494 11.5377778,25.1697009 12.5688889,24.688404 C13.6,24.2071072 14.4470871,23.4963888 15.1111111,22.5567372 L16,23.2791707 C15.2408408,24.3393906 14.2635435,25.1394368 13.0666667,25.68175 C11.8697898,26.223087 10.572012,26.4939996 9.17333333,26.4939996 C7.41861862,26.4935114 5.84888889,26.0908036 4.46174174,25.2839235 Z" id="Path"></path>
                        <path d="M38,8.49449141 L38,27.384807 L36.8626344,27.384807 L36.8626344,22.7987188 C36.2937113,24.2792127 35.3807436,25.4321289 34.1246922,26.2564837 C32.8681602,27.0818222 31.3742567,27.4939996 29.6449036,27.4939996 C27.250045,27.4939996 25.3775002,26.814743 24.0263079,25.4557381 C22.6751156,24.0967333 22,22.1440552 22,19.5957366 L22,8.49449141 L23.1729233,8.49449141 L23.1729233,19.5229415 C23.1729233,21.755487 23.7360802,23.4597766 24.8623941,24.636302 C25.987747,25.8138111 27.5940897,26.4015819 29.6799808,26.4015819 C31.8845576,26.4015819 33.6268845,25.7046185 34.9069614,24.3087242 C36.1870383,22.9138137 36.8270767,21.0393411 36.8270767,18.6853066 L36.8270767,8.49399956 L38,8.49399956 L38,8.49449141 Z" id="Path"></path>
                        <polygon id="Path" points="46 0.493999556 47 0.493999556 47 27.4939996 46 27.4939996"></polygon>
                        <path d="M63,26.1921128 C62.5688623,26.6026176 62.0178022,26.9217363 61.3473054,27.1504461 C60.6768085,27.3801333 59.9820359,27.4939996 59.2639586,27.4939996 C57.7549765,27.4939996 56.5868263,27.0663903 55.7609646,26.2101945 C54.9341317,25.3549761 54.5209581,24.1796616 54.5209581,22.6842511 L54.5209581,9.6653832 L51,9.6653832 L51,8.61664107 L54.5209581,8.61664107 L54.5209581,4.49399956 L55.7065868,4.49399956 L55.7065868,8.61664107 L61.8502994,8.61664107 L61.8502994,9.6653832 L55.7065868,9.6653832 L55.7065868,22.5034335 C55.7065868,23.7818629 56.0178022,24.758278 56.6407186,25.4326788 C57.2631494,26.108057 58.1730053,26.4452574 59.3712575,26.4452574 C60.5685386,26.4452574 61.5745266,26.0714048 62.3892216,25.3241882 L63,26.1921128 Z" id="Path"></path>
                        <path d="M84,8.49449141 L84,27.384807 L82.8622222,27.384807 L82.8622222,22.7987188 C82.2928529,24.2792127 81.3804204,25.4321289 80.1244444,26.2564837 C78.867988,27.0818222 77.3746547,27.4939996 75.6444444,27.4939996 C73.2506907,27.4939996 71.3777778,26.814743 70.0271471,25.4557381 C68.676036,24.0967333 68,22.1440552 68,19.5957366 L68,8.49449141 L69.1733333,8.49449141 L69.1733333,19.5229415 C69.1733333,21.755487 69.735976,23.4597766 70.8622222,24.636302 C71.987988,25.8138111 73.5942342,26.4015819 75.68,26.4015819 C77.8844444,26.4015819 79.6266667,25.7046185 80.9066667,24.3087242 C82.1866667,22.9138137 82.8266667,21.0393411 82.8266667,18.6853066 L82.8266667,8.49399956 L84,8.49399956 L84,8.49449141 Z" id="Path"></path>
                        <path d="M95.6410256,8.71101676 C96.8145068,7.89999925 98.2674983,7.49399956 100,7.49399956 L100,8.69285233 L99.6923077,8.69285233 C97.6414876,8.69285233 96.034188,9.38310089 94.8717949,10.763598 C93.7094017,12.1440952 93.1282051,14.0459607 93.1282051,16.4672309 L93.1282051,26.4939996 L92,26.4939996 L92,7.63931504 L93.0944791,7.63931504 L93.0944791,12.180424 C93.6179256,10.678667 94.4666205,9.52252521 95.6410256,8.71101676 Z" id="Path"></path>
                        <path d="M119.999528,17.1746079 L104.117012,17.1746079 C104.140126,18.7639615 104.500513,20.1853982 105.198646,21.4369653 C105.896778,22.6890206 106.857182,23.6643058 108.078443,24.3628208 C109.300175,25.061824 110.667194,25.4103494 112.179972,25.4103494 C113.413025,25.4103494 114.553151,25.1755585 115.600821,24.7064649 C116.648492,24.236395 117.508893,23.5442256 118.184384,22.6289805 L118.916951,23.4241455 C118.102306,24.4116339 117.113599,25.1697009 115.950359,25.6998109 C114.786176,26.2294327 113.529537,26.4939996 112.180443,26.4939996 C110.411526,26.4939996 108.835068,26.0912917 107.450595,25.2839235 C106.065651,24.4775316 104.977885,23.351414 104.186825,21.9065471 C103.395766,20.4616802 103,18.8244897 103,16.9939996 C103,15.1639975 103.366048,13.5263189 104.099559,12.081452 C104.832598,10.6365851 105.850079,9.51144381 107.153889,8.7040756 C108.457227,7.89768366 109.911513,7.49399956 111.517217,7.49399956 C113.099337,7.49399956 114.536641,7.89133796 115.828186,8.68601477 C117.119731,9.48069157 118.137684,10.5882602 118.882988,12.0092087 C119.627348,13.4306453 120,15.0434292 120,16.8495129 L120,17.1746079 L119.999528,17.1746079 Z M107.852021,9.55293492 C106.757651,10.203125 105.884986,11.1125126 105.233553,12.2801212 C104.582119,13.4487062 104.22126,14.7544558 104.151919,16.1993227 L118.916951,16.1993227 C118.824024,14.7544558 118.446183,13.4487062 117.782957,12.2801212 C117.119731,11.1125126 116.247066,10.203125 115.16496,9.55293492 C114.082855,8.9027448 112.866783,8.57764975 111.517217,8.57764975 C110.167652,8.57764975 108.94592,8.9027448 107.852021,9.55293492 Z" id="Shape"></path>
                    </g>
                    <g id="Group" transform="translate(196.000000, 69.848361)" fill="#AD2890" fill-rule="nonzero">
                        <path d="M4.50688982,37.6438915 C2.57885011,36.9940392 1.0754448,36.1377631 0,35.0772478 L0.833746898,33.7415008 C1.94467029,34.7004426 3.37822713,35.5042936 5.13219999,36.154146 C6.88617285,36.8050905 8.75545114,37.1305628 10.7344913,37.1305628 C13.6537142,37.1305628 15.8057125,36.6423544 17.1960298,35.6670297 C18.5852384,34.6917051 19.2815057,33.3308378 19.2815057,31.5866123 C19.2815057,30.3546233 18.9067631,29.3792987 18.1594953,28.6606384 C17.4122274,27.9419782 16.4831318,27.4111744 15.3722084,27.0693193 C14.2590676,26.7274642 12.7667494,26.3845169 10.8897102,26.0426618 C8.70223325,25.6319988 6.95602133,25.2125983 5.6532918,24.7855524 C4.34945357,24.3574144 3.24739982,23.6649667 2.34491315,22.7060249 C1.44131778,21.7492675 0.988965736,20.4146128 0.988965736,18.7020607 C0.988965736,16.6836957 1.83158228,14.9984484 3.51570667,13.6463186 C5.20093976,12.295281 7.65894092,11.6192161 10.8886014,11.6192161 C12.5572039,11.6192161 14.2246977,11.8682352 15.8921915,12.3640889 C17.5596853,12.8599426 18.914524,13.5196247 19.9567077,14.3409507 L19.0708516,15.6756054 C17.9931894,14.8542794 16.7336994,14.2306396 15.2934903,13.8014094 C13.8510638,13.3743636 12.3653978,13.1602946 10.8364923,13.1602946 C8.16229344,13.1602946 6.14777467,13.6648858 4.79293596,14.6740683 C3.43698854,15.6854351 2.76067789,17.0102602 2.76067789,18.6529122 C2.76067789,19.9537091 3.14318146,20.9814588 3.90707988,21.7328847 C4.6698696,22.4854028 5.61781321,23.0424191 6.7464759,23.400657 C7.87624729,23.7599871 9.41180508,24.1280548 11.3586928,24.5048599 C13.44306,24.8827573 15.1271844,25.2835906 16.4132834,25.7106364 C17.6982736,26.1398666 18.7848054,26.8148393 19.6706615,27.7377388 C20.5565176,28.6628228 21,29.9450525 21,31.5877045 C21,33.7436852 20.1141439,35.4551451 18.3424318,36.720992 C16.5707196,37.9868388 14.0173697,38.6192161 10.6823821,38.6192161 C8.49379653,38.6181239 6.43603822,38.2937439 4.50688982,37.6438915 Z" id="Path"></path>
                        <path d="M49.0386616,14.7278357 C51.0125123,16.6575828 52,19.4143644 52,22.99927 L52,38.6192161 L50.2555884,38.6192161 L50.2555884,23.1006063 C50.2555884,19.9602725 49.4356811,17.5619815 47.7969914,15.9046437 C46.1583017,14.2494851 43.8234219,13.421361 40.7912273,13.421361 C37.3732602,13.421361 34.6773513,14.4031239 32.7046253,16.3655601 C30.7307746,18.3301756 29.7444116,20.9670971 29.7444116,24.2785039 L29.7444116,38.6181265 L28,38.6181265 L28,0.619216136 L29.7444116,0.619216136 L29.7444116,18.3911953 C30.6599185,16.3415881 32.088289,14.7365528 34.0261493,13.5771791 C35.9640096,12.4167157 38.2718965,11.8348496 40.9509349,11.8348496 C44.368902,11.8348496 47.0659356,12.7991783 49.0386616,14.7278357 Z" id="Path"></path>
                        <path d="M79.4702594,14.0822016 C81.1574779,15.7260123 82,18.1048957 82,21.2177598 L82,38.4663035 L80.3649635,38.4663035 L80.3649635,33.1274686 C79.5126572,34.8379055 78.243982,36.1813521 76.5578506,37.1567161 C74.8717192,38.1320802 72.8529275,38.6192161 70.5025625,38.6192161 C67.540146,38.6192161 65.215872,37.9354783 63.5297406,36.5658181 C61.8425221,35.1972501 61,33.3830511 61,31.1254055 C61,28.9682453 61.7664234,27.2152113 63.2981829,25.864119 C64.8310297,24.5119346 67.2835844,23.8369346 70.6569343,23.8369346 L80.3149557,23.8369346 L80.3149557,21.2188521 C80.3149557,18.5832938 79.6246312,16.5823229 78.2450691,15.2126627 C76.8644199,13.8440948 74.8293213,13.1592647 72.1397733,13.1592647 C70.2655692,13.1592647 68.512036,13.4847501 66.8769995,14.135721 C65.241963,14.7855996 63.845007,15.659386 62.6872185,16.7527113 L61.7675105,15.5206724 C63.0611896,14.2886336 64.6201273,13.3307453 66.4421494,12.6459152 C68.2641715,11.9610851 70.1807734,11.6192161 72.1908681,11.6192161 C75.3576642,11.6192161 77.7852151,12.4405754 79.4702594,14.0822016 Z M80.3149557,30.767153 L80.3149557,25.2229783 L70.6569343,25.2229783 C67.8978102,25.2229783 65.8790185,25.7461579 64.6027333,26.7892404 C63.3253611,27.8334152 62.6861314,29.2456724 62.6861314,31.0238278 C62.6861314,32.941789 63.3916757,34.446886 64.8060258,35.5423957 C66.2203758,36.6379055 68.1532847,37.1851142 70.6058394,37.1851142 C75.3739711,37.184022 78.6092561,35.0454297 80.3149557,30.767153 Z" id="Shape"></path>
                        <path d="M98.462084,13.3491405 C100.22204,12.1947592 102.402073,11.6192161 105,11.6192161 L105,13.3238781 L104.539553,13.3238781 C101.46263,13.3238781 99.0523732,14.3047177 97.3087834,16.2652986 C95.5641026,18.2280763 94.6933988,20.928955 94.6933988,24.3712298 L94.6933988,38.6192161 L93,38.6192161 L93,11.8257087 L94.6421167,11.8257087 L94.6421167,18.2786011 C95.426623,16.1444785 96.7010366,14.501325 98.462084,13.3491405 Z" id="Path"></path>
                        <path d="M135,25.3764058 L111.644751,25.3764058 C111.677515,27.6348696 112.209384,29.6552555 113.234896,31.433195 C114.262592,33.2133188 115.673627,34.5991943 117.471277,35.5919136 C119.267835,36.584633 121.276266,37.0804466 123.500939,37.0804466 C125.313879,37.0804466 126.991394,36.7462638 128.531301,36.0789904 C130.070115,35.411717 131.336988,34.4277345 132.329737,33.128135 L133.407671,34.2573668 C132.209602,35.660716 130.754882,36.737527 129.044603,37.4910763 C127.334324,38.2446257 125.485344,38.6192161 123.500939,38.6192161 C120.900572,38.6192161 118.581975,38.0469555 116.546241,36.90025 C114.510506,35.7535445 112.910533,34.1536173 111.74632,32.1004684 C110.582107,30.0473195 110,27.7200534 110,25.1197622 C110,22.5183789 110.539513,20.1911128 111.616356,18.139056 C112.695382,16.084815 114.190512,14.4848878 116.108296,13.3392744 C118.023896,12.1914768 120.163383,11.6192161 122.524573,11.6192161 C124.851907,11.6192161 126.964091,12.1838321 128.864401,13.3141561 C130.762527,14.4422959 132.25984,16.0171047 133.355249,18.0353064 C134.450657,20.0535081 134.997816,22.3469191 134.997816,24.9133552 L134.997816,25.3764058 L135,25.3764058 Z M117.137084,14.5460454 C115.528374,15.4699624 114.245118,16.7619173 113.28841,18.42191 C112.329518,20.0819027 111.799834,21.9384735 111.697174,23.9916224 L133.409855,23.9916224 C133.272247,21.9384735 132.717444,20.0819027 131.742169,18.42191 C130.766895,16.7619173 129.48364,15.4699624 127.893495,14.5460454 C126.302259,13.6221284 124.512254,13.1601699 122.528942,13.1601699 C120.541261,13.161262 118.744703,13.6232205 117.137084,14.5460454 Z" id="Shape"></path>
                    </g>
                    <g id="Group" transform="translate(196.000000, 0.467577)" fill="#80CFE3" fill-rule="nonzero">
                        <path d="M32.1443133,0.4935 L32.1443133,46.265625 L30.1768916,46.265625 L30.1768916,37.506 C28.9872651,40.3025 27.1740361,42.4928958 24.735253,44.0752292 C22.295494,45.6585417 19.5190482,46.4497083 16.4039639,46.4497083 C13.4938193,46.4497083 10.8500964,45.7613542 8.47279518,44.3836667 C6.09549398,43.0059792 4.21980723,41.0828958 2.84768675,38.6153958 C1.47361446,36.1478958 0.787554217,33.352375 0.787554217,30.2258958 C0.787554217,27.101375 1.47361446,24.3038958 2.84768675,21.8363958 C4.21980723,19.3688958 6.09549398,17.4477708 8.47279518,16.0691042 C10.8500964,14.6914167 13.4938193,14.0020833 16.4039639,14.0020833 C19.4780602,14.0020833 22.234012,14.7834583 24.6737711,16.3462083 C27.1125542,17.9099375 28.9257831,20.069 30.1154096,22.8233958 L30.1154096,0.4935 L32.1443133,0.4935 Z M23.4441325,42.7797917 C25.5130482,41.5675833 27.1428072,39.8706875 28.3314578,37.6910625 C29.5201084,35.5114375 30.1144337,33.023375 30.1144337,30.226875 C30.1144337,27.430375 29.5201084,24.9521042 28.3314578,22.7930417 C27.1418313,20.6339792 25.5130482,18.9488333 23.4441325,17.7346667 C21.3732651,16.5224583 19.0476867,15.915375 16.4654458,15.915375 C13.8832048,15.915375 11.5566506,16.5224583 9.48773494,17.7346667 C7.41784337,18.9488333 5.78808434,20.6339792 4.60040964,22.7930417 C3.41078313,24.9521042 2.81743373,27.430375 2.81743373,30.226875 C2.81743373,33.023375 3.41078313,35.5114375 4.60040964,37.6910625 C5.78906024,39.8716667 7.41784337,41.5675833 9.48773494,42.7797917 C11.5576265,43.9929792 13.8832048,44.5990833 16.4654458,44.5990833 C19.0476867,44.5990833 21.374241,43.9939583 23.4441325,42.7797917 Z" id="Shape"></path>
                        <path d="M45.3619518,5.27477083 C44.9520723,4.88408333 44.7471325,4.4209375 44.7471325,3.88729167 C44.7471325,3.31154167 44.9413373,2.8288125 45.3316988,2.43714583 C45.7201084,2.0474375 46.2022048,1.85160417 46.7760361,1.85160417 C47.3079036,1.85160417 47.780241,2.0474375 48.1901205,2.43714583 C48.5990241,2.8288125 48.8049398,3.29195833 48.8049398,3.824625 C48.8049398,4.35925 48.5990241,4.83316667 48.1901205,5.2434375 C47.780241,5.6546875 47.3079036,5.8603125 46.7760361,5.8603125 C46.2431928,5.8603125 45.7708554,5.66545833 45.3619518,5.27477083 Z M45.7923253,14.2498125 L47.8212289,14.2498125 L47.8212289,46.265625 L45.7923253,46.265625 L45.7923253,14.2498125 Z" id="Shape"></path>
                        <path d="M61.8683855,45.278625 C59.5935542,44.4982292 57.8203373,43.469125 56.5506867,42.19425 L57.5343976,40.590375 C58.846012,41.741875 60.5362771,42.7092917 62.6071446,43.4896875 C64.6760602,44.2710625 66.8796506,44.66175 69.2159639,44.66175 C72.6589518,44.66175 75.1992289,44.0762083 76.8397229,42.9041458 C78.4782651,41.7320833 79.299,40.0978542 79.299,38.0004792 C79.299,36.5199792 78.8578916,35.3479167 77.9776265,34.4842917 C77.0954096,33.6206667 75.9994699,32.9842083 74.6878554,32.5719792 C73.3752651,32.1617083 71.613759,31.7494792 69.4004096,31.3382292 C66.8181687,30.8447292 64.7580361,30.3414375 63.220988,29.827375 C61.6839398,29.3142917 60.3820843,28.4810208 59.3173735,27.3295208 C58.2507108,26.179 57.7188434,24.575125 57.7188434,22.5178958 C57.7188434,20.0915208 58.7123133,18.0666042 60.7012048,16.4411875 C62.6891205,14.81675 65.5885301,14.0040417 69.4013855,14.0040417 C71.3688072,14.0040417 73.3362289,14.3026875 75.3036506,14.899 C77.2710723,15.4953125 78.8696024,16.2864792 80.099241,17.2744583 L79.0540482,18.8783333 C77.7824458,17.8913333 76.2971205,17.1422708 74.5961205,16.6272292 C72.8951205,16.1131667 71.1423976,15.8556458 69.3399036,15.8556458 C66.1828554,15.8556458 63.8065301,16.4627292 62.208,17.6749375 C60.6094699,18.8891042 59.8102048,20.4822083 59.8102048,22.4562083 C59.8102048,24.0199375 60.2610723,25.2527083 61.1628072,26.1574583 C62.0635663,27.0622083 63.1809759,27.73 64.5130843,28.1618125 C65.8451928,28.593625 67.6584217,29.0362083 69.9547229,29.4876042 C72.414,29.9409583 74.4019157,30.4236875 75.9184699,30.93775 C77.4350241,31.4518125 78.7163855,32.2635417 79.7615783,33.3739167 C80.8067711,34.4842917 81.3288795,36.0264792 81.3288795,38.0004792 C81.3288795,40.5913542 80.2836867,42.6485833 78.1933012,44.1692292 C76.1029157,45.6908542 73.0903012,46.4516667 69.1554578,46.4516667 C66.572241,46.4506875 64.1441928,46.0609792 61.8683855,45.278625 Z" id="Path"></path>
                        <path d="M94.4538072,44.3846458 C92.056012,43.0069583 90.1695904,41.083875 88.7974699,38.616375 C87.4233976,36.148875 86.7373373,33.3533542 86.7373373,30.226875 C86.7373373,27.1023542 87.4233976,24.304875 88.7974699,21.837375 C90.1695904,19.369875 92.056012,17.44875 94.4538072,16.0700833 C96.8516024,14.6923958 99.5665663,14.0030625 102.599675,14.0030625 C105.017964,14.0030625 107.261566,14.4662083 109.332434,15.3905417 C111.401349,16.3158542 113.09259,17.68375 114.404205,19.49325 L112.867157,20.7886875 C111.719494,19.1848125 110.254663,17.9726042 108.471687,17.149125 C106.688711,16.326625 104.731048,15.915375 102.599675,15.915375 C99.9764458,15.915375 97.6089036,16.5224583 95.499,17.7346667 C93.3871446,18.9488333 91.7378675,20.6339792 90.5501928,22.7930417 C89.3605663,24.9521042 88.7672169,27.430375 88.7672169,30.226875 C88.7672169,33.023375 89.3605663,35.5114375 90.5501928,37.6910625 C91.7388434,39.8716667 93.3881205,41.5675833 95.499,42.7797917 C97.6098795,43.9929792 99.9764458,44.5990833 102.599675,44.5990833 C104.731048,44.5990833 106.688711,44.1888125 108.471687,43.3653333 C110.254663,42.5428333 111.719494,41.3296458 112.867157,39.7257708 L114.404205,40.9595208 C113.091614,42.77 111.401349,44.1369167 109.332434,45.06125 C107.261566,45.9865625 105.017964,46.4487292 102.599675,46.4487292 C99.5665663,46.4506875 96.8516024,45.7623333 94.4538072,44.3846458 Z" id="Path"></path>
                        <path d="M127.592566,44.3846458 C125.194771,43.0069583 123.32006,41.083875 121.966482,38.616375 C120.61388,36.148875 119.937578,33.3533542 119.937578,30.226875 C119.937578,27.1023542 120.61388,24.304875 121.966482,21.837375 C123.319084,19.369875 125.194771,17.44875 127.592566,16.0700833 C129.990361,14.6923958 132.664337,14.0030625 135.61547,14.0030625 C138.606614,14.0030625 141.292301,14.6923958 143.669602,16.0700833 C146.045928,17.44875 147.911855,19.3708542 149.264458,21.837375 C150.61706,24.304875 151.293361,27.1023542 151.293361,30.226875 C151.293361,33.352375 150.61706,36.148875 149.264458,38.616375 C147.911855,41.083875 146.045928,43.0069583 143.669602,44.3846458 C141.291325,45.7633125 138.606614,46.4506875 135.61547,46.4506875 C132.664337,46.4506875 129.990361,45.7623333 127.592566,44.3846458 Z M142.594157,42.7797917 C144.663072,41.5675833 146.292831,39.8706875 147.481482,37.6910625 C148.670133,35.5114375 149.264458,33.023375 149.264458,30.226875 C149.264458,27.430375 148.670133,24.9521042 147.481482,22.7930417 C146.291855,20.6339792 144.663072,18.9488333 142.594157,17.7346667 C140.523289,16.5224583 138.197711,15.915375 135.61547,15.915375 C133.033229,15.915375 130.706675,16.5224583 128.637759,17.7346667 C126.567867,18.9488333 124.938108,20.6339792 123.750434,22.7930417 C122.560807,24.9521042 121.967458,27.430375 121.967458,30.226875 C121.967458,33.023375 122.560807,35.5114375 123.750434,37.6910625 C124.939084,39.8716667 126.567867,41.5675833 128.637759,42.7797917 C130.707651,43.9929792 133.033229,44.5990833 135.61547,44.5990833 C138.197711,44.5990833 140.523289,43.9939583 142.594157,42.7797917 Z" id="Shape"></path>
                        <polygon id="Path" points="185.04694 14.2498125 170.476699 46.265625 168.447795 46.265625 153.876578 14.2498125 156.089928 14.2498125 169.492988 43.9831875 182.896048 14.2498125"></polygon>
                        <path d="M217.632361,30.5353125 L189.658084,30.5353125 C189.699072,33.2495625 190.334386,35.6759375 191.564024,37.8144375 C192.793663,39.9529375 194.483928,41.6185 196.635795,42.811125 C198.787663,44.00375 201.195217,44.6000625 203.86041,44.6000625 C206.031795,44.6000625 208.040205,44.1995833 209.885639,43.3966667 C211.730096,42.5947292 213.245675,41.412875 214.435301,39.850125 L215.725446,41.20725 C214.289892,42.8943542 212.547904,44.1897917 210.499482,45.0935625 C208.450084,45.9983125 206.236735,46.4506875 203.86041,46.4506875 C200.744349,46.4506875 197.966928,45.7623333 195.52912,44.3846458 C193.089361,43.0069583 191.173663,41.083875 189.780072,38.616375 C188.386482,36.148875 187.689687,33.3533542 187.689687,30.226875 C187.689687,27.1023542 188.335735,24.304875 189.626855,21.837375 C190.917976,19.369875 192.710711,17.44875 195.006036,16.0700833 C197.301361,14.6923958 199.863108,14.0030625 202.691277,14.0030625 C205.477482,14.0030625 208.008976,14.681625 210.283807,16.03875 C212.558639,17.395875 214.350398,19.287625 215.663964,21.714 C216.975578,24.1413542 217.631386,26.89575 217.631386,29.980125 L217.631386,30.5353125 L217.632361,30.5353125 Z M196.236651,17.51925 C194.309241,18.629625 192.772193,20.1825833 191.625506,22.1761667 C190.477843,24.1717083 189.84253,26.4012708 189.719566,28.8687708 L215.726422,28.8687708 C215.56247,26.4012708 214.895928,24.1707292 213.728747,22.1761667 C212.56059,20.1816042 211.023542,18.6286458 209.116627,17.51925 C207.210687,16.408875 205.069554,15.8536875 202.692253,15.8536875 C200.314952,15.8536875 198.163084,16.408875 196.236651,17.51925 Z" id="Shape"></path>
                        <path d="M234.201253,16.0700833 C236.311157,14.6923958 238.924627,14.0030625 242.038735,14.0030625 L242.038735,16.03875 L241.486373,16.03875 C237.798434,16.03875 234.907807,17.2108125 232.817422,19.5549375 C230.72606,21.8990625 229.681843,25.127375 229.681843,29.239875 L229.681843,46.265625 L227.65294,46.265625 L227.65294,14.2498125 L229.620361,14.2498125 L229.620361,21.96075 C230.563084,19.411 232.089398,17.4477708 234.201253,16.0700833 Z" id="Path"></path>
                    </g>
                    <path d="M9.48363636,60.2698351 C8.97905956,61.0625702 8.16451411,61.6288095 7.04,61.9685531 C8.16451411,62.3082967 8.97905956,62.874536 9.48363636,63.667271 C9.98721003,64.4600061 10.24,65.6295831 10.24,67.1779548 L10.24,79.5785958 C10.24,82.5230402 11.6744828,83.9942862 14.5454545,83.9942862 L16,83.9942862 L16,88.4675768 L13.44,88.4675768 C10.5309091,88.4675768 8.33905956,87.7597776 6.86545455,86.3441794 C5.39084639,84.9285811 4.65454545,82.8422821 4.65454545,80.0872349 L4.65454545,67.0637306 C4.65454545,65.1765917 3.78181818,64.2335103 2.03636364,64.2335103 L0,64.2335103 L0,59.7026195 L2.03636364,59.7026195 C3.78181818,59.7026195 4.65454545,58.7595382 4.65454545,56.8714229 L4.65454545,43.8479187 C4.65454545,41.0928715 5.39084639,39.0065725 6.86545455,37.5909742 C8.33905956,36.1753759 10.5309091,35.4675768 13.44,35.4675768 L16,35.4675768 L16,39.9408674 L14.5454545,39.9408674 C11.6744828,39.9408674 10.24,41.4130896 10.24,44.3575341 L10.24,56.7581751 C10.24,58.307523 9.98721003,59.4771001 9.48363636,60.2698351 Z" id="Path" fill="#26288E" fill-rule="nonzero"></path>
                    <path d="M792,54.7325341 L792,60.2026195 L789.642211,60.2026195 C787.60804,60.2026195 786.59196,61.3422207 786.59196,63.6224139 L786.59196,79.3479187 C786.59196,82.674563 785.700503,85.193577 783.922613,86.9039697 C782.142714,88.6133714 779.517588,89.4675768 776.051256,89.4675768 L773,89.4675768 L773,84.0668583 L774.663317,84.0668583 C778.176884,84.0668583 779.933668,82.2880896 779.933668,78.7325341 L779.933668,63.7581751 C779.933668,61.8436452 780.222111,60.4196392 780.801005,59.4851663 C781.377889,58.5516843 782.336683,57.8778332 783.678392,57.4685677 C782.336683,57.0583113 781.377889,56.3864421 780.801005,55.4509783 C780.222111,54.5174963 779.933668,53.0924994 779.933668,51.1779695 L779.933668,36.2026195 C779.933668,32.647064 778.176884,30.8692862 774.663317,30.8692862 L773,30.8692862 L773,25.4675768 L776.051256,25.4675768 C779.517588,25.4675768 782.142714,26.3227731 783.922613,28.0321748 C785.701508,29.7415765 786.59196,32.2605905 786.59196,35.5882259 L786.59196,51.3147216 C786.59196,53.5949148 787.60804,54.733525 789.642211,54.733525 L792,54.733525 L792,54.7325341 Z" id="Path" fill="#26288E" fill-rule="nonzero"></path>
                </g>
            </g>
        </g>
    </g>
</svg>