<?xml version="1.0" encoding="UTF-8"?>
<svg width="20px" height="21px" viewBox="0 0 20 21" version="1.1" xmlns="http://www.w3.org/2000/svg" xmlns:xlink="http://www.w3.org/1999/xlink">
    <!-- Generator: Sketch 54.1 (76490) - https://sketchapp.com -->
    <title>lupa real</title>
    <desc>Created with Sketch.</desc>
    <g id="Symbols" stroke="none" stroke-width="1" fill="none" fill-rule="evenodd">
        <g id="header-real" transform="translate(-965.000000, -29.000000)" fill="#FFFFFF">
            <g id="lupa-real-blanca" transform="translate(965.000000, 29.500000)">
                <path d="M1.84210526,7.89473684 C1.84210526,4.55725208 4.55725208,1.84210526 7.89473684,1.84210526 C11.2322216,1.84210526 13.9473684,4.55725208 13.9473684,7.89473684 C13.9473684,11.2322216 11.2322216,13.9473684 7.89473684,13.9473684 C4.55725208,13.9473684 1.84210526,11.2322216 1.84210526,7.89473684 Z M14.0682359,12.8895585 C15.1703267,11.5290232 15.8334759,9.80006447 15.8334759,7.91689419 C15.8334759,3.55160231 12.2819437,0 7.91673794,0 C3.55153222,0 0,3.55160231 0,7.91689419 C0,12.2821861 3.55153222,15.8332621 7.91673794,15.8332621 C9.79987105,15.8332621 11.529322,15.1700998 12.8898304,14.0685136 L18.699754,19.8780255 C18.8618571,20.0406582 19.1260641,20.0406582 19.2886936,19.8780255 L19.8776332,19.288548 C20.0407889,19.1264416 20.0407889,18.8622294 19.8776332,18.6995967 L14.0682359,12.8895585 Z" id="Fill-1"></path>
            </g>
        </g>
    </g>
</svg>