<?xml version="1.0" encoding="UTF-8"?>
<svg width="22px" height="22px" viewBox="0 0 22 22" version="1.1" xmlns="http://www.w3.org/2000/svg" xmlns:xlink="http://www.w3.org/1999/xlink">
    <!-- Generator: Sketch 54.1 (76490) - https://sketchapp.com -->
    <title>lupa</title>
    <desc>Created with Sketch.</desc>
    <g id="Symbols" stroke="none" stroke-width="1" fill="none" fill-rule="evenodd">
        <g id="search-section-home" transform="translate(-300.000000, -350.000000)" fill="#525252">
            <g id="search" transform="translate(0.000000, 333.000000)">
                <g id="lupa-real" transform="translate(300.000000, 17.000000)">
                    <path d="M2.02631579,8.68421053 C2.02631579,5.01297729 5.01297729,2.02631579 8.68421053,2.02631579 C12.3554438,2.02631579 15.3421053,5.01297729 15.3421053,8.68421053 C15.3421053,12.3554438 12.3554438,15.3421053 8.68421053,15.3421053 C5.01297729,15.3421053 2.02631579,12.3554438 2.02631579,8.68421053 Z M15.4750595,14.1785143 C16.6873594,12.6819255 17.4168235,10.7800709 17.4168235,8.70858361 C17.4168235,3.90676254 13.510138,0 8.70841173,0 C3.90668544,0 0,3.90676254 0,8.70858361 C0,13.5104047 3.90668544,17.4165883 8.70841173,17.4165883 C10.7798582,17.4165883 12.6822542,16.6871098 14.1788134,15.475365 L20.5697293,21.8658281 C20.7480428,22.044724 21.0386705,22.044724 21.2175629,21.8658281 L21.8653965,21.2174027 C22.0448678,21.0390858 22.0448678,20.7484523 21.8653965,20.5695564 L15.4750595,14.1785143 Z" id="Fill-1"></path>
                </g>
            </g>
        </g>
    </g>
</svg>