<?xml version="1.0" encoding="UTF-8" standalone="no"?>
<svg width="1005px" height="1002px" viewBox="0 0 1005 1002" version="1.1" xmlns="http://www.w3.org/2000/svg" xmlns:xlink="http://www.w3.org/1999/xlink" xmlns:sketch="http://www.bohemiancoding.com/sketch/ns">
    <!-- Generator: Sketch 3.4.1 (15681) - http://www.bohemiancoding.com/sketch -->
    <title>browser109</title>
    <desc>Created with Sketch.</desc>
    <defs></defs>
    <g id="Exportable" stroke="none" stroke-width="1" fill="none" fill-rule="evenodd" sketch:type="MSPage">
        <g id="Services" sketch:type="MSLayerGroup" transform="translate(0.000000, -119.000000)">
            <g id="browser109" transform="translate(0.000000, 119.000000)" sketch:type="MSShapeGroup">
                <rect id="Rectangle-1" stroke="#979797" fill="#5E9FEA" x="0" y="0" width="1003" height="1000"></rect>
                <path d="M9.00799351,4 C7.89900932,4 7,4.88939268 7,6.00799351 L7,1000.20547 C7,1001.31445 7.63630492,1001.57715 8.40895761,1000.8045 L1003.8045,5.40895761 C1004.58265,4.63081181 1004.32407,4 1003.20547,4 L9.00799351,4 Z" id="Rectangle-12-Copy" fill="#6EAAEF"></path>
                <g id="Capa_1" transform="translate(277.000000, 314.000000)" fill="#FFFFFF">
                    <g id="Group">
                        <path d="M440.815829,0.373775088 L9.18366309,0.373775088 C4.11152597,0.373775088 0,4.48621942 0,9.55743818 L0,361.462551 C0,366.534688 4.11152597,370.646214 9.18366309,370.646214 L440.815829,370.646214 C445.887047,370.646214 449.999492,366.534688 449.999492,361.462551 L449.999492,9.55743818 C449.999492,4.48621942 445.887047,0.373775088 440.815829,0.373775088 L440.815829,0.373775088 Z M431.632165,18.7411013 L431.632165,74.0497123 L18.3673262,74.0497123 L18.3673262,18.7411013 L431.632165,18.7411013 L431.632165,18.7411013 Z M18.3673262,352.278888 L18.3673262,92.4170385 L431.632165,92.4170385 L431.632165,352.278888 L18.3673262,352.278888 L18.3673262,352.278888 Z" id="Shape"></path>
                        <path d="M225.99993,320.41581 L369.936367,320.41581 C379.877728,320.41581 387.936296,312.355442 387.936296,302.415881 L387.936296,156.623651 C387.936296,146.682289 379.877728,138.623721 369.936367,138.623721 L225.99993,138.623721 C216.058568,138.623721 208,146.682289 208,156.623651 L208,302.415881 C208,312.357242 216.060368,320.41581 225.99993,320.41581 L225.99993,320.41581 Z M227,157.266637 L369,157.266637 L369,301.708095 L227,301.708095 L227,157.266637 L227,157.266637 Z" id="Shape" stroke="#979797"></path>
                        <path d="M150.716124,254.67859 L70.7231265,254.67859 C65.1991931,254.67859 60.7196253,258.790116 60.7196253,263.862253 C60.7196253,268.93439 65.1991931,273.045916 70.7231265,273.045916 L150.716124,273.045916 C156.241058,273.045916 160.719625,268.93439 160.719625,263.862253 C160.719625,258.791034 156.241058,254.67859 150.716124,254.67859 L150.716124,254.67859 Z" id="Shape"></path>
                        <path d="M149.996499,185.509995 L70.0035012,185.509995 C64.4795678,185.509995 60,189.62152 60,194.693658 C60,199.765795 64.4795678,203.877321 70.0035012,203.877321 L149.996499,203.877321 C155.521433,203.877321 160,199.765795 160,194.693658 C160,189.622439 155.521433,185.509995 149.996499,185.509995 L149.996499,185.509995 Z" id="Shape-Copy"></path>
                        <path d="M149.996499,151.623721 L70.0035012,151.623721 C64.4795678,151.623721 60,155.735247 60,160.807384 C60,165.879521 64.4795678,169.991047 70.0035012,169.991047 L149.996499,169.991047 C155.521433,169.991047 160,165.879521 160,160.807384 C160,155.736165 155.521433,151.623721 149.996499,151.623721 L149.996499,151.623721 Z" id="Shape-Copy-3"></path>
                        <path d="M150.716124,288.658143 L70.7231265,288.658143 C65.1991931,288.658143 60.7196253,292.769669 60.7196253,297.841806 C60.7196253,302.913944 65.1991931,307.025469 70.7231265,307.025469 L150.716124,307.025469 C156.241058,307.025469 160.719625,302.913944 160.719625,297.841806 C160.719625,292.770588 156.241058,288.658143 150.716124,288.658143 L150.716124,288.658143 Z" id="Shape"></path>
                        <path d="M149.996499,219.509995 L70.0035012,219.509995 C64.4795678,219.509995 60,223.62152 60,228.693658 C60,233.765795 64.4795678,237.877321 70.0035012,237.877321 L149.996499,237.877321 C155.521433,237.877321 160,233.765795 160,228.693658 C160,223.622439 155.521433,219.509995 149.996499,219.509995 L149.996499,219.509995 Z" id="Shape-Copy-2"></path>
                        <path d="M69.9032884,55.3765701 L74.4381812,55.3765701 C79.5094,55.3765701 83.6218443,51.2641258 83.6218443,46.192907 C83.6218443,41.1216882 79.5094,37.0092439 74.4381812,37.0092439 L69.9032884,37.0092439 C64.8320696,37.0092439 60.7196253,41.1216882 60.7196253,46.192907 C60.7196253,51.2641258 64.8320696,55.3765701 69.9032884,55.3765701 L69.9032884,55.3765701 Z" id="Shape"></path>
                        <path d="M107.985184,55.3765701 L112.517322,55.3765701 C117.588541,55.3765701 121.700985,51.2641258 121.700985,46.192907 C121.700985,41.1216882 117.589459,37.0092439 112.517322,37.0092439 L107.985184,37.0092439 C102.913965,37.0092439 98.801521,41.1216882 98.801521,46.192907 C98.801521,51.2641258 102.913965,55.3765701 107.985184,55.3765701 L107.985184,55.3765701 Z" id="Shape"></path>
                        <path d="M146.065243,55.3765701 L150.594626,55.3765701 C155.665845,55.3765701 159.778289,51.2641258 159.778289,46.192907 C159.778289,41.1216882 155.665845,37.0092439 150.594626,37.0092439 L146.065243,37.0092439 C140.994024,37.0092439 136.88158,41.1216882 136.88158,46.192907 C136.88158,51.2641258 140.993106,55.3765701 146.065243,55.3765701 L146.065243,55.3765701 Z" id="Shape"></path>
                    </g>
                </g>
            </g>
        </g>
    </g>
</svg>