<?xml version="1.0" encoding="UTF-8" standalone="no"?>
<svg width="1005px" height="1002px" viewBox="0 0 1005 1002" version="1.1" xmlns="http://www.w3.org/2000/svg" xmlns:xlink="http://www.w3.org/1999/xlink" xmlns:sketch="http://www.bohemiancoding.com/sketch/ns">
    <!-- Generator: Sketch 3.4.1 (15681) - http://www.bohemiancoding.com/sketch -->
    <title>identification27</title>
    <desc>Created with Sketch.</desc>
    <defs></defs>
    <g id="Exportable" stroke="none" stroke-width="1" fill="none" fill-rule="evenodd" sketch:type="MSPage">
        <g id="Testimonials" sketch:type="MSLayerGroup" transform="translate(0.000000, -119.000000)">
            <g id="identification27" transform="translate(0.000000, 119.000000)" sketch:type="MSShapeGroup">
                <rect id="Rectangle-1" stroke="#979797" fill="#5E9FEA" x="0" y="0" width="1003" height="1000"></rect>
                <path d="M9.00799351,4 C7.89900932,4 7,4.88939268 7,6.00799351 L7,1000.20547 C7,1001.31445 7.63630492,1001.57715 8.40895761,1000.8045 L1003.8045,5.40895761 C1004.58265,4.63081181 1004.32407,4 1003.20547,4 L9.00799351,4 Z" id="Rectangle-12-Copy" fill="#6EAAEF"></path>
                <g id="Capa_1" transform="translate(277.000000, 346.000000)" fill="#FFFFFF">
                    <g id="_x37_7_Essential_Icons_50_">
                        <path d="M189.470778,153.945007 C189.470778,160.458065 184.141913,165.786931 177.628855,165.786931 L71.0515418,165.786931 C64.5384838,165.786931 59.2096182,160.458065 59.2096182,153.945007 C59.2096182,147.431949 64.5384838,142.103084 71.0515418,142.103084 L177.628855,142.103084 C184.141913,142.103084 189.470778,147.431949 189.470778,153.945007 L189.470778,153.945007 Z M153.945007,224.996549 L71.0515418,224.996549 C64.5384838,224.996549 59.2096182,230.325415 59.2096182,236.838473 C59.2096182,243.351531 64.5384838,248.680396 71.0515418,248.680396 L153.945007,248.680396 C160.458065,248.680396 165.786931,243.351531 165.786931,236.838473 C165.786931,230.325415 160.458065,224.996549 153.945007,224.996549 L153.945007,224.996549 Z M177.628855,59.2096182 L71.0515418,59.2096182 C64.5384838,59.2096182 59.2096182,64.5384838 59.2096182,71.0515418 C59.2096182,77.5645998 64.5384838,82.8934655 71.0515418,82.8934655 L177.628855,82.8934655 C184.141913,82.8934655 189.470778,77.5645998 189.470778,71.0515418 C189.470778,64.5384838 184.141913,59.2096182 177.628855,59.2096182 L177.628855,59.2096182 Z M449.993098,11.8419236 L449.993098,296.048091 C449.993098,302.561149 444.664233,307.890015 438.151175,307.890015 L11.8419236,307.890015 C5.32886564,307.890015 0,302.561149 0,296.048091 L0,11.8419236 C0,5.32886564 5.32886564,0 11.8419236,0 L438.151175,0 C444.664233,0 449.993098,5.32886564 449.993098,11.8419236 L449.993098,11.8419236 Z M426.309251,23.6838473 L23.6838473,23.6838473 L23.6838473,284.206167 L426.309251,284.206167 L426.309251,23.6838473 L426.309251,23.6838473 Z M390.191384,236.838473 C390.191384,243.351531 384.862518,248.680396 378.34946,248.680396 L213.154626,248.680396 C206.641568,248.680396 201.312702,243.351531 201.312702,236.838473 C201.312702,197.760125 224.404453,164.602739 258.153935,149.800334 C246.904108,138.550507 239.206858,123.156006 239.206858,106.577313 C239.206858,75.1962151 265.25909,47.3676946 295.455995,47.3676946 C325.6529,47.3676946 351.705132,75.1962151 351.705132,106.577313 C351.705132,123.156006 344.599978,138.550507 332.758054,149.800334 C366.507537,164.602739 390.191384,197.760125 390.191384,236.838473 L390.191384,236.838473 Z M262.890705,106.577313 C262.890705,123.156006 277.101013,142.103084 295.455995,142.103084 C313.810976,142.103084 328.021285,123.156006 328.021285,106.577313 C328.021285,89.9986197 313.810976,71.0515418 295.455995,71.0515418 C277.101013,71.0515418 262.890705,89.9986197 262.890705,106.577313 L262.890705,106.577313 Z M365.91544,224.996549 C360.586575,191.247067 330.981766,165.786931 296.048091,165.786931 C261.114416,165.786931 232.101703,191.247067 226.180742,224.996549 L365.91544,224.996549 L365.91544,224.996549 Z" id="Profile"></path>
                    </g>
                </g>
            </g>
        </g>
    </g>
</svg>