<?xml version="1.0" encoding="UTF-8" standalone="no"?>
<svg width="1005px" height="1002px" viewBox="0 0 1005 1002" version="1.1" xmlns="http://www.w3.org/2000/svg" xmlns:xlink="http://www.w3.org/1999/xlink" xmlns:sketch="http://www.bohemiancoding.com/sketch/ns">
    <!-- Generator: Sketch 3.4.1 (15681) - http://www.bohemiancoding.com/sketch -->
    <title>browser109</title>
    <desc>Created with Sketch.</desc>
    <defs></defs>
    <g id="Exportable" stroke="none" stroke-width="1" fill="none" fill-rule="evenodd" sketch:type="MSPage">
        <g id="Toggles" sketch:type="MSLayerGroup" transform="translate(0.000000, -119.000000)">
            <g id="browser109" transform="translate(0.000000, 119.000000)" sketch:type="MSShapeGroup">
                <rect id="Rectangle-1" stroke="#979797" fill="#5E9FEA" x="0" y="0" width="1003" height="1000"></rect>
                <path d="M9.00799351,4 C7.89900932,4 7,4.88939268 7,6.00799351 L7,1000.20547 C7,1001.31445 7.63630492,1001.57715 8.40895761,1000.8045 L1003.8045,5.40895761 C1004.58265,4.63081181 1004.32407,4 1003.20547,4 L9.00799351,4 Z" id="Rectangle-12-Copy" fill="#6EAAEF"></path>
                <g id="Capa_1" transform="translate(277.000000, 314.000000)" fill="#FFFFFF">
                    <g id="Group">
                        <path d="M440.815829,0.373775088 L9.18366309,0.373775088 C4.11152597,0.373775088 0,4.48621942 0,9.55743818 L0,361.462551 C0,366.534688 4.11152597,370.646214 9.18366309,370.646214 L440.815829,370.646214 C445.887047,370.646214 449.999492,366.534688 449.999492,361.462551 L449.999492,9.55743818 C449.999492,4.48621942 445.887047,0.373775088 440.815829,0.373775088 L440.815829,0.373775088 Z M431.632165,18.7411013 L431.632165,74.0497123 L18.3673262,74.0497123 L18.3673262,18.7411013 L431.632165,18.7411013 L431.632165,18.7411013 Z M18.3673262,352.278888 L18.3673262,92.4170385 L431.632165,92.4170385 L431.632165,352.278888 L18.3673262,352.278888 L18.3673262,352.278888 Z" id="Shape"></path>
                        <path d="M69.9032884,55.3765701 L74.4381812,55.3765701 C79.5094,55.3765701 83.6218443,51.2641258 83.6218443,46.192907 C83.6218443,41.1216882 79.5094,37.0092439 74.4381812,37.0092439 L69.9032884,37.0092439 C64.8320696,37.0092439 60.7196253,41.1216882 60.7196253,46.192907 C60.7196253,51.2641258 64.8320696,55.3765701 69.9032884,55.3765701 L69.9032884,55.3765701 Z" id="Shape"></path>
                        <path d="M107.985184,55.3765701 L112.517322,55.3765701 C117.588541,55.3765701 121.700985,51.2641258 121.700985,46.192907 C121.700985,41.1216882 117.589459,37.0092439 112.517322,37.0092439 L107.985184,37.0092439 C102.913965,37.0092439 98.801521,41.1216882 98.801521,46.192907 C98.801521,51.2641258 102.913965,55.3765701 107.985184,55.3765701 L107.985184,55.3765701 Z" id="Shape"></path>
                        <path d="M146.065243,55.3765701 L150.594626,55.3765701 C155.665845,55.3765701 159.778289,51.2641258 159.778289,46.192907 C159.778289,41.1216882 155.665845,37.0092439 150.594626,37.0092439 L146.065243,37.0092439 C140.994024,37.0092439 136.88158,41.1216882 136.88158,46.192907 C136.88158,51.2641258 140.993106,55.3765701 146.065243,55.3765701 L146.065243,55.3765701 Z" id="Shape"></path>
                        <rect id="Rectangle-13" x="56" y="124" width="340" height="18" rx="20"></rect>
                        <rect id="Rectangle-15" x="56" y="147" width="340" height="143" rx="9"></rect>
                        <rect id="Rectangle-13-Copy" x="56" y="307" width="340" height="18" rx="20"></rect>
                    </g>
                </g>
            </g>
        </g>
    </g>
</svg>